<?xml version="1.0" standalone="no"?>
<!DOCTYPE svg PUBLIC "-//W3C//DTD SVG 1.1//EN" "http://www.w3.org/Graphics/SVG/1.1/DTD/svg11.dtd" >
<svg>
<metadata>
Created by FontForge 20090622 at Wed Feb 24 22:48:43 2016
 By deploy user
Copyright (c) 2016 Caveras / Cliff Modes
</metadata>
<defs>
<font id="Sangoku4" horiz-adv-x="2184" >
  <font-face 
    font-family="Sangoku4"
    font-weight="400"
    font-stretch="normal"
    units-per-em="4096"
    panose-1="0 0 4 0 0 0 0 0 0 0"
    ascent="3276"
    descent="-820"
    x-height="2457"
    cap-height="3276"
    bbox="0 -546 4096 3822"
    underline-thickness="204"
    underline-position="511"
    unicode-range="U+0020-U+FFFD"
  />
<missing-glyph horiz-adv-x="4369" 
d="M3549 546v2457h-3003v-2457h3003zM0 0v3549h4096v-3549h-4096z" />
    <glyph glyph-name=".notdef" horiz-adv-x="4369" 
d="M3549 546v2457h-3003v-2457h3003zM0 0v3549h4096v-3549h-4096z" />
    <glyph glyph-name="NULL" horiz-adv-x="0" 
 />
    <glyph glyph-name="nonmarkingreturn" horiz-adv-x="819" 
 />
    <glyph glyph-name="space" unicode=" " horiz-adv-x="1638" 
 />
    <glyph glyph-name="exclam" unicode="!" horiz-adv-x="1092" 
d="M273 0v273h-273v273h273v273h273v-273h273v-273h-273v-273h-273zM273 1092v1092h-273v819h273v273h273v273h273v-2184h-273v-273h-273z" />
    <glyph glyph-name="quotedbl" unicode="&#x22;" 
d="M0 2184v273h273v-273h-273zM1092 2184v273h273v-273h-273zM273 2457v546h-273v273h273v273h273v-273h273v-546h-273v-273h-273zM1365 2457v546h-273v273h273v273h273v-273h273v-546h-273v-273h-273z" />
    <glyph glyph-name="numbersign" unicode="#" 
d="M1092 1092v546h-273v-546h273zM273 0v546h-273v546h273v546h-273v546h273v546h546v-546h273v546h546v-546h273v-546h-273v-546h273v-546h-273v-546h-546v546h-273v-546h-546z" />
    <glyph glyph-name="dollar" unicode="$" 
d="M1365 546v819h-273v-819h273zM819 1911v819h-273v-819h273zM819 -273v273h-819v273h273v273h546v819h-273v273h-273v273h-273v819h273v273h273v273h273v273h273v-273h819v-273h-273v-273h-546v-819h273v-273h273v-273h273v-819h-273v-273h-273v-273h-273v-273h-273z" />
    <glyph glyph-name="percent" unicode="%" horiz-adv-x="2457" 
d="M1365 0v273h546v-273h-546zM1092 273v546h273v-546h-273zM1911 273v546h273v-546h-273zM1365 819v273h546v-273h-546zM273 2457v273h546v-273h-546zM0 2730v546h273v-546h-273zM819 2730v546h273v-546h-273zM273 3276v273h546v-273h-546zM273 0v819h273v546h273v546h273
v546h273v546h273v546h273v-819h-273v-546h-273v-546h-273v-546h-273v-546h-273v-546h-273z" />
    <glyph glyph-name="quotesingle" unicode="'" horiz-adv-x="1092" 
d="M0 2184v273h273v-273h-273zM273 2457v546h-273v273h273v273h273v-273h273v-546h-273v-273h-273z" />
    <glyph glyph-name="parenleft" unicode="(" horiz-adv-x="1365" 
d="M546 0v273h-273v273h-273v2457h273v273h273v273h546v-273h-273v-273h-273v-2457h273v-273h273v-273h-546z" />
    <glyph glyph-name="parenright" unicode=")" horiz-adv-x="1365" 
d="M0 0v273h273v273h273v2457h-273v273h-273v273h546v-273h273v-273h273v-2457h-273v-273h-273v-273h-546z" />
    <glyph glyph-name="plus" unicode="+" horiz-adv-x="2457" 
d="M819 546v819h-819v273h273v273h546v546h273v273h273v-819h819v-273h-273v-273h-546v-546h-273v-273h-273z" />
    <glyph glyph-name="comma" unicode="," horiz-adv-x="1092" 
d="M0 -546v273h273v-273h-273zM273 -273v546h-273v273h273v273h273v-273h273v-546h-273v-273h-273z" />
    <glyph glyph-name="hyphen" unicode="-" horiz-adv-x="1911" 
d="M0 1365v273h273v273h1365v-273h-273v-273h-1365z" />
    <glyph glyph-name="period" unicode="." horiz-adv-x="1092" 
d="M273 0v273h-273v273h273v273h273v-273h273v-273h-273v-273h-273z" />
    <glyph glyph-name="slash" unicode="/" horiz-adv-x="1911" 
d="M0 0v819h273v546h273v546h273v546h273v546h273v546h273v-819h-273v-546h-273v-546h-273v-546h-273v-546h-273v-546h-273z" />
    <glyph glyph-name="zero" unicode="0" 
d="M1365 546v1911h-273v273h-546v-1911h273v-273h546zM546 0v273h-273v546h-273v1911h273v273h546v273h546v-273h273v-546h273v-1911h-273v-273h-546v-273h-546z" />
    <glyph glyph-name="one" unicode="1" horiz-adv-x="1365" 
d="M0 0v273h546v2184h-546v273h546v273h273v273h273v-3276h-1092z" />
    <glyph glyph-name="two" unicode="2" 
d="M0 0v546h273v273h273v273h273v273h273v273h273v1092h-273v273h-546v-546h-273v-273h-273v819h273v273h1092v-273h273v-273h273v-819h-273v-546h-273v-273h-273v-273h-273v-273h819v546h273v-1092h-1911z" />
    <glyph glyph-name="three" unicode="3" 
d="M546 0v273h-273v546h-273v546h273v273h273v-819h273v-273h546v1092h-819v273h273v273h273v273h273v-273h273v-273h273v-1365h-273v-273h-273v-273h-819zM0 2184v1092h1911v-546h-273v-273h-273v273h-1092v-546h-273z" />
    <glyph glyph-name="four" unicode="4" 
d="M1092 1638v819h-273v-546h-273v-273h546zM546 0v273h546v1092h-1092v546h273v546h273v273h273v273h273v273h546v-1638h273v-273h-273v-1365h-1092z" />
    <glyph glyph-name="five" unicode="5" 
d="M0 0v1638h273v-819h273v-273h819v1365h-1092v1365h1365v-546h-819v-273h546v-273h273v-273h273v-1365h-273v-273h-273v-273h-819v273h-273v-273h-273z" />
    <glyph glyph-name="six" unicode="6" 
d="M1365 546v819h-819v-546h273v-273h546zM546 0v273h-273v546h-273v1911h273v273h273v273h1092v-1092h-273v546h-819v-1092h273v273h819v-273h273v-1092h-273v-273h-546v-273h-546z" />
    <glyph glyph-name="seven" unicode="7" 
d="M273 -273v819h273v819h273v546h273v546h273v273h-1092v-546h-273v1092h1911v-819h-273v-546h-273v-546h-273v-1092h-273v-273h-273v-273h-273z" />
    <glyph glyph-name="eight" unicode="8" 
d="M273 0v273h-273v819h273v273h273v-1092h819v819h-273v273h-546v273h-273v273h-273v1092h273v273h1365v-273h273v-819h-273v-273h-273v1092h-819v-819h273v-273h546v-273h273v-273h273v-1092h-273v-273h-1365z" />
    <glyph glyph-name="nine" unicode="9" 
d="M1365 1911v1092h-819v-1092h819zM273 0v1092h273v-546h546v273h273v819h-273v-273h-819v273h-273v1365h273v273h1365v-273h273v-2184h-273v-273h-273v-273h-273v-273h-819z" />
    <glyph glyph-name="colon" unicode=":" horiz-adv-x="1092" 
d="M273 0v273h-273v273h273v273h273v-273h273v-273h-273v-273h-273zM273 1638v273h-273v273h273v273h273v-273h273v-273h-273v-273h-273z" />
    <glyph glyph-name="semicolon" unicode=";" horiz-adv-x="1092" 
d="M0 -546v273h273v-273h-273zM273 -273v546h-273v273h273v273h273v-273h273v-546h-273v-273h-273zM273 1638v273h-273v273h273v273h273v-273h273v-273h-273v-273h-273z" />
    <glyph glyph-name="less" unicode="&#x3c;" horiz-adv-x="1638" 
d="M819 546v273h-273v273h-273v273h-273v273h273v273h273v273h273v273h546v-273h-273v-273h-273v-273h-273v-273h273v-273h273v-273h273v-273h-546z" />
    <glyph glyph-name="equal" unicode="=" horiz-adv-x="1911" 
d="M0 819v273h273v273h1365v-273h-273v-273h-1365zM0 1911v273h273v273h1365v-273h-273v-273h-1365z" />
    <glyph glyph-name="greater" unicode="&#x3e;" horiz-adv-x="1638" 
d="M0 546v273h273v273h273v273h273v273h-273v273h-273v273h-273v273h546v-273h273v-273h273v-273h273v-273h-273v-273h-273v-273h-273v-273h-546z" />
    <glyph glyph-name="question" unicode="?" horiz-adv-x="1911" 
d="M546 0v273h-273v273h273v273h273v-273h273v-273h-273v-273h-273zM0 3003v273h273v-273h-273zM546 1092v546h273v273h273v1092h-273v273h-546v273h1092v-273h273v-1365h-273v-273h-273v-273h-273v-273h-273z" />
    <glyph glyph-name="A" unicode="A" 
d="M1365 1092v819h-273v1092h-273v-1092h-273v-819h819zM0 -273v1911h273v1092h273v273h-546v273h1911v-273h-546v-273h273v-1092h273v-1638h-1092v273h546v546h-819v-273h-273v-819h-273z" />
    <glyph glyph-name="B" unicode="B" 
d="M1365 1911v819h-546v-819h546zM546 0v273h-273v2730h-273v273h819v-273h273v273h546v-273h273v-1092h-273v-273h273v-1092h-273v-273h-273v1365h-546v-1365h546v-273h-819z" />
    <glyph glyph-name="C" unicode="C" 
d="M546 0v273h-273v546h-273v1911h273v273h546v273h819v273h273v-1365h-273v546h-1092v-1911h273v-273h1092v-273h-546v-273h-819z" />
    <glyph glyph-name="D" unicode="D" 
d="M546 0v273h-273v2730h-273v273h819v-273h273v273h546v-273h273v-2457h-273v-273h-273v2457h-546v-2457h546v-273h-819z" />
    <glyph glyph-name="E" unicode="E" 
d="M1638 546v1092h-1092v-819h273v-273h819zM1638 1911v819h-1092v-819h1092zM1638 -273v546h-273v-273h-819v273h-273v546h-273v1911h273v273h546v273h819v273h273v-3822h-273z" />
    <glyph glyph-name="F" unicode="F" 
d="M273 0v1638h-273v273h273v1092h-273v273h819v-273h273v273h546v273h273v-1365h-273v546h-819v-819h819v-273h-819v-1365h546v-273h-1092z" />
    <glyph glyph-name="G" unicode="G" 
d="M1365 -273v546h-273v-273h-546v273h-273v546h-273v1911h273v273h546v273h819v273h273v-1365h-273v546h-1092v-1911h273v-273h546v819h-546v273h1092v-1638h-273v-273h-273z" />
    <glyph glyph-name="H" unicode="H" horiz-adv-x="2457" 
d="M0 0v273h273v1365h-273v273h273v1092h-273v273h819v-1365h546v1092h-273v273h1092v-273h-273v-1092h273v-273h-273v-1365h273v-273h-1092v273h273v1365h-546v-1638h-819z" />
    <glyph glyph-name="I" unicode="I" horiz-adv-x="1911" 
d="M0 0v273h546v2730h-546v273h1638v-273h-546v-2730h546v-273h-1638z" />
    <glyph glyph-name="J" unicode="J" 
d="M0 -546v273h546v273h273v3003h-546v273h1638v-273h-546v-3003h-273v-273h-273v-273h-819z" />
    <glyph glyph-name="K" unicode="K" horiz-adv-x="2457" 
d="M1092 2184v273h273v-273h-273zM1911 -273v273h-273v273h-273v546h-273v546h-273v-1092h273v-273h-819v3003h-273v273h819v-1092h273v-546h273v-546h273v-546h273v-273h273v-546h-273zM1365 2457v546h-273v273h819v-546h-273v-273h-273z" />
    <glyph glyph-name="L" unicode="L" 
d="M273 0v3003h-273v273h1365v-273h-546v-2730h819v546h273v-819h-1638z" />
    <glyph glyph-name="M" unicode="M" 
d="M0 -273v1638h273v1365h-273v546h819v-273h-273v-273h273v-819h273v819h273v273h-273v273h819v-546h-273v-1092h273v-1638h-1092v273h546v1365h-273v-819h-273v819h-273v-819h-273v-1092h-273z" />
    <glyph glyph-name="N" unicode="N" 
d="M273 0v3003h-273v273h819v-546h273v-546h273v-546h273v1365h-546v273h819v-3276h-273v546h-273v546h-273v546h-273v546h-273v-1911h546v-273h-819z" />
    <glyph glyph-name="O" unicode="O" 
d="M1365 546v1911h-273v273h-546v-1911h273v-273h546zM546 0v273h-273v546h-273v1911h273v273h546v273h546v-273h273v-546h273v-1911h-273v-273h-546v-273h-546z" />
    <glyph glyph-name="P" unicode="P" 
d="M1092 1365v273h273v1092h-546v-1365h273zM273 0v1092h-273v273h273v1638h-273v273h819v-273h273v273h546v-273h273v-1365h-273v-273h-273v-273h-546v-819h546v-273h-1092z" />
    <glyph glyph-name="Q" unicode="Q" 
d="M1092 -273v273h-546v273h-273v546h-273v1911h273v273h546v273h546v-273h273v-273h273v-1911h-273v-273h-273v1911h-273v273h-546v-1911h273v-273h546v-273h546v-273h-273v-273h-546z" />
    <glyph glyph-name="R" unicode="R" horiz-adv-x="2457" 
d="M1092 1365v273h273v1092h-546v-1365h273zM1911 -273v273h-273v273h-273v546h-273v273h-273v-819h273v-273h-819v3003h-273v273h819v-273h273v273h546v-273h273v-1365h-273v-273h-273v-273h273v-546h273v-273h273v-546h-273z" />
    <glyph glyph-name="S" unicode="S" 
d="M0 -273v1365h273v-546h1092v546h-273v273h-273v273h-273v273h-273v273h-273v546h273v273h546v273h546v273h273v-1365h-273v546h-819v-273h273v-273h273v-273h273v-273h273v-273h273v-819h-273v-273h-546v-273h-819v-273h-273z" />
    <glyph glyph-name="T" unicode="T" 
d="M819 0v273h-273v546h-273v1638h273v273h273v273h-546v-273h-273v546h1911v-546h-819v-273h-273v-1638h273v-273h819v-273h-273v-273h-819z" />
    <glyph glyph-name="U" unicode="U" horiz-adv-x="2457" 
d="M546 0v273h-273v2730h-273v273h1092v-273h-273v-2457h546v2730h819v-273h-273v-2730h273v-273h-819v273h-273v-273h-546z" />
    <glyph glyph-name="V" unicode="V" 
d="M819 0v273h-273v546h-273v1092h-273v1365h546v-1638h273v-1092h273v1092h273v1092h-273v273h-273v273h1092v-273h-273v-273h273v-819h-273v-1092h-273v-546h-273v-273h-273z" />
    <glyph glyph-name="W" unicode="W" 
d="M0 1092v2184h273v-2184h-273zM273 0v1092h273v2184h1365v-273h-273v-273h273v-1638h-273v-819h-273v-273h-273v1092h273v1911h-273v-1911h-273v-819h-273v-273h-273z" />
    <glyph glyph-name="X" unicode="X" horiz-adv-x="2457" 
d="M0 0v546h273v-273h546v-273h-819zM273 546v546h273v-546h-273zM1911 -273v546h-273v546h-273v273h-273v273h-273v-273h-273v546h273v273h-273v819h-273v273h-273v273h1092v-273h-273v-273h273v-273h273v273h273v-546h-273v-546h273v-546h273v-546h273v-819h-273z
M1638 2730v273h-273v273h819v-273h-273v-273h-273z" />
    <glyph glyph-name="Y" unicode="Y" horiz-adv-x="2457" 
d="M1365 1638v819h273v-819h-273zM546 -273v819h273v546h-273v819h-273v819h-273v546h819v-273h-273v-273h273v-819h273v-273h273v-819h-273v-546h-273v-546h-273zM1638 2457v546h-273v273h819v-273h-273v-546h-273z" />
    <glyph glyph-name="Z" unicode="Z" 
d="M0 0v546h273v546h273v546h273v546h273v546h-819v-546h-273v1092h1911v-273h-273v-546h-273v-546h-273v-546h-273v-546h-273v-273h819v-273h546v-273h-1911z" />
    <glyph glyph-name="bracketleft" unicode="[" horiz-adv-x="1365" 
d="M0 0v3549h1092v-273h-546v-3003h546v-273h-1092z" />
    <glyph glyph-name="backslash" unicode="\" horiz-adv-x="1911" 
d="M1365 0v546h-273v546h-273v546h-273v546h-273v546h-273v819h273v-546h273v-546h273v-546h273v-546h273v-546h273v-819h-273z" />
    <glyph glyph-name="bracketright" unicode="]" horiz-adv-x="1365" 
d="M0 0v273h546v3003h-546v273h1092v-3549h-1092z" />
    <glyph glyph-name="asciicircum" unicode="^" 
d="M0 2184v546h273v273h273v273h273v273h273v-273h273v-273h273v-273h273v-546h-273v273h-273v273h-273v273h-273v-273h-273v-273h-273v-273h-273z" />
    <glyph glyph-name="underscore" unicode="_" 
d="M0 -273v273h1911v-273h-1911z" />
    <glyph glyph-name="grave" unicode="`" horiz-adv-x="1638" 
d="M546 3003v273h-546v273h819v-273h546v-273h-819z" />
    <glyph glyph-name="a" unicode="a" 
d="M1092 546v1365h-546v-1365h546zM273 0v273h-273v1911h273v273h819v-273h273v-273h273v-1638h273v-273h-819v273h-273v-273h-546z" />
    <glyph glyph-name="b" unicode="b" 
d="M546 0v273h-273v2730h-273v273h546v273h273v-3276h546v1638h-273v273h273v273h273v-273h273v-1911h-273v-273h-1092z" />
    <glyph glyph-name="c" unicode="c" 
d="M546 0v273h-273v546h-273v1092h273v273h546v273h819v-273h273v-546h-273v-273h-273v546h-819v-1092h273v-273h1092v-273h-546v-273h-819z" />
    <glyph glyph-name="d" unicode="d" 
d="M1365 546v1365h-819v-1092h273v-273h546zM546 0v273h-273v546h-273v1365h273v273h819v-273h273v819h-546v273h1092v-3276h-546v273h-273v-273h-546z" />
    <glyph glyph-name="e" unicode="e" 
d="M1365 1638v273h-819v-273h819zM546 0v273h-273v546h-273v1092h273v273h546v273h819v-273h273v-819h-1365v-546h273v-273h819v-273h-546v-273h-546z" />
    <glyph glyph-name="f" unicode="f" 
d="M273 -273v1911h-273v273h273v819h273v273h546v273h546v273h273v-1365h-273v546h-819v-819h819v-273h-819v-1365h-273v-546h-273z" />
    <glyph glyph-name="g" unicode="g" 
d="M1092 1092v1092h-546v-819h273v-273h273zM273 -546v273h-273v546h273v273h273v-819h819v819h-546v273h-546v546h-273v819h273v273h1092v273h273v-1365h-273v-546h273v-273h273v-819h-273v-273h-1365z" />
    <glyph glyph-name="h" unicode="h" 
d="M1365 -273v2184h-546v-1638h273v-273h-819v3003h-273v273h819v-1092h273v273h546v-273h273v-1911h-273v-546h-273z" />
    <glyph glyph-name="i" unicode="i" horiz-adv-x="1365" 
d="M273 0v2184h-273v273h819v-2184h273v-273h-819zM273 2730v273h-273v273h273v273h273v-273h273v-273h-273v-273h-273z" />
    <glyph glyph-name="j" unicode="j" horiz-adv-x="1365" 
d="M0 -546v273h273v273h273v2184h-273v273h819v-2457h-273v-273h-273v-273h-546zM546 2730v273h-273v273h273v273h273v-273h273v-273h-273v-273h-273z" />
    <glyph glyph-name="k" unicode="k" 
d="M1638 0v546h273v-546h-273zM1365 1638v273h273v-273h-273zM1638 1911v273h-546v273h819v-546h-273zM273 0v3003h-273v273h819v-1638h546v-546h273v-546h-273v273h-273v273h-273v-819h273v-273h-819z" />
    <glyph glyph-name="l" unicode="l" horiz-adv-x="1365" 
d="M273 0v3003h-273v273h819v-3003h273v-273h-819z" />
    <glyph glyph-name="m" unicode="m" 
d="M1365 -273v1638h-273v-819h-273v819h-273v-1092h273v-273h-819v1365h273v819h-273v273h546v-273h273v-546h273v546h273v273h546v-273h-273v-819h273v-1092h-273v-546h-273z" />
    <glyph glyph-name="n" unicode="n" 
d="M1365 -273v2184h-546v-1638h273v-273h-819v2184h-273v273h819v-273h273v273h546v-273h273v-1911h-273v-546h-273z" />
    <glyph glyph-name="o" unicode="o" 
d="M1365 546v1092h-273v273h-546v-1092h273v-273h546zM546 0v273h-273v546h-273v1092h273v273h546v273h546v-273h273v-546h273v-1092h-273v-273h-546v-273h-546z" />
    <glyph glyph-name="p" unicode="p" 
d="M1092 546v273h273v1092h-546v-1365h273zM273 -546v819h-273v273h273v1638h-273v273h819v-273h273v273h546v-273h273v-1365h-273v-273h-273v-273h-546v-546h-273v-273h-273z" />
    <glyph glyph-name="q" unicode="q" 
d="M1092 -546v273h-546v273h-273v546h-273v1365h273v273h546v273h546v-273h273v-273h273v-1365h-273v-273h-273v1365h-273v273h-546v-1365h273v-273h546v-273h546v-273h-273v-273h-546z" />
    <glyph glyph-name="r" unicode="r" 
d="M273 0v2184h-273v273h819v-273h273v273h819v-819h-273v273h-819v-1638h273v-273h-819z" />
    <glyph glyph-name="s" unicode="s" horiz-adv-x="1911" 
d="M273 0v273h-273v819h273v-546h819v546h-546v273h-273v273h-273v546h273v273h819v273h273v-819h-273v273h-546v-546h546v-273h273v-273h273v-546h-273v-273h-273v-273h-819z" />
    <glyph glyph-name="t" unicode="t" horiz-adv-x="1911" 
d="M819 0v273h-273v1638h-546v273h273v273h273v273h273v546h273v-1092h546v-273h-546v-1365h546v-273h-273v-273h-546z" />
    <glyph glyph-name="u" unicode="u" 
d="M546 0v273h-273v1911h-273v273h819v-1911h546v1911h546v-2184h-273v-273h-273v273h-273v-273h-546z" />
    <glyph glyph-name="v" unicode="v" 
d="M819 0v546h-273v819h-273v819h-273v273h819v-819h273v-819h273v273h273v-546h-273v-546h-546zM1638 1092v1092h-546v273h819v-1365h-273z" />
    <glyph glyph-name="w" unicode="w" 
d="M273 0v546h-273v1911h273v-1638h273v1638h546v-1638h273v1638h546v-1638h-273v-546h-273v-273h-273v546h-273v-273h-273v-273h-273z" />
    <glyph glyph-name="x" unicode="x" 
d="M0 0v546h273v273h273v-546h273v-273h-819zM1365 1638v273h273v-273h-273zM1365 0v546h-273v273h-546v273h273v273h-273v273h-273v273h-273v546h1092v-273h-273v-273h273v-273h273v-546h273v-546h273v-273h-273v-273h-273zM1638 1911v273h-273v273h546v-546h-273z" />
    <glyph glyph-name="y" unicode="y" 
d="M273 -546v273h273v273h273v546h-273v819h-273v819h-273v273h819v-819h273v-819h273v273h273v-546h-273v-546h-273v-273h-273v-273h-546zM1638 1092v1092h-546v273h819v-1365h-273z" />
    <glyph glyph-name="z" unicode="z" 
d="M0 0v546h273v273h273v-273h819v-273h546v-273h-1911zM546 819v273h273v-273h-273zM819 1092v273h273v-273h-273zM1092 1365v546h-819v-273h-273v819h1638v-546h-273v-546h-273z" />
    <glyph glyph-name="braceleft" unicode="{" horiz-adv-x="1638" 
d="M819 0v273h-273v273h-273v819h-273v819h273v819h273v273h273v273h546v-273h-273v-273h-273v-819h-273v-819h273v-819h273v-273h273v-273h-546z" />
    <glyph glyph-name="bar" unicode="|" horiz-adv-x="819" 
d="M0 0v3549h546v-3549h-546z" />
    <glyph glyph-name="braceright" unicode="}" horiz-adv-x="1638" 
d="M0 0v273h273v273h273v819h273v819h-273v819h-273v273h-273v273h546v-273h273v-273h273v-819h273v-819h-273v-819h-273v-273h-273v-273h-546z" />
    <glyph glyph-name="asciitilde" unicode="~" horiz-adv-x="1911" 
d="M0 1365v273h273v273h546v-273h-273v-273h-546zM819 1365v273h273v273h546v-273h-273v-273h-546z" />
    <glyph glyph-name="uni007F" horiz-adv-x="4369" 
d="M3549 546v2457h-3003v-2457h3003zM0 0v3549h4096v-3549h-4096z" />
    <glyph glyph-name="uni00A0" unicode="&#xa0;" horiz-adv-x="1638" 
 />
    <glyph glyph-name="exclamdown" unicode="&#xa1;" horiz-adv-x="1092" 
d="M0 0v2184h273v273h273v-1092h273v-819h-273v-273h-273v-273h-273zM273 2730v273h-273v273h273v273h273v-273h273v-273h-273v-273h-273z" />
    <glyph glyph-name="cent" unicode="&#xa2;" 
d="M1092 546v1365h-273v-273h-273v-819h273v-273h273zM1092 -273v273h-546v273h-273v273h-273v1365h273v273h273v273h546v273h273v-273h273v-273h273v-273h-546v-1365h546v-273h-273v-273h-273v-273h-273z" />
    <glyph glyph-name="yen" unicode="&#xa5;" horiz-adv-x="2457" 
d="M819 0v546h-546v273h546v273h-546v273h546v273h-273v273h-273v546h-273v819h546v-819h273v-546h546v546h273v819h546v-819h-273v-546h-273v-273h-273v-273h546v-273h-546v-273h546v-273h-546v-546h-546z" />
    <glyph glyph-name="brokenbar" unicode="&#xa6;" horiz-adv-x="819" 
d="M0 0v1365h546v-1365h-546zM0 2184v1365h546v-1365h-546z" />
    <glyph glyph-name="dieresis" unicode="&#xa8;" 
d="M273 2730v273h-273v273h273v273h273v-273h273v-273h-273v-273h-273zM1365 2730v273h-273v273h273v273h273v-273h273v-273h-273v-273h-273z" />
    <glyph glyph-name="copyright" unicode="&#xa9;" horiz-adv-x="3822" 
d="M1092 819v273h-273v1365h273v273h1092v-273h-819v-1092h273v-273h546v273h546v-273h-273v-273h-1365zM2457 546v273h273v273h273v1365h-273v-546h-273v273h-273v273h273v546h-1365v-273h-273v-273h-273v-1365h273v-273h273v-273h1365zM1092 0v273h-546v273h-273v546h-273
v1365h273v546h273v273h546v273h1365v-273h546v-273h273v-546h273v-1365h-273v-546h-273v-273h-546v-273h-1365z" />
    <glyph glyph-name="guillemotleft" unicode="&#xab;" horiz-adv-x="2730" 
d="M819 546v273h-273v273h-273v273h-273v273h273v273h273v273h273v273h546v-273h-273v-273h-273v-273h-273v-273h273v-273h273v-273h273v-273h-546zM1911 546v273h-273v273h-273v273h-273v273h273v273h273v273h273v273h546v-273h-273v-273h-273v-273h-273v-273h273v-273h273
v-273h273v-273h-546z" />
    <glyph glyph-name="uni00AD" unicode="&#xad;" horiz-adv-x="1911" 
d="M0 1365v273h273v273h1365v-273h-273v-273h-1365z" />
    <glyph glyph-name="registered" unicode="&#xae;" horiz-adv-x="3822" 
d="M2457 546v273h-273v273h-273v273h-273v-546h-546v1638h-546v-1365h273v-273h273v-273h1365zM3003 1092v1365h-273v273h-273v273h-1365v-273h546v-273h273v-273h-273v-546h546v819h-273v273h546v-273h273v-819h-273v-546h546zM1092 0v273h-546v273h-273v546h-273v1365h273
v546h273v273h546v273h1365v-273h546v-273h273v-546h273v-1365h-273v-546h-273v-273h-546v-273h-1365z" />
    <glyph glyph-name="macron" unicode="&#xaf;" horiz-adv-x="1638" 
d="M0 3003v273h1365v-273h-1365z" />
    <glyph glyph-name="degree" unicode="&#xb0;" horiz-adv-x="1365" 
d="M273 2457v273h546v-273h-546zM0 2730v546h273v-546h-273zM819 2730v546h273v-546h-273zM273 3276v273h546v-273h-546z" />
    <glyph glyph-name="plusminus" unicode="&#xb1;" horiz-adv-x="2457" 
d="M0 273v273h273v273h546v546h-819v273h273v273h546v546h273v273h273v-819h819v-273h-273v-273h-546v-546h819v-273h-273v-273h-1911z" />
    <glyph glyph-name="twosuperior" unicode="&#xb2;" 
d="M0 1638v273h273v273h273v273h273v273h273v546h-546v-273h-273v-273h-273v546h273v273h1092v-273h273v-546h-273v-273h-273v-273h-273v-273h819v273h273v-546h-1911z" />
    <glyph glyph-name="threesuperior" unicode="&#xb3;" 
d="M273 1638v273h-273v273h273v273h273v-546h819v273h-273v273h-546v273h273v273h273v273h-546v-273h-273v546h1638v-273h-273v-273h-273v-273h273v-273h273v-546h-273v-273h-1365z" />
    <glyph glyph-name="acute" unicode="&#xb4;" horiz-adv-x="1638" 
d="M0 3003v273h546v273h819v-273h-546v-273h-819z" />
    <glyph glyph-name="mu" unicode="&#xb5;" 
d="M273 -546v2730h-273v273h819v-1638h546v1638h546v-1911h-273v-273h-273v273h-273v-273h-273v-546h-273v-273h-273z" />
    <glyph glyph-name="periodcentered" unicode="&#xb7;" horiz-adv-x="1092" 
d="M273 1365v273h-273v273h273v273h273v-273h273v-273h-273v-273h-273z" />
    <glyph glyph-name="cedilla" unicode="&#xb8;" horiz-adv-x="1365" 
d="M0 -546v273h546v273h546v-273h-273v-273h-819z" />
    <glyph glyph-name="onesuperior" unicode="&#xb9;" horiz-adv-x="1365" 
d="M0 1638v273h546v819h-546v273h546v273h273v273h273v-1911h-1092z" />
    <glyph glyph-name="guillemotright" unicode="&#xbb;" horiz-adv-x="2730" 
d="M0 546v273h273v273h273v273h273v273h-273v273h-273v273h-273v273h546v-273h273v-273h273v-273h273v-273h-273v-273h-273v-273h-273v-273h-546zM1092 546v273h273v273h273v273h273v273h-273v273h-273v273h-273v273h546v-273h273v-273h273v-273h273v-273h-273v-273h-273
v-273h-273v-273h-546z" />
    <glyph glyph-name="questiondown" unicode="&#xbf;" horiz-adv-x="1911" 
d="M1365 273v273h273v-273h-273zM273 0v273h-273v1365h273v273h273v273h273v273h273v-546h-273v-273h-273v-1092h273v-273h546v-273h-1092zM819 2730v273h-273v273h273v273h273v-273h273v-273h-273v-273h-273z" />
    <glyph glyph-name="Agrave" unicode="&#xc0;" 
d="M1365 1092v546h-273v819h-273v-819h-273v-546h819zM0 -273v1638h273v819h273v273h-546v273h1911v-273h-546v-273h273v-819h273v-1365h-1092v273h546v546h-819v-273h-273v-819h-273zM819 3003v273h-546v273h819v-273h546v-273h-819z" />
    <glyph glyph-name="Aacute" unicode="&#xc1;" 
d="M1365 1092v546h-273v819h-273v-819h-273v-546h819zM0 -273v1638h273v819h273v273h-546v273h1911v-273h-546v-273h273v-819h273v-1365h-1092v273h546v546h-819v-273h-273v-819h-273zM273 3003v273h546v273h819v-273h-546v-273h-819z" />
    <glyph glyph-name="Acircumflex" unicode="&#xc2;" 
d="M1365 1092v546h-273v819h-273v-819h-273v-546h819zM0 -273v1638h273v819h273v273h-546v273h1911v-273h-546v-273h273v-819h273v-1365h-1092v273h546v546h-819v-273h-273v-819h-273zM273 3003v273h273v273h819v-273h273v-273h-546v273h-273v-273h-546z" />
    <glyph glyph-name="Atilde" unicode="&#xc3;" 
d="M1365 1092v546h-273v819h-273v-819h-273v-546h819zM0 -273v1638h273v819h273v273h-546v273h1911v-273h-546v-273h273v-819h273v-1365h-1092v273h546v546h-819v-273h-273v-819h-273zM273 3003v273h273v273h546v-273h-273v-273h-546zM1092 3003v273h273v273h546v-273h-273
v-273h-546z" />
    <glyph glyph-name="Adieresis" unicode="&#xc4;" 
d="M1365 1092v546h-273v819h-273v-819h-273v-546h819zM0 -273v1638h273v819h273v273h-546v273h1911v-273h-546v-273h273v-819h273v-1365h-1092v273h546v546h-819v-273h-273v-819h-273zM273 3003v273h-273v273h273v273h273v-273h273v-273h-273v-273h-273zM1365 3003v273h-273
v273h273v273h273v-273h273v-273h-273v-273h-273z" />
    <glyph glyph-name="Aring" unicode="&#xc5;" 
d="M1365 1092v546h-273v819h-273v-819h-273v-546h819zM0 -273v1638h273v819h273v273h-546v273h1911v-273h-546v-273h273v-819h273v-1365h-1092v273h546v546h-819v-273h-273v-819h-273zM819 3003v273h273v-273h-273zM546 3276v273h273v-273h-273zM1092 3276v273h273v-273
h-273zM819 3549v273h273v-273h-273z" />
    <glyph glyph-name="AE" unicode="&#xc6;" horiz-adv-x="3003" 
d="M2457 546v1092h-819v-819h273v-273h546zM2457 1911v819h-819v-819h819zM1092 1092v1911h-273v-1092h-273v-819h546zM0 -273v1911h273v1092h273v273h-546v273h2457v273h273v-3822h-273v546h-273v-273h-1365v273h273v546h-546v-273h-273v-819h-273z" />
    <glyph glyph-name="Ccedilla" unicode="&#xc7;" 
d="M273 -546v273h546v273h-273v273h-273v546h-273v1911h273v273h546v273h819v273h273v-1365h-273v546h-1092v-1911h273v-273h1092v-273h-546v-546h-273v-273h-819z" />
    <glyph glyph-name="Egrave" unicode="&#xc8;" 
d="M1638 546v819h-1092v-546h273v-273h819zM1638 1638v546h-1092v-546h1092zM1638 -273v546h-273v-273h-819v273h-273v546h-273v1365h273v273h546v273h819v273h273v-3276h-273zM819 3003v273h-546v273h819v-273h546v-273h-819z" />
    <glyph glyph-name="Eacute" unicode="&#xc9;" 
d="M1638 546v819h-1092v-546h273v-273h819zM1638 1638v546h-1092v-546h1092zM1638 -273v546h-273v-273h-819v273h-273v546h-273v1365h273v273h546v273h819v273h273v-3276h-273zM273 3003v273h546v273h819v-273h-546v-273h-819z" />
    <glyph glyph-name="Ecircumflex" unicode="&#xca;" 
d="M1638 546v819h-1092v-546h273v-273h819zM1638 1638v546h-1092v-546h1092zM1638 -273v546h-273v-273h-819v273h-273v546h-273v1365h273v273h546v273h819v273h273v-3276h-273zM273 3003v273h273v273h819v-273h273v-273h-546v273h-273v-273h-546z" />
    <glyph glyph-name="Edieresis" unicode="&#xcb;" 
d="M1638 546v819h-1092v-546h273v-273h819zM1638 1638v546h-1092v-546h1092zM1638 -273v546h-273v-273h-819v273h-273v546h-273v1365h273v273h546v273h819v273h273v-3276h-273zM273 3003v273h-273v273h273v273h273v-273h273v-273h-273v-273h-273zM1365 3003v273h-273v273
h273v273h273v-273h273v-273h-273v-273h-273z" />
    <glyph glyph-name="Igrave" unicode="&#xcc;" horiz-adv-x="1911" 
d="M0 0v273h546v2184h-546v273h1638v-273h-546v-2184h546v-273h-1638zM546 3003v273h-546v273h819v-273h546v-273h-819z" />
    <glyph glyph-name="Iacute" unicode="&#xcd;" horiz-adv-x="1911" 
d="M0 0v273h546v2184h-546v273h1638v-273h-546v-2184h546v-273h-1638zM273 3003v273h546v273h819v-273h-546v-273h-819z" />
    <glyph glyph-name="Icircumflex" unicode="&#xce;" horiz-adv-x="1911" 
d="M0 0v273h546v2184h-546v273h1638v-273h-546v-2184h546v-273h-1638zM0 3003v273h273v273h1092v-273h273v-273h-546v273h-546v-273h-546z" />
    <glyph glyph-name="Idieresis" unicode="&#xcf;" horiz-adv-x="1911" 
d="M0 0v273h546v2184h-546v273h1638v-273h-546v-2184h546v-273h-1638zM273 3003v273h-273v273h273v273h273v-273h546v273h273v-273h273v-273h-273v-273h-273v273h-546v-273h-273z" />
    <glyph glyph-name="Eth" unicode="&#xd0;" 
d="M546 0v273h-273v1365h-273v273h273v1092h-273v273h819v-273h273v273h546v-273h273v-2457h-273v-273h-273v2457h-546v-819h273v-273h-273v-1365h546v-273h-819z" />
    <glyph glyph-name="Ntilde" unicode="&#xd1;" 
d="M273 0v2457h-273v273h819v-546h273v-546h273v-546h273v1365h-546v273h819v-2730h-546v546h-273v546h-273v546h-273v-1365h546v-273h-819zM273 3003v273h273v273h546v-273h-273v-273h-546zM1092 3003v273h273v273h546v-273h-273v-273h-546z" />
    <glyph glyph-name="Ograve" unicode="&#xd2;" 
d="M1365 546v1365h-273v273h-546v-1365h273v-273h546zM546 0v273h-273v546h-273v1365h273v273h546v273h546v-273h273v-546h273v-1365h-273v-273h-546v-273h-546zM819 3003v273h-546v273h819v-273h546v-273h-819z" />
    <glyph glyph-name="Oacute" unicode="&#xd3;" 
d="M1365 546v1365h-273v273h-546v-1365h273v-273h546zM546 0v273h-273v546h-273v1365h273v273h546v273h546v-273h273v-546h273v-1365h-273v-273h-546v-273h-546zM273 3003v273h546v273h819v-273h-546v-273h-819z" />
    <glyph glyph-name="Ocircumflex" unicode="&#xd4;" 
d="M1365 546v1365h-273v273h-546v-1365h273v-273h546zM546 0v273h-273v546h-273v1365h273v273h546v273h546v-273h273v-546h273v-1365h-273v-273h-546v-273h-546zM273 3003v273h273v273h819v-273h273v-273h-546v273h-273v-273h-546z" />
    <glyph glyph-name="Otilde" unicode="&#xd5;" 
d="M1365 546v1365h-273v273h-546v-1365h273v-273h546zM546 0v273h-273v546h-273v1365h273v273h546v273h546v-273h273v-546h273v-1365h-273v-273h-546v-273h-546zM273 3003v273h273v273h546v-273h-273v-273h-546zM1092 3003v273h273v273h546v-273h-273v-273h-546z" />
    <glyph glyph-name="Odieresis" unicode="&#xd6;" 
d="M1365 546v1365h-273v273h-546v-1365h273v-273h546zM546 0v273h-273v546h-273v1365h273v273h546v273h546v-273h273v-546h273v-1365h-273v-273h-546v-273h-546zM273 3003v273h-273v273h273v273h273v-273h273v-273h-273v-273h-273zM1365 3003v273h-273v273h273v273h273v-273
h273v-273h-273v-273h-273z" />
    <glyph glyph-name="Ugrave" unicode="&#xd9;" horiz-adv-x="2457" 
d="M546 0v273h-273v2184h-273v273h1092v-273h-273v-1911h546v2184h819v-273h-273v-2184h273v-273h-819v273h-273v-273h-546zM819 3003v273h-546v273h819v-273h546v-273h-819z" />
    <glyph glyph-name="Uacute" unicode="&#xda;" horiz-adv-x="2457" 
d="M546 0v273h-273v2184h-273v273h1092v-273h-273v-1911h546v2184h819v-273h-273v-2184h273v-273h-819v273h-273v-273h-546zM546 3003v273h546v273h819v-273h-546v-273h-819z" />
    <glyph glyph-name="Ucircumflex" unicode="&#xdb;" horiz-adv-x="2457" 
d="M546 0v273h-273v2184h-273v273h1092v-273h-273v-1911h546v2184h819v-273h-273v-2184h273v-273h-819v273h-273v-273h-546zM273 3003v273h273v273h1092v-273h273v-273h-546v273h-546v-273h-546z" />
    <glyph glyph-name="Udieresis" unicode="&#xdc;" horiz-adv-x="2457" 
d="M546 0v273h-273v2184h-273v273h1092v-273h-273v-1911h546v2184h819v-273h-273v-2184h273v-273h-819v273h-273v-273h-546zM273 3003v273h-273v273h273v273h273v-273h273v-273h-273v-273h-273zM1638 3003v273h-273v273h273v273h273v-273h273v-273h-273v-273h-273z" />
    <glyph glyph-name="Yacute" unicode="&#xdd;" horiz-adv-x="2457" 
d="M1365 1365v546h273v-546h-273zM546 -273v819h273v546h-273v546h-273v546h-273v546h819v-273h-273v-273h273v-546h273v-273h273v-546h-273v-546h-273v-546h-273zM1638 1911v546h-273v273h819v-273h-273v-546h-273zM546 3003v273h546v273h819v-273h-546v-273h-819z" />
    <glyph glyph-name="Thorn" unicode="&#xde;" 
d="M1092 1092v273h273v819h-546v-1092h273zM273 0v819h-273v273h273v1911h-273v273h819v-819h273v273h546v-273h273v-1092h-273v-273h-273v-273h-546v-546h273v-273h-819z" />
    <glyph glyph-name="germandbls" unicode="&#xdf;" 
d="M273 -273v3276h-273v273h546v-273h273v273h819v-273h273v-1092h-273v-273h273v-1365h-273v-273h-546v273h273v1365h-273v273h273v819h-546v-2730h-273v-273h-273z" />
    <glyph glyph-name="agrave" unicode="&#xe0;" 
d="M1092 546v1365h-546v-1365h546zM273 0v273h-273v1911h273v273h819v-273h273v-273h273v-1638h273v-273h-819v273h-273v-273h-546zM546 2730v273h-546v273h819v-273h546v-273h-819z" />
    <glyph glyph-name="aacute" unicode="&#xe1;" 
d="M1092 546v1365h-546v-1365h546zM273 0v273h-273v1911h273v273h819v-273h273v-273h273v-1638h273v-273h-819v273h-273v-273h-546zM273 2730v273h546v273h819v-273h-546v-273h-819z" />
    <glyph glyph-name="acircumflex" unicode="&#xe2;" 
d="M1092 546v1365h-546v-1365h546zM273 0v273h-273v1911h273v273h819v-273h273v-273h273v-1638h273v-273h-819v273h-273v-273h-546zM0 2730v273h273v273h819v-273h273v-273h-546v273h-273v-273h-546z" />
    <glyph glyph-name="atilde" unicode="&#xe3;" 
d="M1092 546v1365h-546v-1365h546zM273 0v273h-273v1911h273v273h819v-273h273v-273h273v-1638h273v-273h-819v273h-273v-273h-546zM0 2730v273h273v273h546v-273h-273v-273h-546zM819 2730v273h273v273h546v-273h-273v-273h-546z" />
    <glyph glyph-name="adieresis" unicode="&#xe4;" 
d="M1092 546v1365h-546v-1365h546zM273 0v273h-273v1911h273v273h819v-273h273v-273h273v-1638h273v-273h-819v273h-273v-273h-546zM273 2730v273h-273v273h273v273h273v-273h546v273h273v-273h273v-273h-273v-273h-273v273h-546v-273h-273z" />
    <glyph glyph-name="aring" unicode="&#xe5;" 
d="M1092 546v1365h-546v-1365h546zM273 0v273h-273v1911h273v273h819v-273h273v-273h273v-1638h273v-273h-819v273h-273v-273h-546zM546 2730v273h273v-273h-273zM273 3003v273h273v-273h-273zM819 3003v273h273v-273h-273zM546 3276v273h273v-273h-273z" />
    <glyph glyph-name="ae" unicode="&#xe6;" horiz-adv-x="3003" 
d="M1092 546v1365h-546v-1365h546zM2184 1638v273h-546v-273h546zM273 0v273h-273v1911h273v273h819v-273h546v273h819v-273h273v-819h-1092v-546h273v-273h819v-273h-546v-273h-1092v273h-273v-273h-546z" />
    <glyph glyph-name="ccedilla" unicode="&#xe7;" 
d="M273 -546v273h546v273h-273v273h-273v546h-273v1092h273v273h546v273h819v-273h273v-546h-273v-273h-273v546h-819v-1092h273v-273h1092v-273h-546v-546h-273v-273h-819z" />
    <glyph glyph-name="egrave" unicode="&#xe8;" 
d="M1365 1638v273h-819v-273h819zM546 0v273h-273v546h-273v1092h273v273h546v273h819v-273h273v-819h-1365v-546h273v-273h819v-273h-546v-273h-546zM819 2730v273h-546v273h819v-273h546v-273h-819z" />
    <glyph glyph-name="eacute" unicode="&#xe9;" 
d="M1365 1638v273h-819v-273h819zM546 0v273h-273v546h-273v1092h273v273h546v273h819v-273h273v-819h-1365v-546h273v-273h819v-273h-546v-273h-546zM273 2730v273h546v273h819v-273h-546v-273h-819z" />
    <glyph glyph-name="ecircumflex" unicode="&#xea;" 
d="M1365 1638v273h-819v-273h819zM546 0v273h-273v546h-273v1092h273v273h546v273h819v-273h273v-819h-1365v-546h273v-273h819v-273h-546v-273h-546zM273 2730v273h273v273h819v-273h273v-273h-546v273h-273v-273h-546z" />
    <glyph glyph-name="edieresis" unicode="&#xeb;" 
d="M1365 1638v273h-819v-273h819zM546 0v273h-273v546h-273v1092h273v273h546v273h819v-273h273v-819h-1365v-546h273v-273h819v-273h-546v-273h-546zM273 2730v273h-273v273h273v273h273v-273h273v-273h-273v-273h-273zM1365 2730v273h-273v273h273v273h273v-273h273v-273
h-273v-273h-273z" />
    <glyph glyph-name="igrave" unicode="&#xec;" horiz-adv-x="1638" 
d="M546 0v2184h-273v273h819v-2184h273v-273h-819zM546 2730v273h-546v273h819v-273h546v-273h-819z" />
    <glyph glyph-name="iacute" unicode="&#xed;" horiz-adv-x="1638" 
d="M546 0v2184h-273v273h819v-2184h273v-273h-819zM0 2730v273h546v273h819v-273h-546v-273h-819z" />
    <glyph glyph-name="icircumflex" unicode="&#xee;" horiz-adv-x="1638" 
d="M546 0v2184h-273v273h819v-2184h273v-273h-819zM0 2730v273h273v273h819v-273h273v-273h-546v273h-273v-273h-546z" />
    <glyph glyph-name="idieresis" unicode="&#xef;" horiz-adv-x="1911" 
d="M546 0v2184h-273v273h819v-2184h273v-273h-819zM273 2730v273h-273v273h273v273h273v-273h546v273h273v-273h273v-273h-273v-273h-273v273h-546v-273h-273z" />
    <glyph glyph-name="eth" unicode="&#xf0;" 
d="M1365 546v1365h-819v-1092h273v-273h546zM546 0v273h-273v546h-273v1365h273v273h819v-273h273v546h-273v273h-273v-273h-546v273h273v273h-273v273h819v-273h273v273h546v-273h-273v-273h273v-3003h-546v273h-273v-273h-546z" />
    <glyph glyph-name="ntilde" unicode="&#xf1;" 
d="M1365 -273v2184h-546v-1638h273v-273h-819v2184h-273v273h819v-273h273v273h546v-273h273v-1911h-273v-546h-273zM273 2730v273h273v273h546v-273h-273v-273h-546zM1092 2730v273h273v273h546v-273h-273v-273h-546z" />
    <glyph glyph-name="ograve" unicode="&#xf2;" 
d="M1365 546v1092h-273v273h-546v-1092h273v-273h546zM546 0v273h-273v546h-273v1092h273v273h546v273h546v-273h273v-546h273v-1092h-273v-273h-546v-273h-546zM819 2730v273h-546v273h819v-273h546v-273h-819z" />
    <glyph glyph-name="oacute" unicode="&#xf3;" 
d="M1365 546v1092h-273v273h-546v-1092h273v-273h546zM546 0v273h-273v546h-273v1092h273v273h546v273h546v-273h273v-546h273v-1092h-273v-273h-546v-273h-546zM273 2730v273h546v273h819v-273h-546v-273h-819z" />
    <glyph glyph-name="ocircumflex" unicode="&#xf4;" 
d="M1365 546v1092h-273v273h-546v-1092h273v-273h546zM546 0v273h-273v546h-273v1092h273v273h546v273h546v-273h273v-546h273v-1092h-273v-273h-546v-273h-546zM273 2730v273h273v273h819v-273h273v-273h-546v273h-273v-273h-546z" />
    <glyph glyph-name="otilde" unicode="&#xf5;" 
d="M1365 546v1092h-273v273h-546v-1092h273v-273h546zM546 0v273h-273v546h-273v1092h273v273h546v273h546v-273h273v-546h273v-1092h-273v-273h-546v-273h-546zM273 2730v273h273v273h546v-273h-273v-273h-546zM1092 2730v273h273v273h546v-273h-273v-273h-546z" />
    <glyph glyph-name="odieresis" unicode="&#xf6;" 
d="M1365 546v1092h-273v273h-546v-1092h273v-273h546zM546 0v273h-273v546h-273v1092h273v273h546v273h546v-273h273v-546h273v-1092h-273v-273h-546v-273h-546zM273 2730v273h-273v273h273v273h273v-273h273v-273h-273v-273h-273zM1365 2730v273h-273v273h273v273h273v-273
h273v-273h-273v-273h-273z" />
    <glyph glyph-name="divide" unicode="&#xf7;" 
d="M819 273v273h-273v273h273v273h273v-273h273v-273h-273v-273h-273zM0 1365v273h273v273h1638v-273h-273v-273h-1638zM819 2184v273h-273v273h273v273h273v-273h273v-273h-273v-273h-273z" />
    <glyph glyph-name="ugrave" unicode="&#xf9;" 
d="M546 0v273h-273v1911h-273v273h819v-1911h546v1911h546v-2184h-273v-273h-273v273h-273v-273h-546zM819 2730v273h-546v273h819v-273h546v-273h-819z" />
    <glyph glyph-name="uacute" unicode="&#xfa;" 
d="M546 0v273h-273v1911h-273v273h819v-1911h546v1911h546v-2184h-273v-273h-273v273h-273v-273h-546zM273 2730v273h546v273h819v-273h-546v-273h-819z" />
    <glyph glyph-name="ucircumflex" unicode="&#xfb;" 
d="M546 0v273h-273v1911h-273v273h819v-1911h546v1911h546v-2184h-273v-273h-273v273h-273v-273h-546zM273 2730v273h273v273h819v-273h273v-273h-546v273h-273v-273h-546z" />
    <glyph glyph-name="udieresis" unicode="&#xfc;" 
d="M546 0v273h-273v1911h-273v273h819v-1911h546v1911h546v-2184h-273v-273h-273v273h-273v-273h-546zM273 2730v273h-273v273h273v273h273v-273h273v-273h-273v-273h-273zM1365 2730v273h-273v273h273v273h273v-273h273v-273h-273v-273h-273z" />
    <glyph glyph-name="yacute" unicode="&#xfd;" 
d="M273 -546v273h273v273h273v546h-273v819h-273v819h-273v273h819v-819h273v-819h273v273h273v-546h-273v-546h-273v-273h-273v-273h-546zM1638 1092v1092h-546v273h819v-1365h-273zM273 2730v273h546v273h819v-273h-546v-273h-819z" />
    <glyph glyph-name="thorn" unicode="&#xfe;" 
d="M1092 819v273h273v819h-546v-1092h273zM273 -546v1092h-273v273h273v2184h-273v273h819v-1092h273v273h546v-273h273v-1092h-273v-273h-273v-273h-546v-819h-273v-273h-273z" />
    <glyph glyph-name="ydieresis" unicode="&#xff;" 
d="M273 -546v273h273v273h273v546h-273v819h-273v819h-273v273h819v-819h273v-819h273v273h273v-546h-273v-546h-273v-273h-273v-273h-546zM1638 1092v1092h-546v273h819v-1365h-273zM273 2730v273h-273v273h273v273h273v-273h273v-273h-273v-273h-273zM1365 2730v273h-273
v273h273v273h273v-273h273v-273h-273v-273h-273z" />
    <glyph glyph-name="Amacron" unicode="&#x100;" 
d="M1365 1092v546h-273v819h-273v-819h-273v-546h819zM0 -273v1638h273v819h273v273h-546v273h1911v-273h-546v-273h273v-819h273v-1365h-1092v273h546v546h-819v-273h-273v-819h-273zM273 3003v273h1365v-273h-1365z" />
    <glyph glyph-name="amacron" unicode="&#x101;" 
d="M1092 546v1365h-546v-1365h546zM273 0v273h-273v1911h273v273h819v-273h273v-273h273v-1638h273v-273h-819v273h-273v-273h-546zM0 2730v273h1365v-273h-1365z" />
    <glyph glyph-name="Cacute" unicode="&#x106;" 
d="M546 0v273h-273v546h-273v1365h273v273h546v273h819v273h273v-1365h-273v546h-1092v-1365h273v-273h1092v-273h-546v-273h-819zM273 3003v273h546v273h819v-273h-546v-273h-819z" />
    <glyph glyph-name="cacute" unicode="&#x107;" 
d="M546 0v273h-273v546h-273v1092h273v273h546v273h819v-273h273v-546h-273v-273h-273v546h-819v-1092h273v-273h1092v-273h-546v-273h-819zM273 2730v273h546v273h819v-273h-546v-273h-819z" />
    <glyph glyph-name="Ccircumflex" unicode="&#x108;" 
d="M546 0v273h-273v546h-273v1365h273v273h546v273h819v273h273v-1365h-273v546h-1092v-1365h273v-273h1092v-273h-546v-273h-819zM273 3003v273h273v273h819v-273h273v-273h-546v273h-273v-273h-546z" />
    <glyph glyph-name="ccircumflex" unicode="&#x109;" 
d="M546 0v273h-273v546h-273v1092h273v273h546v273h819v-273h273v-546h-273v-273h-273v546h-819v-1092h273v-273h1092v-273h-546v-273h-819zM273 2730v273h273v273h819v-273h273v-273h-546v273h-273v-273h-546z" />
    <glyph glyph-name="Cdotaccent" unicode="&#x10a;" 
d="M546 0v273h-273v546h-273v1365h273v273h546v273h819v273h273v-1365h-273v546h-1092v-1365h273v-273h1092v-273h-546v-273h-819zM819 3003v546h546v-546h-546z" />
    <glyph glyph-name="cdotaccent" unicode="&#x10b;" 
d="M546 0v273h-273v546h-273v1092h273v273h546v273h819v-273h273v-546h-273v-273h-273v546h-819v-1092h273v-273h1092v-273h-546v-273h-819zM819 2730v546h546v-546h-546z" />
    <glyph glyph-name="Ccaron" unicode="&#x10c;" 
d="M546 0v273h-273v546h-273v1365h273v273h546v273h819v273h273v-1365h-273v546h-1092v-1365h273v-273h1092v-273h-546v-273h-819zM546 3003v273h-273v273h546v-273h273v273h546v-273h-273v-273h-819z" />
    <glyph glyph-name="ccaron" unicode="&#x10d;" 
d="M546 0v273h-273v546h-273v1092h273v273h546v273h819v-273h273v-546h-273v-273h-273v546h-819v-1092h273v-273h1092v-273h-546v-273h-819zM546 2730v273h-273v273h546v-273h273v273h546v-273h-273v-273h-819z" />
    <glyph glyph-name="Dcaron" unicode="&#x10e;" 
d="M546 0v273h-273v2184h-273v273h819v-273h273v273h546v-273h273v-1911h-273v-273h-273v1911h-546v-1911h546v-273h-819zM546 3003v273h-273v273h546v-273h273v273h546v-273h-273v-273h-819z" />
    <glyph glyph-name="dcaron" unicode="&#x10f;" horiz-adv-x="3276" 
d="M1365 546v1365h-819v-1092h273v-273h546zM2184 2184v273h273v-273h-273zM546 0v273h-273v546h-273v1365h273v273h819v-273h273v819h-546v273h1092v-3276h-546v273h-273v-273h-546zM2457 2457v546h-273v273h273v273h273v-273h273v-546h-273v-273h-273z" />
    <glyph glyph-name="Dcroat" unicode="&#x110;" 
d="M546 0v273h-273v1365h-273v273h273v1092h-273v273h819v-273h273v273h546v-273h273v-2457h-273v-273h-273v2457h-546v-819h273v-273h-273v-1365h546v-273h-819z" />
    <glyph glyph-name="dcroat" unicode="&#x111;" horiz-adv-x="2457" 
d="M1365 546v1092h-819v-819h273v-273h546zM546 0v273h-273v546h-273v1092h273v273h819v-273h273v546h-546v273h546v273h-546v273h1092v-546h273v-273h-273v-2457h-546v273h-273v-273h-546z" />
    <glyph glyph-name="Emacron" unicode="&#x112;" 
d="M1638 546v819h-1092v-546h273v-273h819zM1638 1638v546h-1092v-546h1092zM1638 -273v546h-273v-273h-819v273h-273v546h-273v1365h273v273h546v273h819v273h273v-3276h-273zM273 3003v273h1365v-273h-1365z" />
    <glyph glyph-name="emacron" unicode="&#x113;" 
d="M1365 1638v273h-819v-273h819zM546 0v273h-273v546h-273v1092h273v273h546v273h819v-273h273v-819h-1365v-546h273v-273h819v-273h-546v-273h-546zM273 2730v273h1365v-273h-1365z" />
    <glyph glyph-name="Edotaccent" unicode="&#x116;" 
d="M1638 546v819h-1092v-546h273v-273h819zM1638 1638v546h-1092v-546h1092zM1638 -273v546h-273v-273h-819v273h-273v546h-273v1365h273v273h546v273h819v273h273v-3276h-273zM819 3003v546h546v-546h-546z" />
    <glyph glyph-name="edotaccent" unicode="&#x117;" 
d="M1365 1638v273h-819v-273h819zM546 0v273h-273v546h-273v1092h273v273h546v273h819v-273h273v-819h-1365v-546h273v-273h819v-273h-546v-273h-546zM819 2730v546h546v-546h-546z" />
    <glyph glyph-name="Ecaron" unicode="&#x11a;" 
d="M1638 546v819h-1092v-546h273v-273h819zM1638 1638v546h-1092v-546h1092zM1638 -273v546h-273v-273h-819v273h-273v546h-273v1365h273v273h546v273h819v273h273v-3276h-273zM546 3003v273h-273v273h546v-273h273v273h546v-273h-273v-273h-819z" />
    <glyph glyph-name="ecaron" unicode="&#x11b;" 
d="M1365 1638v273h-819v-273h819zM546 0v273h-273v546h-273v1092h273v273h546v273h819v-273h273v-819h-1365v-546h273v-273h819v-273h-546v-273h-546zM546 2730v273h-273v273h546v-273h273v273h546v-273h-273v-273h-819z" />
    <glyph glyph-name="Gcircumflex" unicode="&#x11c;" 
d="M1365 -273v546h-273v-273h-546v273h-273v546h-273v1365h273v273h546v273h819v273h273v-1365h-273v546h-1092v-1365h273v-273h546v546h-546v273h1092v-1365h-273v-273h-273zM273 3003v273h273v273h819v-273h273v-273h-546v273h-273v-273h-546z" />
    <glyph glyph-name="gcircumflex" unicode="&#x11d;" 
d="M1092 1092v1092h-546v-819h273v-273h273zM273 -546v273h-273v546h273v273h273v-819h819v819h-546v273h-546v546h-273v819h273v273h1092v273h273v-1365h-273v-546h273v-273h273v-819h-273v-273h-1365zM0 2730v273h273v273h819v-273h273v-273h-546v273h-273v-273h-546z" />
    <glyph glyph-name="Gdotaccent" unicode="&#x120;" 
d="M1365 -273v546h-273v-273h-546v273h-273v546h-273v1365h273v273h546v273h819v273h273v-1365h-273v546h-1092v-1365h273v-273h546v546h-546v273h1092v-1365h-273v-273h-273zM819 3003v546h546v-546h-546z" />
    <glyph glyph-name="gdotaccent" unicode="&#x121;" 
d="M1092 1092v1092h-546v-819h273v-273h273zM273 -546v273h-273v546h273v273h273v-819h819v819h-546v273h-546v546h-273v819h273v273h1092v273h273v-1365h-273v-546h273v-273h273v-819h-273v-273h-1365zM546 2730v546h546v-546h-546z" />
    <glyph glyph-name="Hcircumflex" unicode="&#x124;" horiz-adv-x="2457" 
d="M0 0v273h273v1092h-273v273h273v819h-273v273h819v-1092h546v819h-273v273h1092v-273h-273v-819h273v-273h-273v-1092h273v-273h-1092v273h273v1092h-546v-1365h-819zM273 3003v273h273v273h819v-273h273v-273h-546v273h-273v-273h-546z" />
    <glyph glyph-name="hcircumflex" unicode="&#x125;" horiz-adv-x="2457" 
d="M1638 -273v1911h-546v-1365h273v-273h-819v2457h-273v273h819v-819h273v273h546v-273h273v-1638h-273v-546h-273zM0 3003v273h273v273h819v-273h273v-273h-546v273h-273v-273h-546z" />
    <glyph glyph-name="Hbar" unicode="&#x126;" horiz-adv-x="2457" 
d="M1365 1911v546h-546v-546h546zM0 0v273h273v1365h-273v273h273v546h-273v273h273v273h-273v273h819v-546h546v273h-273v273h1092v-273h-273v-273h273v-273h-273v-546h273v-273h-273v-1365h273v-273h-1092v273h273v1365h-546v-1638h-819z" />
    <glyph glyph-name="hbar" unicode="&#x127;" 
d="M1365 -273v1911h-546v-1365h273v-273h-819v2457h-273v273h273v273h-273v273h819v-546h546v-273h-546v-546h273v273h546v-273h273v-1638h-273v-546h-273z" />
    <glyph glyph-name="Itilde" unicode="&#x128;" horiz-adv-x="1911" 
d="M0 0v273h546v2184h-546v273h1638v-273h-546v-2184h546v-273h-1638zM819 3003v273h546v-273h-546zM0 3003v273h273v273h546v-273h-273v-273h-546zM1365 3276v273h273v-273h-273z" />
    <glyph glyph-name="itilde" unicode="&#x129;" horiz-adv-x="1638" 
d="M546 0v2184h-273v273h819v-2184h273v-273h-819z" />
    <glyph glyph-name="Imacron" unicode="&#x12a;" horiz-adv-x="1911" 
d="M0 0v273h546v2184h-546v273h1638v-273h-546v-2184h546v-273h-1638zM273 3003v273h1092v-273h-1092z" />
    <glyph glyph-name="imacron" unicode="&#x12b;" horiz-adv-x="1638" 
d="M546 0v2184h-273v273h819v-2184h273v-273h-819z" />
    <glyph glyph-name="Idotaccent" unicode="&#x130;" horiz-adv-x="1911" 
d="M0 0v273h546v2184h-546v273h1638v-273h-546v-2184h546v-273h-1638zM546 3003v546h546v-546h-546z" />
    <glyph glyph-name="dotlessi" unicode="&#x131;" horiz-adv-x="1365" 
d="M273 0v2184h-273v273h819v-2184h273v-273h-819z" />
    <glyph glyph-name="Jcircumflex" unicode="&#x134;" 
d="M0 -546v273h546v273h273v2457h-546v273h1638v-273h-546v-2457h-273v-273h-273v-273h-819zM273 3003v273h273v273h819v-273h273v-273h-546v273h-273v-273h-546z" />
    <glyph glyph-name="jcircumflex" unicode="&#x135;" horiz-adv-x="1638" 
d="M0 -546v273h273v273h273v2184h-273v273h819v-2457h-273v-273h-273v-273h-546zM0 2730v273h273v273h819v-273h273v-273h-546v273h-273v-273h-546z" />
    <glyph glyph-name="Lacute" unicode="&#x139;" 
d="M273 0v2457h-273v273h1365v-273h-546v-2184h819v546h273v-819h-1638zM0 3003v273h546v273h819v-273h-546v-273h-819z" />
    <glyph glyph-name="lacute" unicode="&#x13a;" horiz-adv-x="1638" 
d="M546 0v2457h-273v273h819v-2457h273v-273h-819zM0 3003v273h546v273h819v-273h-546v-273h-819z" />
    <glyph glyph-name="Lcaron" unicode="&#x13d;" horiz-adv-x="2730" 
d="M1638 2184v273h273v-273h-273zM273 0v3003h-273v273h1365v-273h-546v-2730h819v546h273v-819h-1638zM1911 2457v546h-273v273h273v273h273v-273h273v-546h-273v-273h-273z" />
    <glyph glyph-name="lcaron" unicode="&#x13e;" 
d="M1092 2184v273h273v-273h-273zM273 0v3003h-273v273h819v-3003h273v-273h-819zM1365 2457v546h-273v273h273v273h273v-273h273v-546h-273v-273h-273z" />
    <glyph glyph-name="Ldot" unicode="&#x13f;" 
d="M1092 1365v546h546v-546h-546zM273 0v3003h-273v273h1365v-273h-546v-2730h819v546h273v-819h-1638z" />
    <glyph glyph-name="ldot" unicode="&#x140;" horiz-adv-x="1911" 
d="M1092 1365v546h546v-546h-546zM273 0v3003h-273v273h819v-3003h273v-273h-819z" />
    <glyph glyph-name="Lslash" unicode="&#x141;" horiz-adv-x="2457" 
d="M546 0v1092h-546v273h273v273h273v1365h-273v273h1365v-273h-546v-819h546v-273h-273v-273h-273v-1365h819v546h273v-819h-1638z" />
    <glyph glyph-name="lslash" unicode="&#x142;" horiz-adv-x="1911" 
d="M546 0v1092h-546v273h273v273h273v1365h-273v273h819v-1092h546v-273h-273v-273h-273v-1365h273v-273h-819z" />
    <glyph glyph-name="Nacute" unicode="&#x143;" 
d="M273 0v2457h-273v273h819v-546h273v-546h273v-546h273v1365h-546v273h819v-2730h-546v546h-273v546h-273v546h-273v-1365h546v-273h-819zM273 3003v273h546v273h819v-273h-546v-273h-819z" />
    <glyph glyph-name="nacute" unicode="&#x144;" 
d="M1365 -273v2184h-546v-1638h273v-273h-819v2184h-273v273h819v-273h273v273h546v-273h273v-1911h-273v-546h-273zM273 2730v273h546v273h819v-273h-546v-273h-819z" />
    <glyph glyph-name="Ncaron" unicode="&#x147;" 
d="M273 0v2457h-273v273h819v-546h273v-546h273v-546h273v1365h-546v273h819v-2730h-546v546h-273v546h-273v546h-273v-1365h546v-273h-819zM546 3003v273h-273v273h546v-273h273v273h546v-273h-273v-273h-819z" />
    <glyph glyph-name="ncaron" unicode="&#x148;" 
d="M1365 -273v2184h-546v-1638h273v-273h-819v2184h-273v273h819v-273h273v273h546v-273h273v-1911h-273v-546h-273zM546 2730v273h-273v273h546v-273h273v273h546v-273h-273v-273h-819z" />
    <glyph glyph-name="Omacron" unicode="&#x14c;" 
d="M1365 546v1365h-273v273h-546v-1365h273v-273h546zM546 0v273h-273v546h-273v1365h273v273h546v273h546v-273h273v-546h273v-1365h-273v-273h-546v-273h-546zM273 3003v273h1365v-273h-1365z" />
    <glyph glyph-name="omacron" unicode="&#x14d;" 
d="M1365 546v1092h-273v273h-546v-1092h273v-273h546zM546 0v273h-273v546h-273v1092h273v273h546v273h546v-273h273v-546h273v-1092h-273v-273h-546v-273h-546zM273 2730v273h1365v-273h-1365z" />
    <glyph glyph-name="OE" unicode="&#x152;" horiz-adv-x="3003" 
d="M2457 546v1092h-819v-819h273v-273h546zM1092 546v2184h-546v-1911h273v-273h273zM2457 1911v819h-819v-819h819zM2457 -273v546h-273v-273h-1638v273h-273v546h-273v1911h273v273h546v273h1638v273h273v-3822h-273z" />
    <glyph glyph-name="oe" unicode="&#x153;" horiz-adv-x="3003" 
d="M1365 546v1092h-273v273h-546v-1092h273v-273h546zM2184 1638v273h-546v-273h546zM546 0v273h-273v546h-273v1092h273v273h546v273h546v-273h273v273h819v-273h273v-819h-1092v-546h273v-273h819v-273h-546v-273h-546v273h-546v-273h-546z" />
    <glyph glyph-name="Racute" unicode="&#x154;" horiz-adv-x="2457" 
d="M1092 1365v273h273v546h-546v-819h273zM1911 -273v273h-273v273h-273v546h-273v273h-273v-819h273v-273h-819v2457h-273v273h819v-273h273v273h546v-273h273v-819h-273v-273h-273v-273h273v-546h273v-273h273v-546h-273zM273 3003v273h546v273h819v-273h-546v-273h-819z
" />
    <glyph glyph-name="racute" unicode="&#x155;" 
d="M273 0v2184h-273v273h819v-273h273v273h819v-819h-273v273h-819v-1638h273v-273h-819zM273 2730v273h546v273h819v-273h-546v-273h-819z" />
    <glyph glyph-name="Rcaron" unicode="&#x158;" horiz-adv-x="2457" 
d="M1092 1365v273h273v546h-546v-819h273zM1911 -273v273h-273v273h-273v546h-273v273h-273v-819h273v-273h-819v2457h-273v273h819v-273h273v273h546v-273h273v-819h-273v-273h-273v-273h273v-546h273v-273h273v-546h-273zM546 3003v273h-273v273h546v-273h273v273h546
v-273h-273v-273h-819z" />
    <glyph glyph-name="rcaron" unicode="&#x159;" 
d="M273 0v2184h-273v273h819v-273h273v273h819v-819h-273v273h-819v-1638h273v-273h-819zM546 2730v273h-273v273h546v-273h273v273h546v-273h-273v-273h-819z" />
    <glyph glyph-name="Sacute" unicode="&#x15a;" 
d="M0 -273v1365h273v-546h1092v273h-273v273h-546v273h-273v273h-273v546h273v273h546v273h546v273h273v-1365h-273v546h-819v-273h273v-273h273v-273h546v-273h273v-546h-273v-273h-546v-273h-819v-273h-273zM273 3003v273h546v273h819v-273h-546v-273h-819z" />
    <glyph glyph-name="sacute" unicode="&#x15b;" horiz-adv-x="1911" 
d="M273 0v273h-273v819h273v-546h819v546h-546v273h-273v273h-273v546h273v273h819v273h273v-819h-273v273h-546v-546h546v-273h273v-273h273v-546h-273v-273h-273v-273h-819zM0 2730v273h546v273h819v-273h-546v-273h-819z" />
    <glyph glyph-name="Scircumflex" unicode="&#x15c;" 
d="M0 -273v1365h273v-546h1092v273h-273v273h-546v273h-273v273h-273v546h273v273h546v273h546v273h-273v273h-273v-273h-546v273h273v273h819v-273h273v-1638h-273v546h-819v-273h273v-273h273v-273h546v-273h273v-546h-273v-273h-546v-273h-819v-273h-273z" />
    <glyph glyph-name="scircumflex" unicode="&#x15d;" horiz-adv-x="1911" 
d="M273 0v273h-273v819h273v-546h819v546h-546v273h-273v273h-273v546h273v273h819v273h-273v273h-273v-273h-546v273h273v273h819v-273h273v-1092h-273v273h-546v-546h546v-273h273v-273h273v-546h-273v-273h-273v-273h-819z" />
    <glyph glyph-name="Scaron" unicode="&#x160;" 
d="M0 -273v1365h273v-546h1092v273h-273v273h-546v273h-273v273h-273v546h273v273h546v273h546v273h273v-1365h-273v546h-819v-273h273v-273h273v-273h546v-273h273v-546h-273v-273h-546v-273h-819v-273h-273zM546 3003v273h-273v273h546v-273h273v273h546v-273h-273v-273
h-819z" />
    <glyph glyph-name="scaron" unicode="&#x161;" horiz-adv-x="1911" 
d="M273 0v273h-273v819h273v-546h819v546h-546v273h-273v273h-273v546h273v273h819v273h273v-819h-273v273h-546v-546h546v-273h273v-273h273v-546h-273v-273h-273v-273h-819zM273 2730v273h-273v273h546v-273h273v273h546v-273h-273v-273h-819z" />
    <glyph glyph-name="Tcaron" unicode="&#x164;" 
d="M819 0v273h-273v546h-273v1092h273v273h273v273h-546v-273h-273v546h1911v-546h-819v-273h-273v-1092h273v-273h819v-273h-273v-273h-819zM546 3003v273h-273v273h546v-273h273v273h546v-273h-273v-273h-819z" />
    <glyph glyph-name="tcaron" unicode="&#x165;" horiz-adv-x="3003" 
d="M1911 2184v273h273v-273h-273zM819 0v273h-273v1638h-546v273h273v273h273v273h273v546h273v-1092h546v-273h-546v-1365h546v-273h-273v-273h-546zM2184 2457v546h-273v273h273v273h273v-273h273v-546h-273v-273h-273z" />
    <glyph glyph-name="Tbar" unicode="&#x166;" 
d="M819 0v273h-273v546h-273v819h-273v273h273v546h273v273h273v273h-546v-273h-273v546h1911v-546h-819v-273h-273v-546h546v-273h-546v-819h273v-273h819v-273h-273v-273h-819z" />
    <glyph glyph-name="tbar" unicode="&#x167;" horiz-adv-x="1911" 
d="M819 0v273h-273v1092h-546v273h546v273h-546v273h273v273h273v273h273v546h273v-1092h546v-273h-546v-273h546v-273h-546v-819h546v-273h-273v-273h-546z" />
    <glyph glyph-name="Utilde" unicode="&#x168;" horiz-adv-x="2457" 
d="M546 0v273h-273v2184h-273v273h1092v-273h-273v-1911h546v2184h819v-273h-273v-2184h273v-273h-819v273h-273v-273h-546zM273 3003v273h273v273h546v-273h-273v-273h-546zM1092 3003v273h273v273h546v-273h-273v-273h-546z" />
    <glyph glyph-name="utilde" unicode="&#x169;" 
d="M546 0v273h-273v1911h-273v273h819v-1911h546v1911h546v-2184h-273v-273h-273v273h-273v-273h-546zM273 3003v273h273v273h546v-273h-273v-273h-546zM1092 3003v273h273v273h546v-273h-273v-273h-546z" />
    <glyph glyph-name="Umacron" unicode="&#x16a;" horiz-adv-x="2457" 
d="M546 0v273h-273v2184h-273v273h1092v-273h-273v-1911h546v2184h819v-273h-273v-2184h273v-273h-819v273h-273v-273h-546zM273 3003v273h1365v-273h-1365z" />
    <glyph glyph-name="umacron" unicode="&#x16b;" 
d="M546 0v273h-273v1911h-273v273h819v-1911h546v1911h546v-2184h-273v-273h-273v273h-273v-273h-546zM273 2730v273h1365v-273h-1365z" />
    <glyph glyph-name="Uring" unicode="&#x16e;" horiz-adv-x="2457" 
d="M546 0v273h-273v2184h-273v273h1092v-273h-273v-1911h546v2184h819v-273h-273v-2184h273v-273h-819v273h-273v-273h-546zM1092 3003v273h273v-273h-273zM819 3276v273h273v-273h-273zM1365 3276v273h273v-273h-273zM1092 3549v273h273v-273h-273z" />
    <glyph glyph-name="uring" unicode="&#x16f;" 
d="M546 0v273h-273v1911h-273v273h819v-1911h546v1911h546v-2184h-273v-273h-273v273h-273v-273h-546zM819 2730v273h273v-273h-273zM546 3003v273h273v-273h-273zM1092 3003v273h273v-273h-273zM819 3276v273h273v-273h-273z" />
    <glyph glyph-name="Wcircumflex" unicode="&#x174;" 
d="M0 1092v1638h273v-1638h-273zM273 0v1092h273v1638h1365v-273h-273v-273h273v-1092h-273v-819h-273v-273h-273v1092h273v1365h-273v-1365h-273v-819h-273v-273h-273zM273 3003v273h273v273h819v-273h273v-273h-546v273h-273v-273h-546z" />
    <glyph glyph-name="wcircumflex" unicode="&#x175;" 
d="M273 0v546h-273v1911h273v-1638h273v1638h546v-1638h273v1638h546v-1638h-273v-546h-273v-273h-273v546h-273v-273h-273v-273h-273zM273 2730v273h273v273h819v-273h273v-273h-546v273h-273v-273h-546z" />
    <glyph glyph-name="Ycircumflex" unicode="&#x176;" horiz-adv-x="2457" 
d="M1365 1365v546h273v-546h-273zM546 -273v819h273v546h-273v546h-273v546h-273v546h819v-273h-273v-273h273v-546h273v-273h273v-546h-273v-546h-273v-546h-273zM1638 1911v546h-273v273h819v-273h-273v-546h-273zM273 3003v273h273v273h819v-273h273v-273h-546v273h-273
v-273h-546z" />
    <glyph glyph-name="ycircumflex" unicode="&#x177;" 
d="M273 -546v273h273v273h273v546h-273v819h-273v819h-273v273h819v-819h273v-819h273v273h273v-546h-273v-546h-273v-273h-273v-273h-546zM1638 1092v1092h-546v273h819v-1365h-273zM273 2730v273h273v273h819v-273h273v-273h-546v273h-273v-273h-546z" />
    <glyph glyph-name="Ydieresis" unicode="&#x178;" horiz-adv-x="2457" 
d="M1365 1365v546h273v-546h-273zM546 -273v819h273v546h-273v546h-273v546h-273v546h819v-273h-273v-273h273v-546h273v-273h273v-546h-273v-546h-273v-546h-273zM1638 1911v546h-273v273h819v-273h-273v-546h-273zM273 3003v273h-273v273h273v273h273v-273h273v-273h-273
v-273h-273zM1638 3003v273h-273v273h273v273h273v-273h273v-273h-273v-273h-273z" />
    <glyph glyph-name="Zacute" unicode="&#x179;" 
d="M0 0v546h273v546h273v273h273v273h273v546h-819v-546h-273v1092h1911v-273h-273v-546h-273v-546h-273v-273h-273v-273h-273v-273h819v-273h546v-273h-1911zM273 3003v273h546v273h819v-273h-546v-273h-819z" />
    <glyph glyph-name="zacute" unicode="&#x17a;" 
d="M0 0v546h273v273h273v-273h819v-273h546v-273h-1911zM546 819v273h273v-273h-273zM819 1092v273h273v-273h-273zM1092 1365v546h-819v-273h-273v819h1638v-546h-273v-546h-273zM273 2730v273h546v273h819v-273h-546v-273h-819z" />
    <glyph glyph-name="Zdotaccent" unicode="&#x17b;" 
d="M0 0v546h273v546h273v273h273v273h273v546h-819v-546h-273v1092h1911v-273h-273v-546h-273v-546h-273v-273h-273v-273h-273v-273h819v-273h546v-273h-1911zM546 3003v546h546v-546h-546z" />
    <glyph glyph-name="zdotaccent" unicode="&#x17c;" 
d="M0 0v546h273v273h273v-273h819v-273h546v-273h-1911zM546 819v273h273v-273h-273zM819 1092v273h273v-273h-273zM1092 1365v546h-819v-273h-273v819h1638v-546h-273v-546h-273zM546 2730v546h546v-546h-546z" />
    <glyph glyph-name="Zcaron" unicode="&#x17d;" 
d="M0 0v546h273v546h273v273h273v273h273v546h-819v-546h-273v1092h1911v-273h-273v-546h-273v-546h-273v-273h-273v-273h-273v-273h819v-273h546v-273h-1911zM546 3003v273h-273v273h546v-273h273v273h546v-273h-273v-273h-819z" />
    <glyph glyph-name="zcaron" unicode="&#x17e;" 
d="M0 0v546h273v273h273v-273h819v-273h546v-273h-1911zM546 819v273h273v-273h-273zM819 1092v273h273v-273h-273zM1092 1365v546h-819v-273h-273v819h1638v-546h-273v-546h-273zM546 2730v273h-273v273h546v-273h273v273h546v-273h-273v-273h-819z" />
    <glyph glyph-name="longs" unicode="&#x17f;" 
d="M273 -273v1911h-273v273h273v819h273v273h546v273h546v273h273v-1365h-273v546h-819v-2457h-273v-546h-273z" />
    <glyph glyph-name="uni01CD" unicode="&#x1cd;" 
d="M1365 1092v546h-273v819h-273v-819h-273v-546h819zM0 -273v1638h273v819h273v273h-546v273h1911v-273h-546v-273h273v-819h273v-1365h-1092v273h546v546h-819v-273h-273v-819h-273zM546 3003v273h-273v273h546v-273h273v273h546v-273h-273v-273h-819z" />
    <glyph glyph-name="uni01CE" unicode="&#x1ce;" 
d="M1092 546v1365h-546v-1365h546zM273 0v273h-273v1911h273v273h819v-273h273v-273h273v-1638h273v-273h-819v273h-273v-273h-546zM273 2730v273h-273v273h546v-273h273v273h546v-273h-273v-273h-819z" />
    <glyph glyph-name="uni01CF" unicode="&#x1cf;" horiz-adv-x="1911" 
d="M0 0v273h546v2184h-546v273h1638v-273h-546v-2184h546v-273h-1638zM273 3003v273h-273v273h546v-273h546v273h546v-273h-273v-273h-1092z" />
    <glyph glyph-name="uni01D0" unicode="&#x1d0;" horiz-adv-x="1638" 
d="M546 0v2184h-273v273h819v-2184h273v-273h-819zM273 2730v273h-273v273h546v-273h273v273h546v-273h-273v-273h-819z" />
    <glyph glyph-name="uni01D1" unicode="&#x1d1;" 
d="M1365 546v1365h-273v273h-546v-1365h273v-273h546zM546 0v273h-273v546h-273v1365h273v273h546v273h546v-273h273v-546h273v-1365h-273v-273h-546v-273h-546zM546 3003v273h-273v273h546v-273h273v273h546v-273h-273v-273h-819z" />
    <glyph glyph-name="uni01D2" unicode="&#x1d2;" 
d="M1365 546v1092h-273v273h-546v-1092h273v-273h546zM546 0v273h-273v546h-273v1092h273v273h546v273h546v-273h273v-546h273v-1092h-273v-273h-546v-273h-546zM546 2730v273h-273v273h546v-273h273v273h546v-273h-273v-273h-819z" />
    <glyph glyph-name="uni01D3" unicode="&#x1d3;" horiz-adv-x="2457" 
d="M546 0v273h-273v2184h-273v273h1092v-273h-273v-1911h546v2184h819v-273h-273v-2184h273v-273h-819v273h-273v-273h-546zM546 3003v273h-273v273h546v-273h546v273h546v-273h-273v-273h-1092z" />
    <glyph glyph-name="uni01D4" unicode="&#x1d4;" 
d="M546 0v273h-273v1911h-273v273h819v-1911h546v1911h546v-2184h-273v-273h-273v273h-273v-273h-546zM546 2730v273h-273v273h546v-273h273v273h546v-273h-273v-273h-819z" />
    <glyph glyph-name="uni01DD" unicode="&#x1dd;" 
d="M1365 546v273h-819v-273h819zM273 0v273h-273v819h1365v546h-273v273h-819v273h546v273h546v-273h273v-546h273v-1092h-273v-273h-546v-273h-819z" />
    <glyph glyph-name="uni01E2" unicode="&#x1e2;" horiz-adv-x="3003" 
d="M2457 546v819h-819v-546h273v-273h546zM2457 1638v546h-819v-546h819zM1092 1092v1365h-273v-819h-273v-546h546zM0 -273v1638h273v819h273v273h-546v273h2457v273h273v-3276h-273v546h-273v-273h-1365v273h273v546h-546v-273h-273v-819h-273zM546 3003v273h1365v-273
h-1365z" />
    <glyph glyph-name="uni01E3" unicode="&#x1e3;" horiz-adv-x="3003" 
d="M1092 546v1365h-546v-1365h546zM2184 1638v273h-546v-273h546zM273 0v273h-273v1911h273v273h819v-273h546v273h819v-273h273v-819h-1092v-546h273v-273h819v-273h-546v-273h-1092v273h-273v-273h-546zM546 2730v273h1365v-273h-1365z" />
    <glyph glyph-name="Gcaron" unicode="&#x1e6;" 
d="M1365 -273v546h-273v-273h-546v273h-273v546h-273v1365h273v273h546v273h819v273h273v-1365h-273v546h-1092v-1365h273v-273h546v546h-546v273h1092v-1365h-273v-273h-273zM546 3003v273h-273v273h546v-273h273v273h546v-273h-273v-273h-819z" />
    <glyph glyph-name="gcaron" unicode="&#x1e7;" 
d="M1092 1092v1092h-546v-819h273v-273h273zM273 -546v273h-273v546h273v273h273v-819h819v819h-546v273h-546v546h-273v819h273v273h1092v273h273v-1365h-273v-546h273v-273h273v-819h-273v-273h-1365zM273 2730v273h-273v273h546v-273h273v273h546v-273h-273v-273h-819z
" />
    <glyph glyph-name="uni01F0" unicode="&#x1f0;" horiz-adv-x="1638" 
d="M0 -546v273h273v273h273v2184h-273v273h819v-2457h-273v-273h-273v-273h-546zM273 2730v273h-273v273h546v-273h273v273h546v-273h-273v-273h-819z" />
    <glyph glyph-name="uni01F4" unicode="&#x1f4;" 
d="M1365 -273v546h-273v-273h-546v273h-273v546h-273v1365h273v273h546v273h819v273h273v-1365h-273v546h-1092v-1365h273v-273h546v546h-546v273h1092v-1365h-273v-273h-273zM273 3003v273h546v273h819v-273h-546v-273h-819z" />
    <glyph glyph-name="uni01F5" unicode="&#x1f5;" 
d="M1092 1092v1092h-546v-819h273v-273h273zM273 -546v273h-273v546h273v273h273v-819h819v819h-546v273h-546v546h-273v819h273v273h1092v273h273v-1365h-273v-546h273v-273h273v-819h-273v-273h-1365zM273 2730v273h546v273h819v-273h-546v-273h-819z" />
    <glyph glyph-name="uni01F8" unicode="&#x1f8;" 
d="M273 0v2457h-273v273h819v-546h273v-546h273v-546h273v1365h-546v273h819v-2730h-546v546h-273v546h-273v546h-273v-1365h546v-273h-819zM819 3003v273h-546v273h819v-273h546v-273h-819z" />
    <glyph glyph-name="uni01F9" unicode="&#x1f9;" 
d="M1365 -273v2184h-546v-1638h273v-273h-819v2184h-273v273h819v-273h273v273h546v-273h273v-1911h-273v-546h-273zM819 2730v273h-546v273h819v-273h546v-273h-819z" />
    <glyph glyph-name="AEacute" unicode="&#x1fc;" horiz-adv-x="3003" 
d="M2457 546v819h-819v-546h273v-273h546zM2457 1638v546h-819v-546h819zM1092 1092v1365h-273v-819h-273v-546h546zM0 -273v1638h273v819h273v273h-546v273h2457v273h273v-3276h-273v546h-273v-273h-1365v273h273v546h-546v-273h-273v-819h-273zM819 3003v273h546v273h819
v-273h-546v-273h-819z" />
    <glyph glyph-name="aeacute" unicode="&#x1fd;" horiz-adv-x="3003" 
d="M1092 546v1365h-546v-1365h546zM2184 1638v273h-546v-273h546zM273 0v273h-273v1911h273v273h819v-273h546v273h819v-273h273v-819h-1092v-546h273v-273h819v-273h-546v-273h-1092v273h-273v-273h-546zM819 2730v273h546v273h819v-273h-546v-273h-819z" />
    <glyph glyph-name="uni021E" unicode="&#x21e;" horiz-adv-x="2457" 
d="M0 0v273h273v1092h-273v273h273v819h-273v273h819v-1092h546v819h-273v273h1092v-273h-273v-819h273v-273h-273v-1092h273v-273h-1092v273h273v1092h-546v-1365h-819zM546 3003v273h-273v273h546v-273h273v273h546v-273h-273v-273h-819z" />
    <glyph glyph-name="uni021F" unicode="&#x21f;" horiz-adv-x="2457" 
d="M1638 -273v1911h-546v-1365h273v-273h-819v2457h-273v273h819v-819h273v273h546v-273h273v-1638h-273v-546h-273zM273 3003v273h-273v273h546v-273h273v273h546v-273h-273v-273h-819z" />
    <glyph glyph-name="uni0226" unicode="&#x226;" 
d="M1365 1092v546h-273v819h-273v-819h-273v-546h819zM0 -273v1638h273v819h273v273h-546v273h1911v-273h-546v-273h273v-819h273v-1365h-1092v273h546v546h-819v-273h-273v-819h-273zM546 3003v546h546v-546h-546z" />
    <glyph glyph-name="uni0227" unicode="&#x227;" 
d="M1092 546v1365h-546v-1365h546zM273 0v273h-273v1911h273v273h819v-273h273v-273h273v-1638h273v-273h-819v273h-273v-273h-546zM546 2730v546h546v-546h-546z" />
    <glyph glyph-name="uni022E" unicode="&#x22e;" 
d="M1365 546v1365h-273v273h-546v-1365h273v-273h546zM546 0v273h-273v546h-273v1365h273v273h546v273h546v-273h273v-546h273v-1365h-273v-273h-546v-273h-546zM546 3003v546h546v-546h-546z" />
    <glyph glyph-name="uni022F" unicode="&#x22f;" 
d="M1365 546v1092h-273v273h-546v-1092h273v-273h546zM546 0v273h-273v546h-273v1092h273v273h546v273h546v-273h273v-546h273v-1092h-273v-273h-546v-273h-546zM546 2730v546h546v-546h-546z" />
    <glyph glyph-name="uni0232" unicode="&#x232;" horiz-adv-x="2457" 
d="M1365 1365v546h273v-546h-273zM546 -273v819h273v546h-273v546h-273v546h-273v546h819v-273h-273v-273h273v-546h273v-273h273v-546h-273v-546h-273v-546h-273zM1638 1911v546h-273v273h819v-273h-273v-546h-273zM273 3003v273h1365v-273h-1365z" />
    <glyph glyph-name="uni0233" unicode="&#x233;" 
d="M273 -546v273h273v273h273v546h-273v819h-273v819h-273v273h819v-819h273v-819h273v273h273v-546h-273v-546h-273v-273h-273v-273h-546zM1638 1092v1092h-546v273h819v-1365h-273zM273 2730v273h1365v-273h-1365z" />
    <glyph glyph-name="uni0237" unicode="&#x237;" horiz-adv-x="1365" 
d="M0 -546v273h273v273h273v2184h-273v273h819v-2457h-273v-273h-273v-273h-546z" />
    <glyph glyph-name="uni023D" unicode="&#x23d;" 
d="M273 0v1638h-273v273h273v1092h-273v273h1365v-273h-546v-1092h546v-273h-546v-1365h819v546h273v-819h-1638z" />
    <glyph glyph-name="uni0241" unicode="&#x241;" horiz-adv-x="1911" 
d="M0 3003v273h273v-273h-273zM546 0v1638h273v273h273v1092h-273v273h-546v273h1092v-273h273v-1365h-273v-273h-273v-1365h-273v-273h-273z" />
    <glyph glyph-name="uni0242" unicode="&#x242;" horiz-adv-x="1911" 
d="M0 1911v273h273v-273h-273zM546 0v1092h273v273h273v546h-273v273h-546v273h1092v-273h273v-819h-273v-273h-273v-819h-273v-273h-273z" />
    <glyph glyph-name="uni0245" unicode="&#x245;" 
d="M0 0v273h273v273h-273v819h273v1092h273v546h273v273h273v-273h273v-546h273v-1092h273v-1365h-546v1638h-273v1092h-273v-1092h-273v-1092h273v-273h273v-273h-1092z" />
    <glyph glyph-name="uni0248" unicode="&#x248;" 
d="M0 -546v273h546v273h273v1638h-546v273h546v1092h-546v273h1638v-273h-546v-1092h546v-273h-546v-1638h-273v-273h-273v-273h-819z" />
    <glyph glyph-name="uni0249" unicode="&#x249;" horiz-adv-x="1638" 
d="M0 -546v273h273v273h273v1092h-546v273h546v819h-273v273h819v-1092h273v-273h-273v-1092h-273v-273h-273v-273h-546zM546 2730v273h-273v273h273v273h273v-273h273v-273h-273v-273h-273z" />
    <glyph glyph-name="uni024C" unicode="&#x24c;" horiz-adv-x="2457" 
d="M1092 1365v273h273v1092h-546v-1365h273zM1911 -273v273h-273v273h-273v546h-273v273h-273v-819h273v-273h-819v1092h-273v273h273v1638h-273v273h819v-273h273v273h546v-273h273v-1365h-273v-273h-273v-273h273v-546h273v-273h273v-546h-273z" />
    <glyph glyph-name="uni024D" unicode="&#x24d;" 
d="M273 0v1092h-273v273h273v819h-273v273h819v-273h273v273h819v-819h-273v273h-819v-546h546v-273h-546v-819h273v-273h-819z" />
    <glyph glyph-name="tilde" unicode="&#x2dc;" horiz-adv-x="1911" 
d="M0 1365v273h273v273h546v-273h-273v-273h-546zM819 1365v273h273v273h546v-273h-273v-273h-546z" />
    <glyph glyph-name="uni03BC" unicode="&#x3bc;" 
d="M273 -546v2730h-273v273h819v-1638h546v1638h546v-1911h-273v-273h-273v273h-273v-273h-273v-546h-273v-273h-273z" />
    <glyph glyph-name="pi" unicode="&#x3c0;" horiz-adv-x="3003" 
d="M546 -273v2184h-273v273h-273v273h2457v-273h273v-273h-546v-1638h273v-273h-819v1911h-546v-1911h-273v-273h-273z" />
    <glyph glyph-name="uni042F" unicode="&#x42f;" horiz-adv-x="2457" 
d="M1365 1365v1365h-546v-1092h273v-273h273zM0 -273v546h273v273h273v546h273v273h-273v273h-273v1365h273v273h546v-273h273v273h819v-273h-273v-3003h-819v273h273v819h-273v-273h-273v-546h-273v-273h-273v-273h-273z" />
    <glyph glyph-name="uni1E44" unicode="&#x1e44;" 
d="M273 0v2457h-273v273h819v-546h273v-546h273v-546h273v1365h-546v273h819v-2730h-546v546h-273v546h-273v546h-273v-1365h546v-273h-819zM819 3003v546h546v-546h-546z" />
    <glyph glyph-name="uni1E45" unicode="&#x1e45;" 
d="M1365 -273v2184h-546v-1638h273v-273h-819v2184h-273v273h819v-273h273v273h546v-273h273v-1911h-273v-546h-273zM819 2730v546h546v-546h-546z" />
    <glyph glyph-name="uni1E58" unicode="&#x1e58;" horiz-adv-x="2457" 
d="M1092 1365v273h273v546h-546v-819h273zM1911 -273v273h-273v273h-273v546h-273v273h-273v-819h273v-273h-819v2457h-273v273h819v-273h273v273h546v-273h273v-819h-273v-273h-273v-273h273v-546h273v-273h273v-546h-273zM546 3003v546h546v-546h-546z" />
    <glyph glyph-name="uni1E59" unicode="&#x1e59;" 
d="M273 0v2184h-273v273h819v-273h273v273h819v-819h-273v273h-819v-1638h273v-273h-819zM819 3003v546h546v-546h-546z" />
    <glyph glyph-name="uni1E60" unicode="&#x1e60;" 
d="M0 -273v1365h273v-546h1092v273h-273v273h-546v273h-273v273h-273v546h273v273h546v273h546v273h273v-1365h-273v546h-819v-273h273v-273h273v-273h546v-273h273v-546h-273v-273h-546v-273h-819v-273h-273zM546 3003v546h546v-546h-546z" />
    <glyph glyph-name="uni1E61" unicode="&#x1e61;" horiz-adv-x="1911" 
d="M273 0v273h-273v819h273v-546h819v546h-546v273h-273v273h-273v546h273v273h819v273h273v-819h-273v273h-546v-546h546v-273h273v-273h273v-546h-273v-273h-273v-273h-819zM546 2730v546h546v-546h-546z" />
    <glyph glyph-name="uni1E7C" unicode="&#x1e7c;" 
d="M819 0v273h-273v546h-273v819h-273v1092h546v-1365h273v-819h273v819h273v819h-273v273h-273v273h1092v-273h-273v-273h273v-546h-273v-819h-273v-546h-273v-273h-273zM273 3003v273h273v273h546v-273h-273v-273h-546zM1092 3003v273h273v273h546v-273h-273v-273h-546z
" />
    <glyph glyph-name="uni1E7D" unicode="&#x1e7d;" 
d="M819 0v546h-273v819h-273v819h-273v273h819v-819h273v-819h273v273h273v-546h-273v-546h-546zM1638 1092v1092h-546v273h819v-1365h-273zM273 2730v273h273v273h546v-273h-273v-273h-546zM1092 2730v273h273v273h546v-273h-273v-273h-546z" />
    <glyph glyph-name="uni1E8A" unicode="&#x1e8a;" horiz-adv-x="2457" 
d="M0 0v546h273v-273h546v-273h-819zM273 546v546h273v-546h-273zM546 1092v273h273v-273h-273zM1911 -273v546h-273v546h-273v273h-273v273h-273v273h-273v546h-273v273h-273v273h1092v-273h-273v-273h273v-273h273v273h273v-546h-273v-273h273v-273h273v-546h273v-819
h-273zM1638 2184v273h-273v273h819v-273h-273v-273h-273zM819 3003v546h546v-546h-546z" />
    <glyph glyph-name="uni1E8B" unicode="&#x1e8b;" 
d="M0 0v546h273v273h273v-546h273v-273h-819zM1365 1638v273h273v-273h-273zM1365 0v546h-273v273h-546v273h273v273h-273v273h-273v273h-273v546h1092v-273h-273v-273h273v-273h273v-546h273v-546h273v-273h-273v-273h-273zM1638 1911v273h-273v273h546v-546h-273z
M819 2730v546h546v-546h-546z" />
    <glyph glyph-name="uni1E8C" unicode="&#x1e8c;" horiz-adv-x="2457" 
d="M0 0v546h273v-273h546v-273h-819zM273 546v546h273v-546h-273zM546 1092v273h273v-273h-273zM1911 -273v546h-273v546h-273v273h-273v273h-273v273h-273v546h-273v273h-273v273h1092v-273h-273v-273h273v-273h273v273h273v-546h-273v-273h273v-273h273v-546h273v-819
h-273zM1638 2184v273h-273v273h819v-273h-273v-273h-273zM273 3003v273h-273v273h273v273h273v-273h273v-273h-273v-273h-273zM1638 3003v273h-273v273h273v273h273v-273h273v-273h-273v-273h-273z" />
    <glyph glyph-name="uni1E8D" unicode="&#x1e8d;" 
d="M0 0v546h273v273h273v-546h273v-273h-819zM1365 1638v273h273v-273h-273zM1365 0v546h-273v273h-546v273h273v273h-273v273h-273v273h-273v546h1092v-273h-273v-273h273v-273h273v-546h273v-546h273v-273h-273v-273h-273zM1638 1911v273h-273v273h546v-546h-273z
M273 2730v273h-273v273h273v273h273v-273h273v-273h-273v-273h-273zM1365 2730v273h-273v273h273v273h273v-273h273v-273h-273v-273h-273z" />
    <glyph glyph-name="uni1E8E" unicode="&#x1e8e;" horiz-adv-x="2457" 
d="M1365 1365v546h273v-546h-273zM546 -273v819h273v546h-273v546h-273v546h-273v546h819v-273h-273v-273h273v-546h273v-273h273v-546h-273v-546h-273v-546h-273zM1638 1911v546h-273v273h819v-273h-273v-546h-273zM819 3003v546h546v-546h-546z" />
    <glyph glyph-name="uni1E8F" unicode="&#x1e8f;" 
d="M273 -546v273h273v273h273v546h-273v819h-273v819h-273v273h819v-819h273v-819h273v273h273v-546h-273v-546h-273v-273h-273v-273h-546zM1638 1092v1092h-546v273h819v-1365h-273zM546 2730v546h546v-546h-546z" />
    <glyph glyph-name="uni1E90" unicode="&#x1e90;" 
d="M0 0v546h273v546h273v273h273v273h273v546h-819v-546h-273v1092h1911v-273h-273v-546h-273v-546h-273v-273h-273v-273h-273v-273h819v-273h546v-273h-1911zM546 3003v546h546v-546h-546z" />
    <glyph glyph-name="uni1E91" unicode="&#x1e91;" 
d="M0 0v546h273v273h273v-273h819v-273h546v-273h-1911zM546 819v273h273v-273h-273zM819 1092v273h273v-273h-273zM1092 1365v546h-819v-273h-273v819h1638v-546h-273v-546h-273zM546 2730v546h546v-546h-546z" />
    <glyph glyph-name="Ygrave" unicode="&#x1ef2;" horiz-adv-x="2457" 
d="M1365 1365v546h273v-546h-273zM546 -273v819h273v546h-273v546h-273v546h-273v546h819v-273h-273v-273h273v-546h273v-273h273v-546h-273v-546h-273v-546h-273zM1638 1911v546h-273v273h819v-273h-273v-546h-273zM819 3003v273h-546v273h819v-273h546v-273h-819z" />
    <glyph glyph-name="ygrave" unicode="&#x1ef3;" 
d="M273 -546v273h273v273h273v546h-273v819h-273v819h-273v273h819v-819h273v-819h273v273h273v-546h-273v-546h-273v-273h-273v-273h-546zM1638 1092v1092h-546v273h819v-1365h-273zM819 2730v273h-546v273h819v-273h546v-273h-819z" />
    <glyph glyph-name="uni1EF8" unicode="&#x1ef8;" horiz-adv-x="2457" 
d="M1365 1365v546h273v-546h-273zM546 -273v819h273v546h-273v546h-273v546h-273v546h819v-273h-273v-273h273v-546h273v-273h273v-546h-273v-546h-273v-546h-273zM1638 1911v546h-273v273h819v-273h-273v-546h-273zM273 3003v273h273v273h546v-273h-273v-273h-546z
M1092 3003v273h273v273h546v-273h-273v-273h-546z" />
    <glyph glyph-name="uni1EF9" unicode="&#x1ef9;" 
d="M273 -546v273h273v273h273v546h-273v819h-273v819h-273v273h819v-819h273v-819h273v273h273v-546h-273v-546h-273v-273h-273v-273h-546zM1638 1092v1092h-546v273h819v-1365h-273zM273 2730v273h273v273h546v-273h-273v-273h-546zM1092 2730v273h273v273h546v-273h-273
v-273h-546z" />
    <glyph glyph-name="uni2010" unicode="&#x2010;" horiz-adv-x="1911" 
d="M0 1365v273h273v273h1365v-273h-273v-273h-1365z" />
    <glyph glyph-name="uni2011" unicode="&#x2011;" horiz-adv-x="1911" 
d="M0 1365v273h273v273h1365v-273h-273v-273h-1365z" />
    <glyph glyph-name="figuredash" unicode="&#x2012;" 
d="M0 1365v273h273v273h1638v-273h-273v-273h-1638z" />
    <glyph glyph-name="endash" unicode="&#x2013;" 
d="M0 1365v273h273v273h1638v-273h-273v-273h-1638z" />
    <glyph glyph-name="emdash" unicode="&#x2014;" horiz-adv-x="2457" 
d="M0 1365v273h273v273h1911v-273h-273v-273h-1911z" />
    <glyph glyph-name="uni2015" unicode="&#x2015;" horiz-adv-x="2457" 
d="M0 1365v273h273v273h1911v-273h-273v-273h-1911z" />
    <glyph glyph-name="quoteleft" unicode="&#x2018;" horiz-adv-x="1092" 
d="M273 2184v273h-273v546h273v273h273v-546h273v-273h-273v-273h-273zM546 3276v273h273v-273h-273z" />
    <glyph glyph-name="quoteright" unicode="&#x2019;" horiz-adv-x="1092" 
d="M0 2184v273h273v-273h-273zM273 2457v546h-273v273h273v273h273v-273h273v-546h-273v-273h-273z" />
    <glyph glyph-name="quotesinglbase" unicode="&#x201a;" horiz-adv-x="1092" 
d="M0 -273v273h273v-273h-273zM273 0v546h-273v273h273v273h273v-273h273v-546h-273v-273h-273z" />
    <glyph glyph-name="quotereversed" unicode="&#x201b;" horiz-adv-x="1092" 
d="M546 2184v273h273v-273h-273zM273 2457v273h-273v546h273v273h273v-273h273v-273h-273v-546h-273z" />
    <glyph glyph-name="quotedblleft" unicode="&#x201c;" 
d="M273 2184v273h-273v546h273v273h273v-546h273v-273h-273v-273h-273zM1365 2184v273h-273v546h273v273h273v-546h273v-273h-273v-273h-273zM546 3276v273h273v-273h-273zM1638 3276v273h273v-273h-273z" />
    <glyph glyph-name="quotedblright" unicode="&#x201d;" 
d="M0 2184v273h273v-273h-273zM1092 2184v273h273v-273h-273zM273 2457v546h-273v273h273v273h273v-273h273v-546h-273v-273h-273zM1365 2457v546h-273v273h273v273h273v-273h273v-546h-273v-273h-273z" />
    <glyph glyph-name="quotedblbase" unicode="&#x201e;" 
d="M0 -273v273h273v-273h-273zM1092 -273v273h273v-273h-273zM273 0v546h-273v273h273v273h273v-273h273v-546h-273v-273h-273zM1365 0v546h-273v273h273v273h273v-273h273v-546h-273v-273h-273z" />
    <glyph glyph-name="uni201F" unicode="&#x201f;" 
d="M546 2184v273h273v-273h-273zM1638 2184v273h273v-273h-273zM273 2457v273h-273v546h273v273h273v-273h273v-273h-273v-546h-273zM1365 2457v273h-273v546h273v273h273v-273h273v-273h-273v-546h-273z" />
    <glyph glyph-name="dagger" unicode="&#x2020;" horiz-adv-x="1911" 
d="M546 -273v2457h-546v273h546v1092h546v-1092h546v-273h-546v-2184h-273v-273h-273z" />
    <glyph glyph-name="daggerdbl" unicode="&#x2021;" horiz-adv-x="1911" 
d="M546 -273v1365h-546v273h546v819h-546v273h546v1092h546v-1092h546v-273h-546v-819h546v-273h-546v-1092h-273v-273h-273z" />
    <glyph glyph-name="bullet" unicode="&#x2022;" horiz-adv-x="1092" 
d="M273 1365v273h-273v273h273v273h273v-273h273v-273h-273v-273h-273z" />
    <glyph glyph-name="uni2023" unicode="&#x2023;" horiz-adv-x="1092" 
d="M0 1092v1365h273v-273h273v-273h273v-273h-273v-273h-273v-273h-273z" />
    <glyph glyph-name="onedotenleader" unicode="&#x2024;" horiz-adv-x="4369" 
d="M1911 1365v546h546v-546h-546z" />
    <glyph glyph-name="twodotenleader" unicode="&#x2025;" horiz-adv-x="4369" 
d="M1092 1365v546h546v-546h-546zM2730 1365v546h546v-546h-546z" />
    <glyph glyph-name="ellipsis" unicode="&#x2026;" horiz-adv-x="3276" 
d="M273 0v273h-273v273h273v273h273v-273h273v-273h-273v-273h-273zM1365 0v273h-273v273h273v273h273v-273h273v-273h-273v-273h-273zM2457 0v273h-273v273h273v273h273v-273h273v-273h-273v-273h-273z" />
    <glyph glyph-name="uni2027" unicode="&#x2027;" horiz-adv-x="1092" 
d="M273 1365v273h-273v273h273v273h273v-273h273v-273h-273v-273h-273z" />
    <glyph glyph-name="uni2038" unicode="&#x2038;" 
d="M0 273v546h273v273h273v273h273v273h273v-273h273v-273h273v-273h273v-546h-273v273h-273v273h-273v273h-273v-273h-273v-273h-273v-273h-273z" />
    <glyph glyph-name="guilsinglleft" unicode="&#x2039;" horiz-adv-x="1638" 
d="M819 546v273h-273v273h-273v273h-273v273h273v273h273v273h273v273h546v-273h-273v-273h-273v-273h-273v-273h273v-273h273v-273h273v-273h-546z" />
    <glyph glyph-name="guilsinglright" unicode="&#x203a;" horiz-adv-x="1638" 
d="M0 546v273h273v273h273v273h273v273h-273v273h-273v273h-273v273h546v-273h273v-273h273v-273h273v-273h-273v-273h-273v-273h-273v-273h-546z" />
    <glyph glyph-name="uni203D" unicode="&#x203d;" horiz-adv-x="1911" 
d="M546 0v273h-273v273h273v273h273v-273h273v-273h-273v-273h-273zM1092 1911v1092h-546v-819h273v-273h273zM546 1092v546h-273v546h-273v1092h273v273h1092v-273h273v-1365h-273v-273h-273v-273h-273v-273h-273z" />
    <glyph glyph-name="uni2043" unicode="&#x2043;" horiz-adv-x="1092" 
d="M273 1365v273h-273v273h273v273h273v-273h273v-273h-273v-273h-273z" />
    <glyph glyph-name="fraction" unicode="&#x2044;" horiz-adv-x="1911" 
d="M0 0v819h273v546h273v546h273v546h273v546h273v546h273v-819h-273v-546h-273v-546h-273v-546h-273v-546h-273v-546h-273z" />
    <glyph glyph-name="uni204F" unicode="&#x204f;" horiz-adv-x="1092" 
d="M546 -546v273h273v-273h-273zM273 -273v273h-273v546h273v273h273v-273h273v-273h-273v-546h-273zM273 1638v273h-273v273h273v273h273v-273h273v-273h-273v-273h-273z" />
    <glyph glyph-name="uni2056" unicode="&#x2056;" horiz-adv-x="4369" 
d="M546 1365v546h546v-546h-546zM1911 1365v546h546v-546h-546zM3276 1365v546h546v-546h-546z" />
    <glyph glyph-name="uni205A" unicode="&#x205a;" horiz-adv-x="4369" 
d="M1092 1365v546h546v-546h-546zM2730 1365v546h546v-546h-546z" />
    <glyph glyph-name="uni2070" unicode="&#x2070;" 
d="M819 2457v273h273v-273h-273zM1365 1911v1092h-273v273h-546v-1092h273v-273h546zM273 1638v273h-273v1365h273v273h1365v-273h273v-1365h-273v-273h-1365z" />
    <glyph glyph-name="uni2071" unicode="&#x2071;" horiz-adv-x="1365" 
d="M273 1638v1092h-273v273h819v-1092h273v-273h-819zM273 3276v273h546v-273h-546z" />
    <glyph glyph-name="uni2072" unicode="&#x2072;" horiz-adv-x="819" 
d="M0 1638v546h546v-546h-546zM0 2730v546h546v-546h-546z" />
    <glyph glyph-name="uni2073" unicode="&#x2073;" horiz-adv-x="1911" 
d="M546 1638v273h546v-273h-546zM546 2184v273h273v273h273v546h-546v-273h-546v273h273v273h1092v-273h273v-546h-273v-273h-273v-273h-546z" />
    <glyph glyph-name="uni2074" unicode="&#x2074;" 
d="M1092 2730v273h-273v-273h273zM819 1638v273h273v546h-1092v273h273v273h273v273h273v273h819v-819h273v-273h-273v-819h-819z" />
    <glyph glyph-name="uni2075" unicode="&#x2075;" 
d="M0 1638v819h273v-273h273v-273h-273v-273h-273zM546 1638v273h819v546h-273v273h-819v819h1638v-273h-1092v-273h819v-273h273v-819h-273v-273h-1092z" />
    <glyph glyph-name="uni2076" unicode="&#x2076;" 
d="M1365 1911v546h-819v-546h819zM273 1638v273h-273v1365h273v273h1365v-546h-273v273h-819v-546h1092v-273h273v-546h-273v-273h-1365z" />
    <glyph glyph-name="uni2077" unicode="&#x2077;" 
d="M819 1638v1092h273v273h273v273h-1092v-273h-273v546h1911v-546h-273v-273h-273v-1092h-546z" />
    <glyph glyph-name="uni2078" unicode="&#x2078;" 
d="M1365 1911v546h-819v-546h819zM1365 2730v546h-819v-546h819zM273 1638v273h-273v546h273v273h-273v546h273v273h1365v-273h273v-546h-273v-273h273v-546h-273v-273h-1365z" />
    <glyph glyph-name="uni2079" unicode="&#x2079;" 
d="M1365 2730v546h-819v-546h819zM273 1638v546h273v-273h819v546h-1092v273h-273v546h273v273h1365v-273h273v-1365h-273v-273h-1365z" />
    <glyph glyph-name="uni207A" unicode="&#x207a;" horiz-adv-x="1911" 
d="M546 1638v546h-546v546h546v546h546v-546h546v-546h-546v-546h-546z" />
    <glyph glyph-name="uni207B" unicode="&#x207b;" horiz-adv-x="1638" 
d="M0 2184v546h1365v-546h-1365z" />
    <glyph glyph-name="uni207C" unicode="&#x207c;" horiz-adv-x="1638" 
d="M0 1638v546h1365v-546h-1365zM0 2457v546h1365v-546h-1365z" />
    <glyph glyph-name="uni207D" unicode="&#x207d;" horiz-adv-x="1638" 
d="M273 1638v273h-273v1092h273v273h273v273h819v-273h-546v-273h-273v-819h273v-273h546v-273h-1092z" />
    <glyph glyph-name="uni207E" unicode="&#x207e;" horiz-adv-x="1638" 
d="M0 1638v273h546v273h273v819h-273v273h-546v273h1092v-273h273v-1092h-273v-273h-273v-273h-819z" />
    <glyph glyph-name="uni207F" unicode="&#x207f;" 
d="M273 1638v1365h-273v273h819v-273h273v-273h-273v-819h273v-273h-819zM1365 1365v1638h-273v273h546v-273h273v-1365h-273v-273h-273z" />
    <glyph glyph-name="uni2080" unicode="&#x2080;" horiz-adv-x="1638" 
d="M546 273v273h546v-273h-546zM273 546v1092h273v-1092h-273zM1092 546v1092h273v-1092h-273zM546 1638v273h546v-273h-546z" />
    <glyph glyph-name="uni2081" unicode="&#x2081;" horiz-adv-x="1638" 
d="M273 273v273h273v819h-273v273h273v273h273v-1365h273v-273h-819z" />
    <glyph glyph-name="uni2082" unicode="&#x2082;" horiz-adv-x="1638" 
d="M273 273v546h273v-273h819v-273h-1092zM546 819v273h546v-273h-546zM273 1365v273h273v-273h-273zM1092 1092v546h273v-546h-273zM546 1638v273h546v-273h-546z" />
    <glyph glyph-name="uni2083" unicode="&#x2083;" horiz-adv-x="1638" 
d="M273 273v273h819v-273h-819zM1092 546v546h273v-546h-273zM273 1092v273h819v-273h-819zM1092 1365v273h273v-273h-273zM273 1638v273h819v-273h-819z" />
    <glyph glyph-name="uni2084" unicode="&#x2084;" horiz-adv-x="1638" 
d="M819 273v546h-546v546h273v-273h273v273h-273v273h273v273h273v-819h273v-273h-273v-546h-273z" />
    <glyph glyph-name="uni2085" unicode="&#x2085;" horiz-adv-x="1638" 
d="M546 273v273h546v-273h-546zM273 546v273h273v-273h-273zM1092 546v546h-819v819h1092v-273h-819v-273h819v-819h-273z" />
    <glyph glyph-name="uni2086" unicode="&#x2086;" horiz-adv-x="1638" 
d="M546 273v273h546v-273h-546zM273 546v1092h273v-273h819v-819h-273v546h-546v-546h-273zM546 1638v273h546v-273h-546z" />
    <glyph glyph-name="uni2087" unicode="&#x2087;" horiz-adv-x="1638" 
d="M819 273v819h273v-819h-273zM1092 1092v546h-546v-273h-273v546h1092v-819h-273z" />
    <glyph glyph-name="uni2088" unicode="&#x2088;" horiz-adv-x="1638" 
d="M546 273v273h546v-273h-546zM273 546v546h273v-546h-273zM1092 546v546h273v-546h-273zM546 1092v273h546v-273h-546zM273 1365v273h273v-273h-273zM1092 1365v273h273v-273h-273zM546 1638v273h546v-273h-546z" />
    <glyph glyph-name="uni2089" unicode="&#x2089;" horiz-adv-x="1638" 
d="M546 273v273h546v-273h-546zM273 1092v546h273v-546h-273zM1092 546v273h-546v273h546v546h273v-1092h-273zM546 1638v273h546v-273h-546z" />
    <glyph glyph-name="uni208A" unicode="&#x208a;" horiz-adv-x="1911" 
d="M273 273v1911h546v-1638h819v-273h-1365z" />
    <glyph glyph-name="uni208B" unicode="&#x208b;" horiz-adv-x="1911" 
d="M1365 273v273h273v-273h-273zM1092 546v273h273v-273h-273zM1365 1365v546h273v-546h-273zM273 273v1911h1092v-273h-546v-546h546v-273h-273v-273h-273v-546h-546z" />
    <glyph glyph-name="uni208D" unicode="&#x208d;" horiz-adv-x="1911" 
d="M819 546v273h273v-273h-273zM546 819v273h273v-273h-273zM273 1092v273h273v-273h-273zM546 1365v273h273v-273h-273zM819 1638v273h273v-273h-273zM1092 273v273h273v1365h-273v273h546v-1911h-546z" />
    <glyph glyph-name="uni208E" unicode="&#x208e;" horiz-adv-x="1911" 
d="M819 546v273h273v-273h-273zM1092 819v273h273v-273h-273zM1365 1092v273h273v-273h-273zM1092 1365v273h273v-273h-273zM819 1638v273h273v-273h-273zM273 273v1911h546v-273h-273v-1365h273v-273h-546z" />
    <glyph glyph-name="uni2090" unicode="&#x2090;" horiz-adv-x="1911" 
d="M1092 273v273h-273v273h-273v273h-273v273h273v273h273v273h273v273h546v-1911h-546z" />
    <glyph glyph-name="uni2091" unicode="&#x2091;" horiz-adv-x="1911" 
d="M273 273v1911h546v-273h273v-273h273v-273h273v-273h-273v-273h-273v-273h-273v-273h-546z" />
    <glyph glyph-name="Euro" unicode="&#x20ac;" horiz-adv-x="2457" 
d="M819 0v273h-273v273h-273v819h-273v273h273v273h-273v273h273v819h273v273h273v273h1092v-273h273v-273h-1092v-273h-273v-546h1092v-273h-1092v-273h1092v-273h-1092v-546h273v-273h1092v-273h-273v-273h-1092z" />
    <glyph glyph-name="trademark" unicode="&#x2122;" horiz-adv-x="4369" 
d="M546 1638v273h-273v819h273v273h273v273h-546v-273h-273v546h1911v-273h-546v-273h-273v-273h-273v-819h546v273h546v-273h-273v-273h-1092zM2184 1365v2184h819v-273h-273v-1638h-273v-273h-273zM3276 1638v273h546v1365h-273v-1092h-546v1092h273v273h820v-1911h-820z
" />
    <glyph glyph-name="arrowleft" unicode="&#x2190;" horiz-adv-x="3549" 
d="M1365 0v273h-273v273h-273v273h-273v273h-273v273h-273v273h273v273h273v273h273v273h273v273h273v273h273v-819h1638v-1365h-1638v-819h-273z" />
    <glyph glyph-name="arrowup" unicode="&#x2191;" horiz-adv-x="3276" 
d="M819 0v1638h-819v273h273v273h273v273h273v273h273v273h273v273h273v-273h273v-273h273v-273h273v-273h273v-273h273v-273h-819v-1638h-1365z" />
    <glyph glyph-name="arrowright" unicode="&#x2192;" horiz-adv-x="3549" 
d="M1638 0v819h-1638v1365h1638v819h273v-273h273v-273h273v-273h273v-273h273v-273h273v-273h-273v-273h-273v-273h-273v-273h-273v-273h-273v-273h-273z" />
    <glyph glyph-name="arrowdown" unicode="&#x2193;" horiz-adv-x="3276" 
d="M1365 0v273h-273v273h-273v273h-273v273h-273v273h-273v273h819v1638h1365v-1638h819v-273h-273v-273h-273v-273h-273v-273h-273v-273h-273v-273h-273z" />
    <glyph glyph-name="uni219E" unicode="&#x219e;" horiz-adv-x="4369" 
d="M2730 1092v819h273v-819h-273zM3276 1092v819h273v-819h-273zM3822 1092v819h274v-819h-274zM819 546v273h-273v273h-273v273h-273v273h273v273h273v273h273v273h273v-546h1365v-819h-1365v-546h-273z" />
    <glyph glyph-name="uni219F" unicode="&#x219f;" horiz-adv-x="4369" 
d="M273 1092v273h273v-273h-273zM0 1365v273h273v-273h-273zM273 1638v273h273v-273h-273zM2730 1092v819h273v-819h-273zM3276 1092v819h273v-819h-273zM3822 1092v819h274v-819h-274zM819 546v273h-273v273h273v273h1365v273h-1365v273h-273v273h273v273h273v-546h1365
v-819h-1365v-546h-273z" />
    <glyph glyph-name="uni21A0" unicode="&#x21a0;" horiz-adv-x="4369" 
d="M0 1092v819h273v-819h-273zM546 1092v819h273v-819h-273zM1092 1092v819h273v-819h-273zM3003 546v546h-1365v819h1365v546h273v-273h273v-273h273v-273h274v-273h-274v-273h-273v-273h-273v-273h-273z" />
    <glyph glyph-name="uni21A1" unicode="&#x21a1;" horiz-adv-x="4369" 
d="M3549 1092v273h273v-273h-273zM3822 1365v273h274v-273h-274zM0 1092v819h273v-819h-273zM546 1092v819h273v-819h-273zM1092 1092v819h273v-819h-273zM3549 1638v273h273v-273h-273zM3003 546v546h-1365v819h1365v546h273v-273h273v-273h-273v-273h-1365v-273h1365v-273
h273v-273h-273v-273h-273z" />
    <glyph glyph-name="uni21A4" unicode="&#x21a4;" horiz-adv-x="3549" 
d="M3003 819v1365h273v-1365h-273zM1365 0v273h-273v273h-273v273h-273v273h-273v273h-273v273h273v273h273v273h273v273h273v273h273v273h273v-819h1092v-1365h-1092v-819h-273z" />
    <glyph glyph-name="uni21A5" unicode="&#x21a5;" horiz-adv-x="3276" 
d="M819 0v273h1365v-273h-1365zM819 546v1092h-819v273h273v273h273v273h273v273h273v273h273v273h273v-273h273v-273h273v-273h273v-273h273v-273h273v-273h-819v-1092h-1365z" />
    <glyph glyph-name="uni21A6" unicode="&#x21a6;" horiz-adv-x="3549" 
d="M0 819v1365h273v-1365h-273zM1638 0v819h-1092v1365h1092v819h273v-273h273v-273h273v-273h273v-273h273v-273h273v-273h-273v-273h-273v-273h-273v-273h-273v-273h-273v-273h-273z" />
    <glyph glyph-name="uni21A7" unicode="&#x21a7;" horiz-adv-x="3276" 
d="M1365 0v273h-273v273h-273v273h-273v273h-273v273h-273v273h819v1092h1365v-1092h819v-273h-273v-273h-273v-273h-273v-273h-273v-273h-273v-273h-273zM819 3003v273h1365v-273h-1365z" />
    <glyph glyph-name="uni21BC" unicode="&#x21bc;" horiz-adv-x="1911" 
d="M819 546v273h-273v273h-273v273h-273v273h273v273h273v273h273v273h273v-546h546v-819h-546v-546h-273z" />
    <glyph glyph-name="uni21BD" unicode="&#x21bd;" horiz-adv-x="1911" 
d="M273 1092v273h273v-273h-273zM0 1365v273h273v-273h-273zM273 1638v273h273v-273h-273zM819 546v273h-273v273h273v273h546v273h-546v273h-273v273h273v273h273v-546h546v-819h-546v-546h-273z" />
    <glyph glyph-name="uni21BE" unicode="&#x21be;" 
d="M546 546v546h-546v273h273v273h273v273h273v273h273v-273h273v-273h273v-273h273v-273h-546v-546h-819z" />
    <glyph glyph-name="uni21BF" unicode="&#x21bf;" 
d="M546 546v546h-546v273h273v273h273v-273h273v-546h273v546h273v273h273v-273h273v-273h-546v-546h-819zM546 1638v273h273v-273h-273zM1092 1638v273h273v-273h-273zM819 1911v273h273v-273h-273z" />
    <glyph glyph-name="uni21C0" unicode="&#x21c0;" horiz-adv-x="1911" 
d="M546 546v546h-546v819h546v546h273v-273h273v-273h273v-273h273v-273h-273v-273h-273v-273h-273v-273h-273z" />
    <glyph glyph-name="uni21C1" unicode="&#x21c1;" horiz-adv-x="1911" 
d="M1092 1092v273h273v-273h-273zM1365 1365v273h273v-273h-273zM1092 1638v273h273v-273h-273zM546 546v546h-546v819h546v546h273v-273h273v-273h-273v-273h-546v-273h546v-273h273v-273h-273v-273h-273z" />
    <glyph glyph-name="uni21C2" unicode="&#x21c2;" 
d="M819 546v273h-273v273h-273v273h-273v273h546v546h819v-546h546v-273h-273v-273h-273v-273h-273v-273h-273z" />
    <glyph glyph-name="uni21C3" unicode="&#x21c3;" 
d="M819 546v273h273v-273h-273zM546 819v273h273v-273h-273zM1092 819v273h273v-273h-273zM273 1092v273h-273v273h546v546h819v-546h546v-273h-273v-273h-273v273h-273v546h-273v-546h-273v-273h-273z" />
    <glyph glyph-name="arrowdblleft" unicode="&#x21d0;" horiz-adv-x="2457" 
d="M819 546v273h-273v273h-273v273h-273v273h273v273h273v273h273v273h273v-546h1092v-819h-1092v-546h-273z" />
    <glyph glyph-name="arrowdblup" unicode="&#x21d1;" 
d="M546 546v1092h-546v273h273v273h273v273h273v273h273v-273h273v-273h273v-273h273v-273h-546v-1092h-819z" />
    <glyph glyph-name="arrowdblright" unicode="&#x21d2;" horiz-adv-x="2457" 
d="M1092 546v546h-1092v819h1092v546h273v-273h273v-273h273v-273h273v-273h-273v-273h-273v-273h-273v-273h-273z" />
    <glyph glyph-name="arrowdbldown" unicode="&#x21d3;" 
d="M819 546v273h-273v273h-273v273h-273v273h546v1092h819v-1092h546v-273h-273v-273h-273v-273h-273v-273h-273z" />
    <glyph glyph-name="uni21D6" unicode="&#x21d6;" horiz-adv-x="2457" 
d="M273 1092v273h273v-273h-273zM0 1365v273h273v-273h-273zM273 1638v273h273v-273h-273zM819 546v273h-273v273h273v273h1092v273h-1092v273h-273v273h273v273h273v-546h1092v-819h-1092v-546h-273z" />
    <glyph glyph-name="uni21D7" unicode="&#x21d7;" 
d="M546 546v1092h-546v273h273v273h273v-273h273v-1092h273v1092h273v273h273v-273h273v-273h-546v-1092h-819zM546 2184v273h273v-273h-273zM1092 2184v273h273v-273h-273zM819 2457v273h273v-273h-273z" />
    <glyph glyph-name="uni21D8" unicode="&#x21d8;" horiz-adv-x="2457" 
d="M1638 1092v273h273v-273h-273zM1911 1365v273h273v-273h-273zM1638 1638v273h273v-273h-273zM1092 546v546h-1092v819h1092v546h273v-273h273v-273h-273v-273h-1092v-273h1092v-273h273v-273h-273v-273h-273z" />
    <glyph glyph-name="uni21D9" unicode="&#x21d9;" 
d="M819 546v273h273v-273h-273zM546 819v273h273v-273h-273zM1092 819v273h273v-273h-273zM273 1092v273h-273v273h546v1092h819v-1092h546v-273h-273v-273h-273v273h-273v1092h-273v-1092h-273v-273h-273z" />
    <glyph glyph-name="uni21E6" unicode="&#x21e6;" horiz-adv-x="3549" 
d="M819 546v273h273v-273h-273zM546 819v273h273v-273h-273zM273 1092v273h273v-273h-273zM0 1365v273h273v-273h-273zM273 1638v273h273v-273h-273zM546 1911v273h273v-273h-273zM819 2184v273h273v-273h-273zM1365 0v273h-273v273h273v546h1638v819h-1638v546h-273v273
h273v273h273v-819h1638v-1365h-1638v-819h-273z" />
    <glyph glyph-name="uni21E7" unicode="&#x21e7;" horiz-adv-x="3276" 
d="M819 0v1638h-819v273h273v273h273v-273h546v-1638h819v1638h546v273h273v-273h273v-273h-819v-1638h-1365zM546 2184v273h273v-273h-273zM2184 2184v273h273v-273h-273zM819 2457v273h273v-273h-273zM1911 2457v273h273v-273h-273zM1092 2730v273h273v-273h-273z
M1638 2730v273h273v-273h-273zM1365 3003v273h273v-273h-273z" />
    <glyph glyph-name="uni21E8" unicode="&#x21e8;" horiz-adv-x="3549" 
d="M2184 546v273h273v-273h-273zM2457 819v273h273v-273h-273zM2730 1092v273h273v-273h-273zM3003 1365v273h273v-273h-273zM2730 1638v273h273v-273h-273zM2457 1911v273h273v-273h-273zM2184 2184v273h273v-273h-273zM1638 0v819h-1638v1365h1638v819h273v-273h273v-273
h-273v-546h-1638v-819h1638v-546h273v-273h-273v-273h-273z" />
    <glyph glyph-name="uni21E9" unicode="&#x21e9;" horiz-adv-x="3276" 
d="M1365 0v273h273v-273h-273zM1092 273v273h273v-273h-273zM1638 273v273h273v-273h-273zM819 546v273h273v-273h-273zM1911 546v273h273v-273h-273zM546 819v273h273v-273h-273zM2184 819v273h273v-273h-273zM273 1092v273h-273v273h819v1638h1365v-1638h819v-273h-273
v-273h-273v273h-546v1638h-819v-1638h-546v-273h-273z" />
    <glyph glyph-name="uni21EA" unicode="&#x21ea;" horiz-adv-x="3276" 
d="M819 0v273h1365v-273h-1365zM819 546v1092h-819v273h273v273h273v-273h546v-1092h819v1092h546v273h273v-273h273v-273h-819v-1092h-1365zM546 2184v273h273v-273h-273zM2184 2184v273h273v-273h-273zM819 2457v273h273v-273h-273zM1911 2457v273h273v-273h-273z
M1092 2730v273h273v-273h-273zM1638 2730v273h273v-273h-273zM1365 3003v273h273v-273h-273z" />
    <glyph glyph-name="uni21EB" unicode="&#x21eb;" horiz-adv-x="3549" 
d="M2184 546v273h273v-273h-273zM2457 819v273h273v-273h-273zM2730 1092v273h273v-273h-273zM3003 1365v273h273v-273h-273zM2730 1638v273h273v-273h-273zM0 819v1365h273v-1365h-273zM2457 1911v273h273v-273h-273zM2184 2184v273h273v-273h-273zM1638 0v819h-1092v1365
h1092v819h273v-273h273v-273h-273v-546h-1092v-819h1092v-546h273v-273h-273v-273h-273z" />
    <glyph glyph-name="uni21EC" unicode="&#x21ec;" horiz-adv-x="3276" 
d="M1365 0v273h273v-273h-273zM1092 273v273h273v-273h-273zM1638 273v273h273v-273h-273zM819 546v273h273v-273h-273zM1911 546v273h273v-273h-273zM546 819v273h273v-273h-273zM2184 819v273h273v-273h-273zM273 1092v273h-273v273h819v1092h1365v-1092h819v-273h-273
v-273h-273v273h-546v1092h-819v-1092h-546v-273h-273zM819 3003v273h1365v-273h-1365z" />
    <glyph glyph-name="block" unicode="&#x2588;" horiz-adv-x="4369" 
d="M0 -273v4095h4096v-4095h-4096z" />
    <glyph glyph-name="uni2596" unicode="&#x2596;" horiz-adv-x="3822" 
d="M0 0v1911h1911v-1911h-1911z" />
    <glyph glyph-name="uni2597" unicode="&#x2597;" horiz-adv-x="3822" 
d="M1638 0v1911h1911v-1911h-1911z" />
    <glyph glyph-name="uni2598" unicode="&#x2598;" horiz-adv-x="3822" 
d="M0 1638v1911h1911v-1911h-1911z" />
    <glyph glyph-name="uni2599" unicode="&#x2599;" horiz-adv-x="3822" 
d="M0 0v3549h1911v-1638h1638v-1911h-3549z" />
    <glyph glyph-name="uni259A" unicode="&#x259a;" horiz-adv-x="3822" 
d="M1638 0v1638h-1638v1911h1911v-1638h1638v-1911h-1911z" />
    <glyph glyph-name="uni259B" unicode="&#x259b;" horiz-adv-x="3822" 
d="M0 0v3549h3549v-1911h-1638v-1638h-1911z" />
    <glyph glyph-name="uni259C" unicode="&#x259c;" horiz-adv-x="3822" 
d="M1638 0v1638h-1638v1911h3549v-3549h-1911z" />
    <glyph glyph-name="uni259D" unicode="&#x259d;" horiz-adv-x="3822" 
d="M1638 1638v1911h1911v-1911h-1911z" />
    <glyph glyph-name="uni259E" unicode="&#x259e;" horiz-adv-x="3822" 
d="M0 0v1911h1638v1638h1911v-1911h-1638v-1638h-1911z" />
    <glyph glyph-name="uni259F" unicode="&#x259f;" horiz-adv-x="3822" 
d="M0 0v1911h1638v1638h1911v-3549h-3549z" />
    <glyph glyph-name="filledbox" unicode="&#x25a0;" horiz-adv-x="3822" 
d="M0 0v3549h3549v-3549h-3549z" />
    <glyph glyph-name="H22073" unicode="&#x25a1;" horiz-adv-x="3822" 
d="M3003 546v2457h-2457v-2457h2457zM0 0v3549h3549v-3549h-3549z" />
    <glyph glyph-name="uni25A2" unicode="&#x25a2;" horiz-adv-x="3822" 
d="M2730 546v273h273v1911h-273v273h-1911v-273h-273v-1911h273v-273h1911zM819 0v273h-546v546h-273v1911h273v546h546v273h1911v-273h546v-546h273v-1911h-273v-546h-546v-273h-1911z" />
    <glyph glyph-name="uni25A3" unicode="&#x25a3;" horiz-adv-x="3822" 
d="M1092 1092v1365h1365v-1365h-1365zM3003 546v2457h-2457v-2457h2457zM0 0v3549h3549v-3549h-3549z" />
    <glyph glyph-name="uni25A4" unicode="&#x25a4;" horiz-adv-x="3822" 
d="M3003 546v273h-2457v-273h2457zM3003 1092v273h-2457v-273h2457zM3003 1638v273h-2457v-273h2457zM3003 2184v273h-2457v-273h2457zM3003 2730v273h-2457v-273h2457zM0 0v3549h3549v-3549h-3549z" />
    <glyph glyph-name="uni25A5" unicode="&#x25a5;" horiz-adv-x="3822" 
d="M819 546v2457h-273v-2457h273zM1365 546v2457h-273v-2457h273zM1911 546v2457h-273v-2457h273zM2457 546v2457h-273v-2457h273zM3003 546v2457h-273v-2457h273zM0 0v3549h3549v-3549h-3549z" />
    <glyph glyph-name="uni25A6" unicode="&#x25a6;" horiz-adv-x="3822" 
d="M819 546v273h-273v-273h273zM1365 546v273h-273v-273h273zM1911 546v273h-273v-273h273zM2457 546v273h-273v-273h273zM3003 546v273h-273v-273h273zM819 1092v273h-273v-273h273zM1365 1092v273h-273v-273h273zM1911 1092v273h-273v-273h273zM2457 1092v273h-273v-273
h273zM3003 1092v273h-273v-273h273zM819 1638v273h-273v-273h273zM1365 1638v273h-273v-273h273zM1911 1638v273h-273v-273h273zM2457 1638v273h-273v-273h273zM3003 1638v273h-273v-273h273zM819 2184v273h-273v-273h273zM1365 2184v273h-273v-273h273zM1911 2184v273h-273
v-273h273zM2457 2184v273h-273v-273h273zM3003 2184v273h-273v-273h273zM819 2730v273h-273v-273h273zM1365 2730v273h-273v-273h273zM1911 2730v273h-273v-273h273zM2457 2730v273h-273v-273h273zM3003 2730v273h-273v-273h273zM0 0v3549h3549v-3549h-3549z" />
    <glyph glyph-name="uni25A7" unicode="&#x25a7;" horiz-adv-x="3822" 
d="M1092 819v273h273v-273h-273zM1911 819v273h273v-273h-273zM819 1092v273h273v-273h-273zM1638 1092v273h273v-273h-273zM1365 1365v273h273v-273h-273zM2457 1365v273h273v-273h-273zM1092 1638v273h273v-273h-273zM2184 1638v273h273v-273h-273zM819 1911v273h273v-273
h-273zM1911 1911v273h273v-273h-273zM1638 2184v273h273v-273h-273zM2457 2184v273h273v-273h-273zM1365 2457v273h273v-273h-273zM2184 2457v273h273v-273h-273zM3003 546v546h-273v273h273v546h-273v273h273v546h-273v273h-546v-273h-273v273h-546v-273h-273v273h-546
v-546h273v-273h-273v-546h273v-273h-273v-546h273v-273h546v273h273v-273h546v273h273v-273h546zM0 0v3549h3549v-3549h-3549z" />
    <glyph glyph-name="uni25A8" unicode="&#x25a8;" horiz-adv-x="3822" 
d="M1365 819v273h273v-273h-273zM2184 819v273h273v-273h-273zM1638 1092v273h273v-273h-273zM2457 1092v273h273v-273h-273zM819 1365v273h273v-273h-273zM1911 1365v273h273v-273h-273zM1092 1638v273h273v-273h-273zM2184 1638v273h273v-273h-273zM1365 1911v273h273
v-273h-273zM2457 1911v273h273v-273h-273zM819 2184v273h273v-273h-273zM1638 2184v273h273v-273h-273zM1092 2457v273h273v-273h-273zM1911 2457v273h273v-273h-273zM2730 546v273h273v546h-273v273h273v546h-273v273h273v546h-546v-273h-273v273h-546v-273h-273v273h-546
v-273h-273v-546h273v-273h-273v-546h273v-273h-273v-546h546v273h273v-273h546v273h273v-273h546zM0 0v3549h3549v-3549h-3549z" />
    <glyph glyph-name="uni25A9" unicode="&#x25a9;" horiz-adv-x="3822" 
d="M1638 1092v273h273v-273h-273zM1365 1365v273h273v-273h-273zM1911 1365v273h273v-273h-273zM1092 1638v273h273v-273h-273zM2184 1638v273h273v-273h-273zM1365 1911v273h273v-273h-273zM1911 1911v273h273v-273h-273zM1638 2184v273h273v-273h-273zM2730 546v273h273
v273h-546v546h546v273h-546v546h546v273h-273v273h-273v-546h-546v546h-273v-546h-546v546h-273v-273h-273v-273h546v-546h-546v-273h546v-546h-546v-273h273v-273h273v546h546v-546h273v546h546v-546h273zM0 0v3549h3549v-3549h-3549z" />
    <glyph glyph-name="H18543" unicode="&#x25aa;" horiz-adv-x="1638" 
d="M0 1092v1365h1365v-1365h-1365z" />
    <glyph glyph-name="H18551" unicode="&#x25ab;" horiz-adv-x="1638" 
d="M1092 1365v819h-819v-819h819zM0 1092v1365h1365v-1365h-1365z" />
    <glyph glyph-name="filledrect" unicode="&#x25ac;" horiz-adv-x="3822" 
d="M0 819v1911h3549v-1911h-3549z" />
    <glyph glyph-name="uni25AD" unicode="&#x25ad;" horiz-adv-x="3822" 
d="M3003 1365v819h-2457v-819h2457zM0 819v1911h3549v-1911h-3549z" />
    <glyph glyph-name="uni25AE" unicode="&#x25ae;" 
d="M0 0v3549h1911v-3549h-1911z" />
    <glyph glyph-name="uni25AF" unicode="&#x25af;" 
d="M1365 546v2457h-819v-2457h819zM0 0v3549h1911v-3549h-1911z" />
    <glyph glyph-name="triagup" unicode="&#x25b2;" horiz-adv-x="2730" 
d="M0 273v546h273v546h273v546h273v546h273v546h273v-546h273v-546h273v-546h273v-546h273v-546h-2457z" />
    <glyph glyph-name="uni25B3" unicode="&#x25b3;" horiz-adv-x="2730" 
d="M0 273v546h273v-273h1911v273h273v-546h-2457zM273 819v546h273v-546h-273zM1911 819v546h273v-546h-273zM546 1365v546h273v-546h-273zM1638 1365v546h273v-546h-273zM819 1911v546h273v-546h-273zM1365 1911v546h273v-546h-273zM1092 2457v546h273v-546h-273z" />
    <glyph glyph-name="uni25B4" unicode="&#x25b4;" horiz-adv-x="1638" 
d="M0 819v546h273v546h273v546h273v-546h273v-546h273v-546h-1365z" />
    <glyph glyph-name="uni25B5" unicode="&#x25b5;" horiz-adv-x="1638" 
d="M0 819v546h273v-273h819v273h273v-546h-1365zM273 1365v546h273v-546h-273zM819 1365v546h273v-546h-273zM546 1911v546h273v-546h-273z" />
    <glyph glyph-name="uni25B6" unicode="&#x25b6;" horiz-adv-x="3003" 
d="M0 546v2457h546v-273h546v-273h546v-273h546v-273h546v-273h-546v-273h-546v-273h-546v-273h-546v-273h-546z" />
    <glyph glyph-name="uni25B7" unicode="&#x25b7;" horiz-adv-x="3003" 
d="M546 819v273h546v-273h-546zM1092 1092v273h546v-273h-546zM1638 1365v273h546v-273h-546zM2184 1638v273h546v-273h-546zM1638 1911v273h546v-273h-546zM1092 2184v273h546v-273h-546zM546 2457v273h546v-273h-546zM0 546v2457h546v-273h-273v-1911h273v-273h-546z" />
    <glyph glyph-name="uni25B8" unicode="&#x25b8;" horiz-adv-x="1911" 
d="M0 1092v1365h546v-273h546v-273h546v-273h-546v-273h-546v-273h-546z" />
    <glyph glyph-name="uni25B9" unicode="&#x25b9;" horiz-adv-x="1911" 
d="M546 1365v273h546v-273h-546zM1092 1638v273h546v-273h-546zM546 1911v273h546v-273h-546zM0 1092v1365h546v-273h-273v-819h273v-273h-546z" />
    <glyph glyph-name="triagrt" unicode="&#x25ba;" horiz-adv-x="1638" 
d="M0 546v2457h273v-273h273v-273h273v-273h273v-273h273v-273h-273v-273h-273v-273h-273v-273h-273v-273h-273z" />
    <glyph glyph-name="uni25BB" unicode="&#x25bb;" horiz-adv-x="1638" 
d="M546 1092v273h273v-273h-273zM819 1365v273h273v-273h-273zM1092 1638v273h273v-273h-273zM819 1911v273h273v-273h-273zM546 2184v273h273v-273h-273zM0 546v2457h273v-273h273v-273h-273v-1365h273v-273h-273v-273h-273z" />
    <glyph glyph-name="triagdn" unicode="&#x25bc;" horiz-adv-x="2730" 
d="M1092 273v546h-273v546h-273v546h-273v546h-273v546h2457v-546h-273v-546h-273v-546h-273v-546h-273v-546h-273z" />
    <glyph glyph-name="uni25BD" unicode="&#x25bd;" horiz-adv-x="2730" 
d="M1092 273v546h273v-546h-273zM819 819v546h273v-546h-273zM1365 819v546h273v-546h-273zM546 1365v546h273v-546h-273zM1638 1365v546h273v-546h-273zM273 1911v546h273v-546h-273zM1911 1911v546h273v-546h-273zM0 2457v546h2457v-546h-273v273h-1911v-273h-273z" />
    <glyph glyph-name="uni25BE" unicode="&#x25be;" horiz-adv-x="1638" 
d="M546 819v546h-273v546h-273v546h1365v-546h-273v-546h-273v-546h-273z" />
    <glyph glyph-name="uni25BF" unicode="&#x25bf;" horiz-adv-x="1638" 
d="M546 819v546h273v-546h-273zM273 1365v546h273v-546h-273zM819 1365v546h273v-546h-273zM0 1911v546h1365v-546h-273v273h-819v-273h-273z" />
    <glyph glyph-name="uni25C0" unicode="&#x25c0;" horiz-adv-x="3003" 
d="M2184 546v273h-546v273h-546v273h-546v273h-546v273h546v273h546v273h546v273h546v273h546v-2457h-546z" />
    <glyph glyph-name="uni25C1" unicode="&#x25c1;" horiz-adv-x="3003" 
d="M1638 819v273h546v-273h-546zM1092 1092v273h546v-273h-546zM546 1365v273h546v-273h-546zM0 1638v273h546v-273h-546zM546 1911v273h546v-273h-546zM1092 2184v273h546v-273h-546zM1638 2457v273h546v-273h-546zM2184 546v273h273v1911h-273v273h546v-2457h-546z" />
    <glyph glyph-name="uni25C2" unicode="&#x25c2;" horiz-adv-x="1911" 
d="M1092 1092v273h-546v273h-546v273h546v273h546v273h546v-1365h-546z" />
    <glyph glyph-name="uni25C3" unicode="&#x25c3;" horiz-adv-x="1911" 
d="M546 1365v273h546v-273h-546zM0 1638v273h546v-273h-546zM546 1911v273h546v-273h-546zM1092 1092v273h273v819h-273v273h546v-1365h-546z" />
    <glyph glyph-name="triaglf" unicode="&#x25c4;" horiz-adv-x="1638" 
d="M1092 546v273h-273v273h-273v273h-273v273h-273v273h273v273h273v273h273v273h273v273h273v-2457h-273z" />
    <glyph glyph-name="uni25C5" unicode="&#x25c5;" horiz-adv-x="1638" 
d="M546 1092v273h273v-273h-273zM273 1365v273h273v-273h-273zM0 1638v273h273v-273h-273zM273 1911v273h273v-273h-273zM546 2184v273h273v-273h-273zM1092 546v273h-273v273h273v1365h-273v273h273v273h273v-2457h-273z" />
    <glyph glyph-name="uni25C6" unicode="&#x25c6;" horiz-adv-x="3549" 
d="M1365 0v273h-273v273h-273v273h-273v273h-273v273h-273v546h273v273h273v273h273v273h273v273h273v273h546v-273h273v-273h273v-273h273v-273h273v-273h273v-546h-273v-273h-273v-273h-273v-273h-273v-273h-273v-273h-546z" />
    <glyph glyph-name="uni25C7" unicode="&#x25c7;" horiz-adv-x="3549" 
d="M1911 546v273h273v273h273v273h273v546h-273v273h-273v273h-273v273h-546v-273h-273v-273h-273v-273h-273v-546h273v-273h273v-273h273v-273h546zM1365 0v273h-273v273h-273v273h-273v273h-273v273h-273v546h273v273h273v273h273v273h273v273h273v273h546v-273h273v-273
h273v-273h273v-273h273v-273h273v-546h-273v-273h-273v-273h-273v-273h-273v-273h-273v-273h-546z" />
    <glyph glyph-name="uni25C8" unicode="&#x25c8;" horiz-adv-x="3549" 
d="M1365 1092v273h-273v546h273v273h546v-273h273v-546h-273v-273h-546zM1911 546v273h273v273h273v273h273v546h-273v273h-273v273h-273v273h-546v-273h-273v-273h-273v-273h-273v-546h273v-273h273v-273h273v-273h546zM1365 0v273h-273v273h-273v273h-273v273h-273v273
h-273v546h273v273h273v273h273v273h273v273h273v273h546v-273h273v-273h273v-273h273v-273h273v-273h273v-546h-273v-273h-273v-273h-273v-273h-273v-273h-273v-273h-546z" />
    <glyph glyph-name="uni25C9" unicode="&#x25c9;" horiz-adv-x="3822" 
d="M1365 1092v273h-273v819h273v273h819v-273h273v-819h-273v-273h-819zM2457 546v273h273v273h273v1365h-273v273h-273v273h-1365v-273h-273v-273h-273v-1365h273v-273h273v-273h1365zM1092 0v273h-546v273h-273v546h-273v1365h273v546h273v273h546v273h1365v-273h546v-273
h273v-546h273v-1365h-273v-546h-273v-273h-546v-273h-1365z" />
    <glyph glyph-name="circle" unicode="&#x25cb;" horiz-adv-x="3822" 
d="M2457 546v273h273v273h273v1365h-273v273h-273v273h-1365v-273h-273v-273h-273v-1365h273v-273h273v-273h1365zM1092 0v273h-546v273h-273v546h-273v1365h273v546h273v273h546v273h1365v-273h546v-273h273v-546h273v-1365h-273v-546h-273v-273h-546v-273h-1365z" />
    <glyph glyph-name="uni25CC" unicode="&#x25cc;" horiz-adv-x="3822" 
d="M1092 0v546h546v-546h-546zM1911 0v546h546v-546h-546zM546 273v273h-273v273h273v273h273v-273h273v-273h-273v-273h-273zM2730 273v273h-273v273h273v273h273v-273h273v-273h-273v-273h-273zM0 1092v546h546v-546h-546zM3003 1092v546h546v-546h-546zM0 1911v546h546
v-546h-546zM3003 1911v546h546v-546h-546zM546 2457v273h-273v273h273v273h273v-273h273v-273h-273v-273h-273zM2730 2457v273h-273v273h273v273h273v-273h273v-273h-273v-273h-273zM1092 3003v546h546v-546h-546zM1911 3003v546h546v-546h-546z" />
    <glyph glyph-name="uni25CD" unicode="&#x25cd;" horiz-adv-x="3822" 
d="M819 1092v1365h-273v-1365h273zM3003 1092v1365h-273v-1365h273zM1365 546v2457h-273v-2457h273zM1911 546v2457h-273v-2457h273zM2457 546v2457h-273v-2457h273zM1092 0v273h-546v273h-273v546h-273v1365h273v546h273v273h546v273h1365v-273h546v-273h273v-546h273
v-1365h-273v-546h-273v-273h-546v-273h-1365z" />
    <glyph glyph-name="uni25CE" unicode="&#x25ce;" horiz-adv-x="3822" 
d="M1365 1092v273h819v-273h-819zM1092 1365v819h273v-819h-273zM2184 1365v819h273v-819h-273zM1365 2184v273h819v-273h-819zM2457 546v273h273v273h273v1365h-273v273h-273v273h-1365v-273h-273v-273h-273v-1365h273v-273h273v-273h1365zM1092 0v273h-546v273h-273v546
h-273v1365h273v546h273v273h546v273h1365v-273h546v-273h273v-546h273v-1365h-273v-546h-273v-273h-546v-273h-1365z" />
    <glyph glyph-name="H18533" unicode="&#x25cf;" horiz-adv-x="3822" 
d="M1092 0v273h-546v273h-273v546h-273v1365h273v546h273v273h546v273h1365v-273h546v-273h273v-546h273v-1365h-273v-546h-273v-273h-546v-273h-1365z" />
    <glyph glyph-name="uni25D0" unicode="&#x25d0;" horiz-adv-x="3822" 
d="M2457 546v273h273v273h273v1365h-273v273h-273v273h-546v-2457h546zM1092 0v273h-546v273h-273v546h-273v1365h273v546h273v273h546v273h1365v-273h546v-273h273v-546h273v-1365h-273v-546h-273v-273h-546v-273h-1365z" />
    <glyph glyph-name="uni25D1" unicode="&#x25d1;" horiz-adv-x="3822" 
d="M1638 546v2457h-546v-273h-273v-273h-273v-1365h273v-273h273v-273h546zM1092 0v273h-546v273h-273v546h-273v1365h273v546h273v273h546v273h1365v-273h546v-273h273v-546h273v-1365h-273v-546h-273v-273h-546v-273h-1365z" />
    <glyph glyph-name="uni25D2" unicode="&#x25d2;" horiz-adv-x="3822" 
d="M3003 1911v546h-273v273h-273v273h-1365v-273h-273v-273h-273v-546h2457zM1092 0v273h-546v273h-273v546h-273v1365h273v546h273v273h546v273h1365v-273h546v-273h273v-546h273v-1365h-273v-546h-273v-273h-546v-273h-1365z" />
    <glyph glyph-name="uni25D3" unicode="&#x25d3;" horiz-adv-x="3822" 
d="M2457 546v273h273v273h273v546h-2457v-546h273v-273h273v-273h1365zM1092 0v273h-546v273h-273v546h-273v1365h273v546h273v273h546v273h1365v-273h546v-273h273v-546h273v-1365h-273v-546h-273v-273h-546v-273h-1365z" />
    <glyph glyph-name="uni25D4" unicode="&#x25d4;" horiz-adv-x="3822" 
d="M2457 546v273h273v273h273v546h-1365v1365h-546v-273h-273v-273h-273v-1365h273v-273h273v-273h1365zM1092 0v273h-546v273h-273v546h-273v1365h273v546h273v273h546v273h1365v-273h546v-273h273v-546h273v-1365h-273v-546h-273v-273h-546v-273h-1365z" />
    <glyph glyph-name="uni25D5" unicode="&#x25d5;" horiz-adv-x="3822" 
d="M1638 1911v1092h-546v-273h-273v-273h-273v-546h1092zM1092 0v273h-546v273h-273v546h-273v1365h273v546h273v273h546v273h1365v-273h546v-273h273v-546h273v-1365h-273v-546h-273v-273h-546v-273h-1365z" />
    <glyph glyph-name="uni25D6" unicode="&#x25d6;" 
d="M1092 0v273h-546v273h-273v546h-273v1365h273v546h273v273h546v273h819v-3549h-819z" />
    <glyph glyph-name="uni25D7" unicode="&#x25d7;" horiz-adv-x="3822" 
d="M1638 0v3549h819v-273h546v-273h273v-546h273v-1365h-273v-546h-273v-273h-546v-273h-819z" />
    <glyph glyph-name="uni25DC" unicode="&#x25dc;" horiz-adv-x="3822" 
d="M0 1638v819h273v546h273v273h546v273h819v-546h-819v-273h-273v-273h-273v-819h-546z" />
    <glyph glyph-name="uni25DD" unicode="&#x25dd;" horiz-adv-x="3822" 
d="M3003 1638v819h-273v273h-273v273h-819v546h819v-273h546v-273h273v-546h273v-819h-546z" />
    <glyph glyph-name="uni25DE" unicode="&#x25de;" horiz-adv-x="3822" 
d="M1638 0v546h819v273h273v273h273v819h546v-819h-273v-546h-273v-273h-546v-273h-819z" />
    <glyph glyph-name="uni25DF" unicode="&#x25df;" horiz-adv-x="3822" 
d="M1092 0v273h-546v273h-273v546h-273v819h546v-819h273v-273h273v-273h819v-546h-819z" />
    <glyph glyph-name="uni25E0" unicode="&#x25e0;" horiz-adv-x="3822" 
d="M0 1638v819h273v546h273v273h546v273h1365v-273h546v-273h273v-546h273v-819h-546v819h-273v273h-273v273h-1365v-273h-273v-273h-273v-819h-546z" />
    <glyph glyph-name="uni25E1" unicode="&#x25e1;" horiz-adv-x="3822" 
d="M1092 0v273h-546v273h-273v546h-273v819h546v-819h273v-273h273v-273h1365v273h273v273h273v819h546v-819h-273v-546h-273v-273h-546v-273h-1365z" />
    <glyph glyph-name="uni25E2" unicode="&#x25e2;" horiz-adv-x="3822" 
d="M1638 0v273h273v273h273v273h273v273h273v273h273v273h273v273h273v-1911h-1911z" />
    <glyph glyph-name="uni25E3" unicode="&#x25e3;" horiz-adv-x="3822" 
d="M0 0v1911h273v-273h273v-273h273v-273h273v-273h273v-273h273v-273h273v-273h-1911z" />
    <glyph glyph-name="uni25E4" unicode="&#x25e4;" horiz-adv-x="3822" 
d="M0 1638v1911h1911v-273h-273v-273h-273v-273h-273v-273h-273v-273h-273v-273h-273v-273h-273z" />
    <glyph glyph-name="uni25E5" unicode="&#x25e5;" horiz-adv-x="3822" 
d="M3276 1638v273h-273v273h-273v273h-273v273h-273v273h-273v273h-273v273h1911v-1911h-273z" />
    <glyph glyph-name="uni25E7" unicode="&#x25e7;" horiz-adv-x="3822" 
d="M3003 546v2457h-1365v-2457h1365zM0 0v3549h3549v-3549h-3549z" />
    <glyph glyph-name="uni25E8" unicode="&#x25e8;" horiz-adv-x="3822" 
d="M1911 546v2457h-1365v-2457h1365zM0 0v3549h3549v-3549h-3549z" />
    <glyph glyph-name="uni25E9" unicode="&#x25e9;" horiz-adv-x="3822" 
d="M3003 546v2457h-273v-273h-273v-273h-273v-273h-273v-273h-273v-273h-273v-273h-273v-273h-273v-273h-273v-273h2457zM0 0v3549h3549v-3549h-3549z" />
    <glyph glyph-name="uni25EA" unicode="&#x25ea;" horiz-adv-x="3822" 
d="M819 546v273h273v273h273v273h273v273h273v273h273v273h273v273h273v273h273v273h-2457v-2457h273zM0 0v3549h3549v-3549h-3549z" />
    <glyph glyph-name="uni25EB" unicode="&#x25eb;" horiz-adv-x="3822" 
d="M1638 546v2457h-1092v-2457h1092zM3003 546v2457h-1092v-2457h1092zM0 0v3549h3549v-3549h-3549z" />
    <glyph glyph-name="uni25EF" unicode="&#x25ef;" horiz-adv-x="4369" 
d="M3003 273v273h273v273h273v1911h-273v273h-273v273h-1911v-273h-273v-273h-273v-1911h273v-273h273v-273h1911zM1092 -273v273h-546v273h-273v546h-273v1911h273v546h273v273h546v273h1911v-273h546v-273h273v-546h274v-1911h-274v-546h-273v-273h-546v-273h-1911z" />
    <glyph glyph-name="uni25F0" unicode="&#x25f0;" horiz-adv-x="3822" 
d="M1638 1911v1092h-1092v-1092h1092zM3003 546v2457h-1092v-1365h-1365v-1092h2457zM0 0v3549h3549v-3549h-3549z" />
    <glyph glyph-name="uni25F1" unicode="&#x25f1;" horiz-adv-x="3822" 
d="M1638 546v1092h-1092v-1092h1092zM3003 546v2457h-2457v-1092h1365v-1365h1092zM0 0v3549h3549v-3549h-3549z" />
    <glyph glyph-name="uni25F2" unicode="&#x25f2;" horiz-adv-x="3822" 
d="M3003 546v1092h-1092v-1092h1092zM1638 546v1365h1365v1092h-2457v-2457h1092zM0 0v3549h3549v-3549h-3549z" />
    <glyph glyph-name="uni25F3" unicode="&#x25f3;" horiz-adv-x="3822" 
d="M3003 546v1092h-1365v1365h-1092v-2457h2457zM3003 1911v1092h-1092v-1092h1092zM0 0v3549h3549v-3549h-3549z" />
    <glyph glyph-name="uni25F4" unicode="&#x25f4;" horiz-adv-x="3822" 
d="M1638 1911v1092h-546v-273h-273v-273h-273v-546h1092zM2457 546v273h273v273h273v1365h-273v273h-273v273h-546v-1365h-1365v-546h273v-273h273v-273h1365zM1092 0v273h-546v273h-273v546h-273v1365h273v546h273v273h546v273h1365v-273h546v-273h273v-546h273v-1365h-273
v-546h-273v-273h-546v-273h-1365z" />
    <glyph glyph-name="uni25F5" unicode="&#x25f5;" horiz-adv-x="3822" 
d="M1638 546v1092h-1092v-546h273v-273h273v-273h546zM2457 546v273h273v273h273v1365h-273v273h-273v273h-1365v-273h-273v-273h-273v-546h1365v-1365h546zM1092 0v273h-546v273h-273v546h-273v1365h273v546h273v273h546v273h1365v-273h546v-273h273v-546h273v-1365h-273
v-546h-273v-273h-546v-273h-1365z" />
    <glyph glyph-name="uni25F6" unicode="&#x25f6;" horiz-adv-x="3822" 
d="M2457 546v273h273v273h273v546h-1092v-1092h546zM1638 546v1365h1365v546h-273v273h-273v273h-1365v-273h-273v-273h-273v-1365h273v-273h273v-273h546zM1092 0v273h-546v273h-273v546h-273v1365h273v546h273v273h546v273h1365v-273h546v-273h273v-546h273v-1365h-273
v-546h-273v-273h-546v-273h-1365z" />
    <glyph glyph-name="uni25F7" unicode="&#x25f7;" horiz-adv-x="3822" 
d="M2457 546v273h273v273h273v546h-1365v1365h-546v-273h-273v-273h-273v-1365h273v-273h273v-273h1365zM3003 1911v546h-273v273h-273v273h-546v-1092h1092zM1092 0v273h-546v273h-273v546h-273v1365h273v546h273v273h546v273h1365v-273h546v-273h273v-546h273v-1365h-273
v-546h-273v-273h-546v-273h-1365z" />
    <glyph glyph-name="uni25F8" unicode="&#x25f8;" horiz-adv-x="3822" 
d="M546 2184v273h273v-273h-273zM819 2457v273h273v-273h-273zM1092 2730v273h273v-273h-273zM0 1638v1911h1911v-273h-273v-273h-273v273h-1092v-1092h273v-273h-273v-273h-273z" />
    <glyph glyph-name="uni25F9" unicode="&#x25f9;" horiz-adv-x="3822" 
d="M2730 2184v273h273v-273h-273zM2457 2457v273h273v-273h-273zM2184 2730v273h273v-273h-273zM3276 1638v273h-273v273h273v1092h-1092v-273h-273v273h-273v273h1911v-1911h-273z" />
    <glyph glyph-name="uni25FA" unicode="&#x25fa;" horiz-adv-x="3822" 
d="M1092 546v273h273v-273h-273zM819 819v273h273v-273h-273zM546 1092v273h273v-273h-273zM0 0v1911h273v-273h273v-273h-273v-1092h1092v273h273v-273h273v-273h-1911z" />
    <glyph glyph-name="uni25FB" unicode="&#x25fb;" horiz-adv-x="3276" 
d="M2457 819v1911h-1911v-1911h1911zM0 273v3003h3003v-3003h-3003z" />
    <glyph glyph-name="uni25FC" unicode="&#x25fc;" horiz-adv-x="3276" 
d="M0 273v3003h3003v-3003h-3003z" />
    <glyph glyph-name="uni25FD" unicode="&#x25fd;" horiz-adv-x="2730" 
d="M1911 1092v1365h-1365v-1365h1365zM0 546v2457h2457v-2457h-2457z" />
    <glyph glyph-name="uni25FE" unicode="&#x25fe;" horiz-adv-x="2730" 
d="M0 546v2457h2457v-2457h-2457z" />
    <glyph glyph-name="uni25FF" unicode="&#x25ff;" horiz-adv-x="3822" 
d="M2184 546v273h273v-273h-273zM2457 819v273h273v-273h-273zM2730 1092v273h273v-273h-273zM1638 0v273h273v273h273v-273h1092v1092h-273v273h273v273h273v-1911h-1911z" />
    <glyph glyph-name="uni261A" unicode="&#x261a;" horiz-adv-x="4369" 
d="M2184 0v546h-273v273h-273v546h-273v546h-273v273h-273v546h-273v546h546v-273h546v-273h273v-273h546v-273h273v-273h546v-273h546v-273h-1365v-1365h-273z" />
    <glyph glyph-name="uni261B" unicode="&#x261b;" horiz-adv-x="4369" 
d="M1911 0v1365h-1365v273h546v273h546v273h273v273h546v273h273v273h546v273h546v-546h-273v-546h-273v-273h-273v-546h-273v-546h-273v-273h-273v-546h-273z" />
    <glyph glyph-name="uni261C" unicode="&#x261c;" horiz-adv-x="4369" 
d="M546 0v546h273v546h273v273h273v546h273v546h273v273h273v546h273v-1365h1365v-273h-546v-273h-546v-273h-273v-273h-546v-273h-273v-273h-546v-273h-546z" />
    <glyph glyph-name="uni261E" unicode="&#x261e;" horiz-adv-x="4369" 
d="M3276 0v273h-546v273h-273v273h-546v273h-546v273h-273v273h-546v273h1365v1365h273v-546h273v-546h273v-273h273v-546h273v-273h273v-546h273v-546h-546z" />
    <glyph glyph-name="uni2625" unicode="&#x2625;" horiz-adv-x="2457" 
d="M1365 1638v273h273v819h-273v273h-546v-273h-273v-819h273v-273h546zM819 0v819h-819v546h546v273h-273v273h-273v1092h273v273h273v273h1092v-273h273v-273h273v-1092h-273v-273h-273v-273h546v-546h-819v-819h-546z" />
    <glyph glyph-name="uni2B12" unicode="&#x2b12;" horiz-adv-x="3822" 
d="M3003 1638v1365h-2457v-1365h2457zM0 0v3549h3549v-3549h-3549z" />
    <glyph glyph-name="uni2B13" unicode="&#x2b13;" horiz-adv-x="3822" 
d="M3003 546v1365h-2457v-1365h2457zM0 0v3549h3549v-3549h-3549z" />
    <glyph glyph-name="uni2B14" unicode="&#x2b14;" horiz-adv-x="3822" 
d="M3003 546v273h-273v273h-273v273h-273v273h-273v273h-273v273h-273v273h-273v273h-273v273h-273v-2457h2457zM0 0v3549h3549v-3549h-3549z" />
    <glyph glyph-name="uni2B15" unicode="&#x2b15;" horiz-adv-x="3822" 
d="M3003 546v2457h-2457v-273h273v-273h273v-273h273v-273h273v-273h273v-273h273v-273h273v-273h273v-273h273zM0 0v3549h3549v-3549h-3549z" />
    <glyph glyph-name="uni2B16" unicode="&#x2b16;" horiz-adv-x="3822" 
d="M2184 819v273h273v273h273v273h273v273h-273v273h-273v273h-273v273h-273v-1911h273zM1638 0v273h-273v273h-273v273h-273v273h-273v273h-273v273h-273v273h273v273h273v273h273v273h273v273h273v273h273v273h273v-273h273v-273h273v-273h273v-273h273v-273h273v-273h273
v-273h-273v-273h-273v-273h-273v-273h-273v-273h-273v-273h-273v-273h-273z" />
    <glyph glyph-name="uni2B17" unicode="&#x2b17;" horiz-adv-x="3822" 
d="M1638 819v1911h-273v-273h-273v-273h-273v-273h-273v-273h273v-273h273v-273h273v-273h273zM1638 0v273h-273v273h-273v273h-273v273h-273v273h-273v273h-273v273h273v273h273v273h273v273h273v273h273v273h273v273h273v-273h273v-273h273v-273h273v-273h273v-273h273
v-273h273v-273h-273v-273h-273v-273h-273v-273h-273v-273h-273v-273h-273v-273h-273z" />
    <glyph glyph-name="uni2B18" unicode="&#x2b18;" horiz-adv-x="3822" 
d="M1911 546v273h273v273h273v273h273v273h-1911v-273h273v-273h273v-273h273v-273h273zM1638 0v273h-273v273h-273v273h-273v273h-273v273h-273v273h-273v273h273v273h273v273h273v273h273v273h273v273h273v273h273v-273h273v-273h273v-273h273v-273h273v-273h273v-273h273
v-273h-273v-273h-273v-273h-273v-273h-273v-273h-273v-273h-273v-273h-273z" />
    <glyph glyph-name="uni2B19" unicode="&#x2b19;" horiz-adv-x="3822" 
d="M2730 1911v273h-273v273h-273v273h-273v273h-273v-273h-273v-273h-273v-273h-273v-273h1911zM1638 0v273h-273v273h-273v273h-273v273h-273v273h-273v273h-273v273h273v273h273v273h273v273h273v273h273v273h273v273h273v-273h273v-273h273v-273h273v-273h273v-273h273
v-273h273v-273h-273v-273h-273v-273h-273v-273h-273v-273h-273v-273h-273v-273h-273z" />
    <glyph glyph-name="uni2B1A" unicode="&#x2b1a;" horiz-adv-x="3822" 
d="M1092 0v546h546v-546h-546zM1911 0v546h546v-546h-546zM0 0v819h546v-273h273v-546h-819zM2730 0v546h273v273h546v-819h-819zM0 1092v546h546v-546h-546zM3003 1092v546h546v-546h-546zM0 1911v546h546v-546h-546zM3003 1911v546h546v-546h-546zM0 2730v819h819v-546
h-273v-273h-546zM1092 3003v546h546v-546h-546zM1911 3003v546h546v-546h-546zM3003 2730v273h-273v546h819v-819h-546z" />
    <glyph glyph-name="uni2B1B" unicode="&#x2b1b;" horiz-adv-x="4369" 
d="M0 -273v4095h4096v-4095h-4096z" />
    <glyph glyph-name="uni2B1C" unicode="&#x2b1c;" horiz-adv-x="4369" 
d="M3549 273v3003h-3003v-3003h3003zM0 -273v4095h4096v-4095h-4096z" />
    <glyph glyph-name="uni3001" unicode="&#x3001;" horiz-adv-x="4369" 
d="M1092 0v273h-273v273h819v-273h-273v-273h-273zM546 546v273h273v-273h-273z" />
    <glyph glyph-name="uni3002" unicode="&#x3002;" horiz-adv-x="4369" 
d="M819 0v273h546v-273h-546zM546 273v273h273v-273h-273zM1365 273v273h273v-273h-273zM819 546v273h546v-273h-546z" />
    <glyph glyph-name="uni3008" unicode="&#x3008;" horiz-adv-x="4369" 
d="M2457 0v546h273v-546h-273zM2184 546v819h273v-819h-273zM1911 1365v819h273v-819h-273zM2184 2184v819h273v-819h-273zM2457 3003v546h273v-546h-273z" />
    <glyph glyph-name="uni3009" unicode="&#x3009;" horiz-adv-x="4369" 
d="M1638 0v546h273v-546h-273zM1911 546v819h273v-819h-273zM2184 1365v819h273v-819h-273zM1911 2184v819h273v-819h-273zM1638 3003v546h273v-546h-273z" />
    <glyph glyph-name="uni300A" unicode="&#x300a;" horiz-adv-x="4369" 
d="M1638 0v546h273v-546h-273zM2457 0v546h273v-546h-273zM1365 546v819h273v-819h-273zM2184 546v819h273v-819h-273zM1092 1365v819h273v-819h-273zM1911 1365v819h273v-819h-273zM1365 2184v819h273v-819h-273zM2184 2184v819h273v-819h-273zM1638 3003v546h273v-546
h-273zM2457 3003v546h273v-546h-273z" />
    <glyph glyph-name="uni300B" unicode="&#x300b;" horiz-adv-x="4369" 
d="M1638 0v546h273v-546h-273zM2457 0v546h273v-546h-273zM1911 546v819h273v-819h-273zM2730 546v819h273v-819h-273zM2184 1365v819h273v-819h-273zM3003 1365v819h273v-819h-273zM1911 2184v819h273v-819h-273zM2730 2184v819h273v-819h-273zM1638 3003v546h273v-546
h-273zM2457 3003v546h273v-546h-273z" />
    <glyph glyph-name="uni300C" unicode="&#x300c;" horiz-adv-x="4369" 
d="M2457 273v3003h1639v-273h-1366v-2730h-273z" />
    <glyph glyph-name="uni300D" unicode="&#x300d;" horiz-adv-x="4369" 
d="M273 0v273h1365v2730h273v-3003h-1638z" />
    <glyph glyph-name="uni300E" unicode="&#x300e;" horiz-adv-x="4369" 
d="M2730 273v2457h1092v273h-1365v-2730h273zM2184 0v3276h1912v-819h-1093v-2457h-819z" />
    <glyph glyph-name="uni300F" unicode="&#x300f;" horiz-adv-x="4369" 
d="M1911 273v2730h-273v-2457h-1092v-273h1365zM273 0v819h1092v2457h819v-3276h-1911z" />
    <glyph glyph-name="uni3010" unicode="&#x3010;" horiz-adv-x="4369" 
d="M2730 0v3549h1366v-273h-274v-273h-273v-546h-273v-1365h273v-546h273v-273h274v-273h-1366z" />
    <glyph glyph-name="uni3011" unicode="&#x3011;" horiz-adv-x="4369" 
d="M273 0v273h273v273h273v546h273v1365h-273v546h-273v273h-273v273h1365v-3549h-1365z" />
    <glyph glyph-name="uni3041" unicode="&#x3041;" horiz-adv-x="4369" 
d="M1092 273v273h546v-273h-546zM1911 273v273h273v-273h-273zM2730 273v273h546v-273h-546zM1638 546v273h273v-273h-273zM819 546v546h273v-546h-273zM3276 546v546h273v-546h-273zM3003 1092v273h273v-273h-273zM2184 546v819h-546v-546h-273v273h-273v273h273v546h-546
v273h819v-546h546v273h273v-273h546v-273h-546v-819h-273zM1638 2184v273h1365v-273h-1365zM1365 2457v273h273v-273h-273z" />
    <glyph glyph-name="uni3042" unicode="&#x3042;" horiz-adv-x="4369" 
d="M819 273v273h819v-273h-819zM1911 273v273h273v-273h-273zM2730 273v273h546v-273h-546zM3276 546v273h273v-273h-273zM546 546v546h273v-546h-273zM1638 546v546h546v-273h-273v-273h-273zM819 1092v273h273v-273h-273zM3549 819v546h273v-546h-273zM3276 1365v273h273
v-273h-273zM546 2184v273h273v-273h-273zM1365 1092v273h-273v273h273v819h-546v273h819v546h273v-546h1365v-273h-273v-273h-273v273h-1092v-546h546v273h273v-273h819v-273h-819v-546h-273v546h-546v-546h-273z" />
    <glyph glyph-name="uni3043" unicode="&#x3043;" horiz-adv-x="4369" 
d="M1092 273v546h546v-273h-273v-273h-273zM3003 819v546h273v-273h273v-273h-546zM819 819v819h273v-819h-273zM2730 1365v273h273v-273h-273zM1092 1638v546h273v-546h-273zM819 2184v273h273v-273h-273z" />
    <glyph glyph-name="uni3044" unicode="&#x3044;" horiz-adv-x="4369" 
d="M1092 273v273h-273v546h273v-273h546v-273h-273v-273h-273zM1638 819v273h273v-273h-273zM3549 819v273h-273v546h273v-273h273v-546h-273zM3003 1638v546h273v-546h-273zM546 1092v1365h-273v273h546v-1638h-273z" />
    <glyph glyph-name="uni3045" unicode="&#x3045;" horiz-adv-x="4369" 
d="M1365 273v273h-273v273h819v273h546v-273h-273v-273h-546v-273h-273zM2457 1092v273h273v-273h-273zM1092 1638v273h546v-273h-546zM2730 1365v546h273v-546h-273zM1638 1911v273h1092v-273h-1092zM1911 2457v273h546v-273h-546zM1365 2730v273h546v-273h-546z" />
    <glyph glyph-name="uni3046" unicode="&#x3046;" horiz-adv-x="4369" 
d="M1365 273v273h-273v273h1365v273h273v273h273v-546h-273v-273h-546v-273h-819zM1092 1638v546h546v-273h-273v-273h-273zM3003 1365v819h273v-819h-273zM1638 2184v273h1365v-273h-1365zM2457 2730v273h546v-273h-546zM1365 2730v546h1092v-273h-819v-273h-273z" />
    <glyph glyph-name="uni3047" unicode="&#x3047;" horiz-adv-x="4369" 
d="M819 546v273h546v-273h-546zM2184 273v273h1092v273h273v-546h-1365zM1365 819v273h273v-273h-273zM1911 546v546h273v-546h-273zM1638 1092v273h273v-273h-273zM2184 1092v273h273v-273h-273zM1911 1365v273h273v-273h-273zM819 1638v273h819v-273h-819zM1092 2184v273
h546v-273h-546zM2184 1638v273h-546v273h546v273h273v-273h273v-273h-273v-273h-273zM1638 2457v273h546v-273h-546z" />
    <glyph glyph-name="uni3048" unicode="&#x3048;" horiz-adv-x="4369" 
d="M2184 273v273h1092v273h546v-273h-273v-273h-1365zM546 273v546h273v273h273v273h273v273h546v-273h273v-819h-273v546h-546v-273h-273v-273h-273v-273h-273zM1911 1638v273h273v-273h-273zM546 1911v546h273v-273h546v-273h-819zM2184 1911v273h-819v273h1365v-273h-273
v-273h-273zM2184 2730v273h546v-273h-546zM1092 2730v546h1092v-273h-819v-273h-273z" />
    <glyph glyph-name="uni3049" unicode="&#x3049;" horiz-adv-x="4369" 
d="M1092 273v273h273v-273h-273zM2184 273v273h819v-273h-819zM1365 546v273h273v-273h-273zM819 546v546h273v-546h-273zM3003 546v546h273v-546h-273zM1092 1092v273h273v-273h-273zM2730 1092v273h273v-273h-273zM819 1911v273h273v-273h-273zM3003 1638v546h546v-273
h-273v-273h-273zM2730 2184v273h273v-273h-273zM1638 819v546h-273v273h273v546h-546v273h546v273h273v-273h546v-273h-546v-546h819v-273h-819v-546h-273z" />
    <glyph glyph-name="uni304A" unicode="&#x304a;" horiz-adv-x="4369" 
d="M2457 273v273h546v-273h-546zM819 546v273h273v-273h-273zM3003 546v273h273v-273h-273zM546 819v273h273v-273h-273zM819 1092v273h273v-273h-273zM3276 819v546h273v-546h-273zM3003 1365v273h273v-273h-273zM546 2184v273h273v-273h-273zM3276 2184v273h-273v546h273
v-273h546v-273h-273v-273h-273zM1092 273v273h273v819h-273v273h273v819h-546v273h546v546h273v-546h273v273h546v-273h-273v-273h-546v-546h1365v-273h-1365v-1365h-546zM2730 3003v273h273v-273h-273z" />
    <glyph glyph-name="uni304B" unicode="&#x304b;" horiz-adv-x="4369" 
d="M1911 273v273h273v273h273v-546h-546zM273 546v273h273v273h546v-273h-273v-273h-546zM1092 1092v273h273v-273h-273zM2457 819v546h273v-546h-273zM1365 1365v546h273v-546h-273zM546 1911v273h273v-273h-273zM2730 1365v819h273v-819h-273zM3549 1638v273h-273v546h273
v-273h547v-273h-274v-273h-273zM3003 2457v273h273v-273h-273zM1638 1911v273h-819v273h1092v546h273v-546h546v-273h-819v-273h-273zM1638 3003v273h273v-273h-273z" />
    <glyph glyph-name="uni304C" unicode="&#x304c;" horiz-adv-x="4369" 
d="M273 546v273h273v273h546v-273h-273v-273h-546zM1092 1092v273h273v-273h-273zM1365 1365v546h273v-546h-273zM546 1911v273h273v-273h-273zM1638 273v273h273v273h273v546h273v819h273v-1092h-273v-546h-273v-273h-546zM3549 1365v273h-273v546h273v-273h547v-273h-274
v-273h-273zM3003 2184v273h273v-273h-273zM1638 1911v273h-819v273h1092v546h273v-546h273v-273h-546v-273h-273zM1638 3003v273h273v-273h-273zM2730 2730v546h273v-273h273v-273h-546zM3276 3003v546h273v-273h273v-273h-546z" />
    <glyph glyph-name="uni304D" unicode="&#x304d;" horiz-adv-x="4369" 
d="M1638 273v273h1092v-273h-1092zM1092 546v273h546v-273h-546zM819 819v273h273v-273h-273zM2184 1092v273h546v273h273v-273h273v-273h-1092zM1092 1638v273h546v-273h-546zM2457 1638v273h-819v273h546v273h-819v-273h-546v273h273v273h819v273h273v-273h1092v-273h-819
v-273h1092v-273h-819v-273h-273zM1365 3003v273h546v-273h-546z" />
    <glyph glyph-name="uni304E" unicode="&#x304e;" horiz-adv-x="4369" 
d="M1638 273v273h1092v-273h-1092zM1092 546v273h546v-273h-546zM819 819v273h273v-273h-273zM2184 1092v273h546v273h273v-273h273v-273h-1092zM1092 1638v273h546v-273h-546zM1365 3003v273h546v-273h-546zM2457 1638v273h-819v273h546v273h-819v-273h-546v273h273v273
h819v273h273v-273h546v546h273v-273h273v-546h-819v-273h1092v-273h-819v-273h-273zM3276 3003v546h273v-273h273v-273h-546z" />
    <glyph glyph-name="uni304F" unicode="&#x304f;" horiz-adv-x="4369" 
d="M1911 273v546h273v-273h273v-273h-546zM1638 819v273h273v-273h-273zM1365 1092v273h273v-273h-273zM1092 1365v546h273v-546h-273zM1365 1911v273h273v-273h-273zM1638 2184v273h273v-273h-273zM1911 2457v546h273v273h273v-546h-273v-273h-273z" />
    <glyph glyph-name="uni3050" unicode="&#x3050;" horiz-adv-x="4369" 
d="M1911 273v546h273v-273h273v-273h-546zM1638 819v273h273v-273h-273zM1365 1092v273h273v-273h-273zM1092 1365v546h273v-546h-273zM1365 1911v273h273v-273h-273zM1638 2184v273h273v-273h-273zM2730 2184v546h273v-273h273v-273h-546zM3276 2457v546h273v-273h273v-273
h-546zM1911 2457v546h273v273h273v-546h-273v-273h-273z" />
    <glyph glyph-name="uni3051" unicode="&#x3051;" horiz-adv-x="4369" 
d="M1911 273v273h546v-273h-546zM819 546v273h273v-273h-273zM2457 546v273h273v-273h-273zM1092 819v546h273v-546h-273zM546 819v1638h273v-1638h-273zM1638 2184v273h273v-273h-273zM819 2457v546h273v-546h-273zM2730 819v1638h-819v273h819v273h273v-273h819v-273h-273
v-273h-273v273h-273v-1638h-273zM546 3003v273h273v-273h-273zM2457 3003v273h273v-273h-273z" />
    <glyph glyph-name="uni3052" unicode="&#x3052;" horiz-adv-x="4369" 
d="M1638 273v273h546v-273h-546zM546 546v273h273v-273h-273zM2184 546v273h273v-273h-273zM819 819v546h273v-546h-273zM273 819v1638h273v-1638h-273zM1365 2184v273h273v-273h-273zM546 2457v546h273v-546h-273zM273 3003v273h273v-273h-273zM2184 3003v273h273v-273
h-273zM2457 819v1638h-819v273h819v273h273v-273h273v546h273v-273h273v-546h-273v-273h-273v273h-273v-1638h-273zM3549 3003v546h273v-273h274v-273h-547z" />
    <glyph glyph-name="uni3053" unicode="&#x3053;" horiz-adv-x="4369" 
d="M1092 546v273h-273v273h546v-273h1638v273h546v-273h-273v-273h-2184zM546 1092v273h273v-273h-273zM2457 2457v273h-1365v273h1638v-273h273v-273h-546z" />
    <glyph glyph-name="uni3054" unicode="&#x3054;" horiz-adv-x="4369" 
d="M1092 546v273h1638v273h546v-273h-273v-273h-1911zM819 819v546h273v-546h-273zM2457 2457v273h273v-273h-273zM1092 2730v273h1365v-273h-1365zM2730 2730v546h273v-273h273v-273h-546zM3276 3003v546h273v-273h273v-273h-546z" />
    <glyph glyph-name="uni3055" unicode="&#x3055;" horiz-adv-x="4369" 
d="M1092 273v273h1911v-273h-1911zM819 546v273h273v-273h-273zM546 819v546h273v-546h-273zM2184 1365v273h546v273h273v-273h273v-273h-1092zM2457 1911v273h273v-273h-273zM819 2184v273h273v-273h-273zM2184 2184v273h-1092v273h1092v273h273v-273h1092v-273h-1092v-273
h-273zM1911 3003v273h273v-273h-273z" />
    <glyph glyph-name="uni3056" unicode="&#x3056;" horiz-adv-x="4369" 
d="M1365 273v273h1638v-273h-1638zM1092 546v273h273v-273h-273zM819 819v546h273v-546h-273zM2184 1365v273h273v273h273v-273h273v-273h-819zM819 2184v273h273v-273h-273zM1911 3003v273h273v-273h-273zM2184 1911v546h-1092v273h1092v273h273v-273h273v546h273v-273h273
v-273h273v-273h-1092v-546h-273zM3276 3003v546h273v-273h273v-273h-546z" />
    <glyph glyph-name="uni3057" unicode="&#x3057;" horiz-adv-x="4369" 
d="M1638 273v273h819v-273h-819zM1365 546v273h273v-273h-273zM2457 546v273h546v-273h-546zM3003 819v273h273v-273h-273zM3276 1092v273h273v-273h-273zM1092 819v2457h273v-273h273v-273h-273v-1911h-273z" />
    <glyph glyph-name="uni3058" unicode="&#x3058;" horiz-adv-x="4369" 
d="M1638 273v273h819v-273h-819zM1365 546v273h273v-273h-273zM2457 546v273h546v-273h-546zM3003 819v273h273v-273h-273zM3276 1092v273h273v-273h-273zM2184 2457v546h273v-273h273v-273h-546zM1092 819v2457h273v-273h273v-273h-273v-1911h-273zM2730 2730v546h273v-273
h273v-273h-546z" />
    <glyph glyph-name="uni3059" unicode="&#x3059;" horiz-adv-x="4369" 
d="M1092 273v273h546v273h273v273h273v-546h-273v-273h-819zM1638 1638v546h273v-546h-273zM273 2457v273h273v-273h-273zM2184 1092v273h-273v273h273v546h-273v273h273v273h-1638v273h1638v273h273v-273h1639v-273h-274v-273h-546v273h-819v-1638h-273zM1911 3276v273h273
v-273h-273z" />
    <glyph glyph-name="uni305A" unicode="&#x305a;" horiz-adv-x="4369" 
d="M1092 273v273h546v273h546v-273h-273v-273h-819zM1638 1365v546h273v-546h-273zM273 2184v273h273v-273h-273zM1911 3276v273h273v-273h-273zM2184 819v273h-273v273h273v546h-273v273h273v273h-1638v273h1638v546h273v-546h546v273h-273v273h546v273h273v-273h273v-273
h-546v-273h273v-273h273v-273h-546v273h-819v-1638h-273z" />
    <glyph glyph-name="uni305B" unicode="&#x305b;" horiz-adv-x="4369" 
d="M2184 273v273h-546v273h1638v-273h-273v-273h-819zM2184 1365v273h273v-273h-273zM273 1638v273h546v-273h-546zM1092 2730v273h273v-273h-273zM1365 819v1092h-546v273h546v546h273v-546h819v819h273v-819h1092v-273h-273v-273h-273v273h-546v-273h-273v273h-819v-1092
h-273zM2184 3003v273h273v-273h-273z" />
    <glyph glyph-name="uni305C" unicode="&#x305c;" horiz-adv-x="4369" 
d="M2184 273v273h-546v273h1638v-273h-273v-273h-819zM2184 1365v273h273v-273h-273zM273 1638v273h546v-273h-546zM1092 2730v273h273v-273h-273zM1365 819v1092h-546v273h546v546h273v-546h819v819h273v-819h1092v-273h-273v-273h-273v273h-546v-273h-273v273h-819v-1092
h-273zM2184 3003v273h273v-273h-273zM3003 2730v273h-273v273h546v273h273v-273h273v-273h-546v-273h-273z" />
    <glyph glyph-name="uni305D" unicode="&#x305d;" horiz-adv-x="4369" 
d="M2457 273v273h-546v273h1365v-273h-273v-273h-546zM1638 819v819h273v-819h-273zM546 1638v273h273v-273h-273zM1911 1638v273h-1092v273h1092v273h273v-273h1638v-273h-273v-273h-273v273h-1092v-273h-273zM2184 2457v273h273v-273h-273zM1092 2457v546h273v-273h273
v-273h-546zM1638 2730v273h273v-273h-273zM2457 2730v546h546v-273h-273v-273h-273z" />
    <glyph glyph-name="uni305E" unicode="&#x305e;" horiz-adv-x="4369" 
d="M2184 273v273h-546v273h1365v-273h-273v-273h-546zM1365 819v819h273v-819h-273zM273 1638v273h273v-273h-273zM1638 1638v273h-1092v273h1092v273h273v-273h1638v-273h-273v-273h-273v273h-1092v-273h-273zM819 2457v546h273v-273h273v-273h-546zM1365 2730v273h273
v-273h-273zM1911 2457v546h273v273h273v-546h-273v-273h-273zM2730 2730v546h273v-273h273v-273h-546zM3276 3003v546h273v-273h273v-273h-546z" />
    <glyph glyph-name="uni305F" unicode="&#x305f;" horiz-adv-x="4369" 
d="M2184 273v273h1365v-273h-1365zM1911 546v273h273v-273h-273zM273 546v273h273v273h273v273h273v273h273v-546h-273v-273h-273v-273h-546zM3003 1638v273h-819v273h1092v-273h273v-273h-546zM546 2184v273h273v-273h-273zM1365 1638v819h-546v273h819v273h273v-273h546
v273h546v-273h-273v-273h-1092v-819h-273zM1365 3003v273h273v-273h-273z" />
    <glyph glyph-name="uni3060" unicode="&#x3060;" horiz-adv-x="4369" 
d="M1911 273v273h1365v-273h-1365zM1638 546v273h273v-273h-273zM0 546v273h273v273h273v273h273v273h273v-546h-273v-273h-273v-273h-546zM2730 1638v273h-819v273h1092v-273h273v-273h-546zM273 2184v273h273v-273h-273zM1092 1638v819h-546v273h819v273h273v-273h546v273
h819v-273h273v-273h-546v273h-273v-273h-1092v-819h-273zM1092 3003v273h273v-273h-273zM3276 2730v546h273v-273h273v-273h-546z" />
    <glyph glyph-name="uni3061" unicode="&#x3061;" horiz-adv-x="4369" 
d="M1638 273v273h1365v-273h-1365zM3003 546v273h273v-273h-273zM3276 819v546h273v-546h-273zM3003 1365v273h273v-273h-273zM1365 1092v819h273v-273h546v-273h-273v-273h-546zM2184 1638v273h819v-273h-819zM546 2184v273h273v-273h-273zM1638 1911v546h-819v273h819v273
h273v-273h1911v-273h-273v-273h-546v273h-1092v-546h-273zM1365 3003v273h273v-273h-273z" />
    <glyph glyph-name="uni3062" unicode="&#x3062;" horiz-adv-x="4369" 
d="M1365 273v273h1365v-273h-1365zM2730 546v273h273v-273h-273zM3003 819v546h273v-546h-273zM2730 1365v273h273v-273h-273zM1092 1092v819h273v-273h546v-273h-273v-273h-546zM1911 1638v273h819v-273h-819zM273 2184v273h273v-273h-273zM1092 3003v273h273v-273h-273z
M1365 1911v546h-819v273h819v273h273v-273h1365v273h-273v273h546v273h273v-273h273v-273h-546v-546h-273v-273h-273v273h-1092v-546h-273z" />
    <glyph glyph-name="uni3063" unicode="&#x3063;" horiz-adv-x="4369" 
d="M2184 273v273h546v-273h-546zM2730 546v273h546v-273h-546zM3276 819v819h273v-819h-273zM819 1365v546h819v-273h-546v-273h-273zM3003 1638v273h273v-273h-273zM1638 1911v273h1365v-273h-1365z" />
    <glyph glyph-name="uni3064" unicode="&#x3064;" horiz-adv-x="4369" 
d="M2184 546v273h-273v273h1092v-273h-546v-273h-273zM3003 1092v273h546v-273h-546zM3549 1365v819h273v-819h-273zM546 1911v273h-273v273h1092v-273h-546v-273h-273zM3276 2184v273h273v-273h-273zM1365 2457v273h1911v-273h-1911z" />
    <glyph glyph-name="uni3065" unicode="&#x3065;" horiz-adv-x="4369" 
d="M1911 273v273h-273v273h1092v-273h-546v-273h-273zM2730 819v273h546v-273h-546zM3276 1092v819h273v-819h-273zM546 1638v273h-273v273h819v-273h-273v-273h-273zM3003 1911v273h273v-273h-273zM1092 2184v273h1911v-273h-1911zM3003 2457v546h273v-273h273v-273h-546z
M3549 2730v546h273v-273h274v-273h-547z" />
    <glyph glyph-name="uni3066" unicode="&#x3066;" horiz-adv-x="4369" 
d="M2730 273v273h-546v273h1365v-273h-273v-273h-546zM1911 819v273h273v-273h-273zM1638 1092v819h273v-819h-273zM1911 1911v546h273v-546h-273zM546 2457v273h546v-273h-546zM2184 2457v273h-1092v273h2730v-273h-273v-273h-273v273h-819v-273h-273z" />
    <glyph glyph-name="uni3067" unicode="&#x3067;" horiz-adv-x="4369" 
d="M2184 273v273h-546v273h1365v-273h-273v-273h-546zM1365 819v273h273v-273h-273zM1092 1092v819h273v-819h-273zM2457 1638v546h273v-273h273v-273h-546zM1365 1911v546h273v-546h-273zM3003 1911v546h273v-273h273v-273h-546zM0 2457v273h546v-273h-546zM1638 2457v273
h-1092v273h2730v-273h-273v-273h-273v273h-819v-273h-273z" />
    <glyph glyph-name="uni3068" unicode="&#x3068;" horiz-adv-x="4369" 
d="M1092 546v273h546v-273h-546zM1638 273v273h1365v273h546v-273h-273v-273h-1638zM819 819v546h273v-546h-273zM1092 1365v273h273v-273h-273zM2730 2184v273h546v-273h-546zM1365 1638v273h273v1092h273v-819h819v-273h-819v-273h-546zM1365 3003v273h273v-273h-273z" />
    <glyph glyph-name="uni3069" unicode="&#x3069;" horiz-adv-x="4369" 
d="M1365 0v273h-546v273h2184v-273h-546v-273h-1092zM546 546v273h273v-273h-273zM273 819v546h273v-546h-273zM546 1365v273h273v-273h-273zM2184 2184v273h546v-273h-546zM819 1638v273h273v1092h273v-819h819v-273h-819v-273h-546zM819 3003v273h273v-273h-273z
M2457 2730v546h273v-273h273v-273h-546zM3003 3003v546h273v-273h273v-273h-546z" />
    <glyph glyph-name="uni306A" unicode="&#x306a;" horiz-adv-x="4369" 
d="M1638 273v546h273v-273h546v-273h-819zM273 819v273h273v273h273v273h273v273h273v-546h-273v-273h-273v-273h-546zM3003 273v273h-546v273h-546v273h546v819h273v-1092h546v-273h273v-273h-546zM546 2184v273h273v-273h-273zM3276 1638v273h-273v546h273v-273h273v-546
h-273zM1365 1911v546h-546v273h819v273h273v-273h546v-273h-819v-546h-273zM1365 3003v273h273v-273h-273z" />
    <glyph glyph-name="uni306B" unicode="&#x306b;" horiz-adv-x="4369" 
d="M1092 273v273h273v-273h-273zM819 546v273h273v-273h-273zM1365 546v546h273v-546h-273zM2730 273v273h-546v273h-273v546h273v-273h273v-273h1365v-273h-273v-273h-819zM546 819v1092h273v-1092h-273zM3276 2184v273h-1365v273h1638v-273h273v-273h-546zM819 1911v1092
h273v-273h273v-546h-273v-273h-273z" />
    <glyph glyph-name="uni306C" unicode="&#x306c;" horiz-adv-x="4369" 
d="M546 273v273h546v-273h-546zM1638 273v273h273v-273h-273zM2457 273v273h546v-273h-546zM2184 546v273h273v-273h-273zM273 546v546h273v-546h-273zM3276 273v273h-273v273h-546v273h819v-273h546v-273h-273v-273h-273zM546 1092v273h273v-273h-273zM1092 1092v273h273
v-273h-273zM3276 1092v273h273v-273h-273zM1092 546v273h273v273h273v546h273v-819h-273v-273h-546zM819 1365v546h546v-273h-273v-273h-273zM546 1911v546h273v-546h-273zM3549 1365v546h-273v273h-1092v-546h-273v273h-546v273h546v546h273v-273h1365v-273h273v-819h-273z
M1638 2730v273h273v-273h-273z" />
    <glyph glyph-name="uni306D" unicode="&#x306d;" horiz-adv-x="4369" 
d="M2184 273v273h546v-273h-546zM1911 546v273h273v-273h-273zM3276 273v273h-546v273h-546v273h819v273h273v-546h546v-273h-273v-273h-273zM273 1638v273h273v-273h-273zM3276 1365v546h-273v273h-819v273h1092v-273h273v-819h-273zM1365 0v273h-273v273h273v546h-273
v-273h-273v-273h-273v546h273v273h273v273h273v273h-819v273h819v819h273v-819h546v-273h-273v-273h-273v-1638h-273zM1092 3003v273h273v-273h-273z" />
    <glyph glyph-name="uni306E" unicode="&#x306e;" horiz-adv-x="4369" 
d="M546 273v546h546v-273h-273v-273h-273zM1092 819v273h273v-273h-273zM1365 1092v546h273v-546h-273zM273 819v1092h273v-1092h-273zM1638 1638v546h273v-546h-273zM2457 273v273h-273v273h546v273h273v273h273v819h273v-1092h-273v-546h-273v-273h-546zM3003 2184v273
h273v-273h-273zM546 1911v546h273v273h546v-273h-273v-273h-273v-273h-273zM2457 2457v273h546v-273h-546zM1911 2184v546h-546v273h1092v-273h-273v-546h-273z" />
    <glyph glyph-name="uni306F" unicode="&#x306f;" horiz-adv-x="4369" 
d="M819 273v273h273v-273h-273zM1911 273v273h546v-273h-546zM546 546v273h273v-273h-273zM1638 546v273h273v-273h-273zM3549 273v273h-273v273h546v-546h-273zM1092 546v546h273v-546h-273zM273 819v1092h273v-1092h-273zM1638 1911v273h273v-273h-273zM546 1911v1092h273
v-273h273v-546h-273v-273h-273zM2457 546v273h-546v273h546v1092h-546v273h546v546h273v-546h1092v-273h-273v-273h-273v273h-546v-1092h546v-273h-546v-273h-273zM2184 3003v273h273v-273h-273z" />
    <glyph glyph-name="uni3070" unicode="&#x3070;" horiz-adv-x="4369" 
d="M819 273v273h273v-273h-273zM1911 273v273h546v-273h-546zM546 546v273h273v-273h-273zM1638 546v273h273v-273h-273zM3549 273v273h-273v273h546v-546h-273zM1092 546v546h273v-546h-273zM273 819v1092h273v-1092h-273zM1638 1911v273h273v-273h-273zM546 1911v1092h273
v-273h273v-546h-273v-273h-273zM2457 546v273h-546v273h546v1092h-546v273h546v546h273v-546h1092v-273h-273v-273h-273v273h-546v-1092h546v-273h-546v-273h-273zM2184 3003v273h273v-273h-273zM3276 2730v273h-273v273h546v273h273v-273h274v-273h-547v-273h-273z" />
    <glyph glyph-name="uni3071" unicode="&#x3071;" horiz-adv-x="4369" 
d="M819 273v273h273v-273h-273zM1911 273v273h546v-273h-546zM546 546v273h273v-273h-273zM1638 546v273h273v-273h-273zM3549 273v273h-273v273h546v-546h-273zM1092 546v546h273v-546h-273zM273 819v1092h273v-1092h-273zM1638 1911v273h273v-273h-273zM546 1911v1092h273
v-273h273v-546h-273v-273h-273zM2457 546v273h-546v273h546v1092h-546v273h546v546h273v-546h1092v-273h-273v-273h-273v273h-546v-1092h546v-273h-546v-273h-273zM3276 2730v273h546v-273h-546zM2184 3003v273h273v-273h-273zM3003 3003v273h273v-273h-273zM3822 3003v273
h274v-273h-274zM3276 3276v273h546v-273h-546z" />
    <glyph glyph-name="uni3072" unicode="&#x3072;" horiz-adv-x="4369" 
d="M1365 273v273h819v-273h-819zM1092 546v273h273v-273h-273zM2184 546v273h273v-273h-273zM2457 819v819h273v-819h-273zM819 819v1365h273v-1365h-273zM1092 2184v273h273v-273h-273zM819 2457v273h-273v273h819v273h273v-273h273v-273h-273v-273h-273v273h-273v-273
h-273zM2730 1638v1638h273v-546h273v-273h273v-273h273v-273h-546v273h-273v-546h-273z" />
    <glyph glyph-name="uni3073" unicode="&#x3073;" horiz-adv-x="4369" 
d="M1092 273v273h819v-273h-819zM819 546v273h273v-273h-273zM1911 546v273h273v-273h-273zM2184 819v819h273v-819h-273zM546 819v1365h273v-1365h-273zM819 2184v273h273v-273h-273zM546 2457v273h-273v273h819v273h273v-273h273v-273h-273v-273h-273v273h-273v-273h-273z
M2457 1638v1638h273v-546h273v-273h273v-273h273v-273h-546v273h-273v-546h-273zM3276 2730v273h-273v273h546v273h273v-273h274v-273h-547v-273h-273z" />
    <glyph glyph-name="uni3074" unicode="&#x3074;" horiz-adv-x="4369" 
d="M1092 273v273h819v-273h-819zM819 546v273h273v-273h-273zM1911 546v273h273v-273h-273zM2184 819v819h273v-819h-273zM546 819v1365h273v-1365h-273zM819 2184v273h273v-273h-273zM3276 2730v273h546v-273h-546zM546 2457v273h-273v273h819v273h273v-273h273v-273h-273
v-273h-273v273h-273v-273h-273zM2457 1638v1638h273v-546h273v-273h273v-273h273v-273h-546v273h-273v-546h-273zM3003 3003v273h273v-273h-273zM3822 3003v273h274v-273h-274zM3276 3276v273h546v-273h-546z" />
    <glyph glyph-name="uni3075" unicode="&#x3075;" horiz-adv-x="4369" 
d="M546 546v273h-273v273h819v-273h-273v-273h-273zM1092 1092v273h273v-273h-273zM1365 273v273h546v273h273v546h273v-819h-273v-273h-819zM3276 819v273h-273v273h546v-546h-273zM1911 1365v273h273v-273h-273zM2730 1365v273h273v-273h-273zM1638 1638v273h273v-273
h-273zM1911 1911v546h-273v546h273v-273h273v-273h273v-273h-273v-273h-273zM1365 3003v273h273v-273h-273z" />
    <glyph glyph-name="uni3076" unicode="&#x3076;" horiz-adv-x="4369" 
d="M546 546v273h-273v273h819v-273h-273v-273h-273zM1092 1092v273h273v-273h-273zM1365 273v273h546v273h273v546h273v-819h-273v-273h-819zM3276 819v273h-273v273h546v-546h-273zM1911 1365v273h273v-273h-273zM2730 1365v273h273v-273h-273zM1638 1638v273h273v-273
h-273zM1911 1911v546h-273v546h273v-273h273v-273h273v-273h-273v-273h-273zM1365 3003v273h273v-273h-273zM2730 2730v546h273v-273h273v-273h-546zM3276 3003v546h273v-273h273v-273h-546z" />
    <glyph glyph-name="uni3077" unicode="&#x3077;" horiz-adv-x="4369" 
d="M546 546v273h-273v273h819v-273h-273v-273h-273zM1092 1092v273h273v-273h-273zM1365 273v273h546v273h273v546h273v-819h-273v-273h-819zM3276 819v273h-273v273h546v-546h-273zM1911 1365v273h273v-273h-273zM2730 1365v273h273v-273h-273zM1638 1638v273h273v-273
h-273zM3003 2457v273h546v-273h-546zM1911 1911v546h-273v546h273v-273h273v-273h273v-273h-273v-273h-273zM2730 2730v273h273v-273h-273zM3549 2730v273h273v-273h-273zM1365 3003v273h273v-273h-273zM3003 3003v273h546v-273h-546z" />
    <glyph glyph-name="uni3078" unicode="&#x3078;" horiz-adv-x="4369" 
d="M3549 819v273h-273v273h546v-273h274v-273h-547zM3003 1365v273h273v-273h-273zM2730 1638v273h273v-273h-273zM546 1365v273h-273v273h546v273h546v-273h-273v-273h-273v-273h-273zM2457 1911v273h273v-273h-273zM1365 2184v273h273v-273h-273zM2184 2184v273h273v-273
h-273zM1638 2457v273h546v-273h-546z" />
    <glyph glyph-name="uni3079" unicode="&#x3079;" horiz-adv-x="4369" 
d="M3549 819v273h-273v273h546v-273h274v-273h-547zM3003 1365v273h273v-273h-273zM2730 1638v273h273v-273h-273zM546 1365v273h-273v273h546v273h546v-273h-273v-273h-273v-273h-273zM2457 1911v273h273v-273h-273zM1365 2184v273h273v-273h-273zM2184 2184v273h273v-273
h-273zM1638 2457v273h546v-273h-546zM2730 2457v546h273v-273h273v-273h-546zM3276 2730v546h273v-273h273v-273h-546z" />
    <glyph glyph-name="uni307A" unicode="&#x307a;" horiz-adv-x="4369" 
d="M3549 819v273h-273v273h546v-273h274v-273h-547zM3003 1365v273h273v-273h-273zM2730 1638v273h273v-273h-273zM546 1365v273h-273v273h546v273h546v-273h-273v-273h-273v-273h-273zM2457 1911v273h273v-273h-273zM1365 2184v273h273v-273h-273zM2184 2184v273h273v-273
h-273zM1638 2457v273h546v-273h-546zM3003 2457v273h546v-273h-546zM2730 2730v273h273v-273h-273zM3549 2730v273h273v-273h-273zM3003 3003v273h546v-273h-546z" />
    <glyph glyph-name="uni307B" unicode="&#x307b;" horiz-adv-x="4369" 
d="M819 273v273h273v-273h-273zM1911 273v273h546v-273h-546zM546 546v273h273v-273h-273zM1638 546v273h273v-273h-273zM3549 273v273h-273v273h820v-273h-274v-273h-273zM1092 546v546h273v-546h-273zM273 819v1092h273v-1092h-273zM1638 1638v273h273v-273h-273z
M3276 1638v273h273v-273h-273zM546 1911v273h273v-273h-273zM819 2184v546h273v-546h-273zM1638 2457v273h273v-273h-273zM546 2730v273h273v-273h-273zM2457 546v273h-546v273h546v819h-546v273h546v546h-546v273h1638v-273h-273v-273h-273v273h-273v-546h546v-273h-546
v-819h546v-273h-546v-273h-273z" />
    <glyph glyph-name="uni307C" unicode="&#x307c;" horiz-adv-x="4369" 
d="M546 273v273h273v-273h-273zM1638 273v273h546v-273h-546zM273 546v273h273v-273h-273zM1365 546v273h273v-273h-273zM3276 273v273h-273v273h819v-273h-273v-273h-273zM819 546v546h273v-546h-273zM0 819v1092h273v-1092h-273zM1365 1638v273h273v-273h-273zM3003 1638
v273h273v-273h-273zM273 1911v273h273v-273h-273zM546 2184v546h273v-546h-273zM1365 2457v273h273v-273h-273zM273 2730v273h273v-273h-273zM2184 546v273h-546v273h546v819h-546v273h546v546h-546v273h1638v-273h-273v-273h-273v273h-273v-546h546v-273h-546v-819h546
v-273h-546v-273h-273zM3549 2184v273h-273v273h273v273h273v-273h274v-273h-274v-273h-273z" />
    <glyph glyph-name="uni307D" unicode="&#x307d;" horiz-adv-x="4369" 
d="M546 273v273h273v-273h-273zM1638 273v273h546v-273h-546zM273 546v273h273v-273h-273zM1365 546v273h273v-273h-273zM3276 273v273h-273v273h819v-273h-273v-273h-273zM819 546v546h273v-546h-273zM0 819v1092h273v-1092h-273zM1365 1638v273h273v-273h-273zM3003 1638
v273h273v-273h-273zM273 1911v273h273v-273h-273zM3276 1911v273h546v-273h-546zM3003 2184v273h273v-273h-273zM3822 2184v273h274v-273h-274zM546 2184v546h273v-546h-273zM1365 2457v273h273v-273h-273zM3276 2457v273h546v-273h-546zM273 2730v273h273v-273h-273z
M2184 546v273h-546v273h546v819h-546v273h546v546h-546v273h1638v-273h-273v-273h-273v273h-273v-546h546v-273h-546v-819h546v-273h-546v-273h-273z" />
    <glyph glyph-name="uni307E" unicode="&#x307e;" horiz-adv-x="4369" 
d="M1092 273v273h819v-273h-819zM819 546v273h273v-273h-273zM2730 273v273h-273v273h819v-273h-273v-273h-273zM1911 546v273h-819v273h819v546h-819v-273h-546v273h273v273h1092v546h-819v-273h-546v273h273v273h1092v273h273v-273h819v-273h-819v-546h1092v-273h-273
v-273h-546v273h-273v-546h273v-273h-273v-273h-273zM1638 3003v273h273v-273h-273z" />
    <glyph glyph-name="uni307F" unicode="&#x307f;" horiz-adv-x="4369" 
d="M819 273v273h273v-273h-273zM2457 273v273h273v-273h-273zM1092 546v273h273v-273h-273zM3549 273v273h-273v273h546v-546h-273zM546 546v546h273v-546h-273zM1365 819v273h-546v273h819v273h273v-273h546v-273h-819v-273h-273zM2730 546v273h-273v273h546v546h273v-273
h273v-273h-273v-273h-273v-273h-273zM1911 1638v273h273v-273h-273zM2184 1911v273h273v-273h-273zM2457 2184v546h-546v-273h-273v273h-273v273h1365v-273h273v-273h-273v-273h-273z" />
    <glyph glyph-name="uni3080" unicode="&#x3080;" horiz-adv-x="4369" 
d="M1365 273v273h1638v273h546v-273h-273v-273h-1911zM819 1365v546h273v-546h-273zM273 2184v273h273v-273h-273zM3276 1911v546h546v-273h-273v-273h-273zM3003 2457v273h273v-273h-273zM1092 546v819h273v546h-273v273h273v273h-819v273h819v273h273v-273h1092v-273h-273
v-273h-273v273h-546v-1365h-273v-546h-273zM1092 3003v273h273v-273h-273z" />
    <glyph glyph-name="uni3081" unicode="&#x3081;" horiz-adv-x="4369" 
d="M819 546v273h546v-273h-546zM1911 546v273h273v-273h-273zM546 819v819h273v-819h-273zM1365 819v273h273v273h273v273h273v-546h-273v-273h-546zM819 1638v273h273v-273h-273zM3003 273v273h-273v273h546v273h273v819h273v-1092h-273v-273h-273v-273h-273zM3276 1911
v273h273v-273h-273zM1092 2730v273h273v-273h-273zM1365 1365v546h-273v273h273v546h273v-273h546v546h-273v273h546v-273h273v-546h546v-273h-819v-546h-273v546h-546v-819h-273z" />
    <glyph glyph-name="uni3082" unicode="&#x3082;" horiz-adv-x="4369" 
d="M819 2184v273h273v-273h-273zM1911 273v273h-273v1092h-273v-273h-546v273h273v273h546v546h-546v273h546v273h273v-273h1365v-273h-273v-273h-273v273h-819v-546h1365v-273h-273v-273h-273v273h-819v-819h273v-273h819v273h546v273h273v-546h-273v-273h-1638zM1365 3003
v273h273v-273h-273z" />
    <glyph glyph-name="uni3083" unicode="&#x3083;" horiz-adv-x="4369" 
d="M2184 273v273h-273v273h546v-273h273v-273h-546zM1638 819v546h273v-546h-273zM2730 1092v273h273v-273h-273zM3003 1365v273h273v-273h-273zM3276 1638v273h273v-273h-273zM2457 1911v273h819v-273h-819zM819 1365v546h546v546h273v-546h819v-273h-819v-273h-273v273
h-273v-273h-273zM2184 2184v273h273v-273h-273zM2457 2457v273h273v-273h-273zM2184 2730v273h273v-273h-273z" />
    <glyph glyph-name="uni3084" unicode="&#x3084;" horiz-adv-x="4369" 
d="M2184 273v273h-273v546h273v-273h273v-273h273v-273h-546zM1638 1092v546h273v-546h-273zM3003 1365v273h546v-273h-546zM273 1365v273h273v273h546v-273h-273v-273h-546zM3549 1638v546h273v-546h-273zM1365 1638v273h-273v273h273v546h273v-546h546v-273h-546v-273
h-273zM2184 2184v546h273v-273h1092v-273h-1365zM1092 2730v273h273v-273h-273zM2457 2730v273h-273v273h546v-273h273v-273h-546z" />
    <glyph glyph-name="uni3085" unicode="&#x3085;" horiz-adv-x="4369" 
d="M3003 819v273h273v-273h-273zM1365 1092v273h273v-273h-273zM1911 819v546h273v-546h-273zM819 546v1092h273v-546h273v-273h-273v-273h-273zM1638 1365v273h273v-273h-273zM1092 1638v273h273v-273h-273zM1911 1638v273h273v-273h-273zM3276 1092v819h273v-819h-273z
M819 1911v273h273v-273h-273zM2457 273v273h-273v273h273v1092h-273v273h273v273h273v-273h546v-273h-546v-1092h273v-273h-273v-273h-273zM2184 2457v273h273v-273h-273z" />
    <glyph glyph-name="uni3086" unicode="&#x3086;" horiz-adv-x="4369" 
d="M3276 1092v273h273v-273h-273zM1638 1365v273h273v-273h-273zM1365 273v273h273v273h273v546h273v273h273v-546h819v-273h-1092v-273h-273v-273h-546zM1092 1365v546h273v-546h-273zM819 819v273h-273v1092h273v-819h273v-546h-273zM1365 1911v273h273v-273h-273z
M1638 2184v273h546v-273h-546zM819 2184v546h273v-546h-273zM546 2730v273h273v-273h-273zM3549 1365v819h-273v273h-546v-819h-273v819h-273v273h273v273h273v-273h819v-273h273v-1092h-273zM2184 3003v273h273v-273h-273z" />
    <glyph glyph-name="uni3087" unicode="&#x3087;" horiz-adv-x="4369" 
d="M1092 273v273h819v-273h-819zM819 546v273h273v-273h-273zM3003 273v273h-273v273h819v-273h-273v-273h-273zM1911 546v273h-819v273h819v1365h273v-273h546v273h273v-546h-819v-819h546v-273h-546v-273h-273zM1638 2457v273h273v-273h-273z" />
    <glyph glyph-name="uni3088" unicode="&#x3088;" horiz-adv-x="4369" 
d="M1092 273v273h819v-273h-819zM819 546v273h273v-273h-273zM3003 1911v273h546v-273h-546zM2730 273v273h-819v273h-819v273h819v1911h273v-546h819v-273h-819v-1365h1365v-273h-273v-273h-546zM1638 3003v273h273v-273h-273z" />
    <glyph glyph-name="uni3089" unicode="&#x3089;" horiz-adv-x="4369" 
d="M1365 273v273h1092v-273h-1092zM2457 546v273h546v-273h-546zM1365 1365v273h273v-273h-273zM3003 819v819h273v-819h-273zM1638 1638v273h1365v-273h-1365zM819 1092v1638h273v-273h273v-273h-273v-819h273v-273h-546zM1638 2730v273h819v-273h-819zM1365 3003v273h273
v-273h-273z" />
    <glyph glyph-name="uni308A" unicode="&#x308a;" horiz-adv-x="4369" 
d="M1092 1365v1365h273v-273h273v-546h-273v-546h-273zM1638 2457v273h273v-273h-273zM1092 0v273h546v273h546v273h273v546h273v1365h273v-1638h-273v-546h-273v-273h-546v-273h-819zM1911 2730v273h819v-273h-819zM1365 2730v546h273v-546h-273z" />
    <glyph glyph-name="uni308B" unicode="&#x308b;" horiz-adv-x="4369" 
d="M1365 546v273h273v-273h-273zM1638 273v273h546v273h273v-273h273v-273h-1092zM2730 546v273h546v-273h-546zM1638 819v273h546v-273h-546zM546 1092v273h273v-273h-273zM3276 819v819h273v-819h-273zM3003 1638v273h273v-273h-273zM819 1365v273h273v273h273v273h273
v-273h273v-273h-546v-273h-546zM1911 1911v273h1092v-273h-1092zM1638 2184v273h273v-273h-273zM1911 2457v273h273v-273h-273zM819 2730v273h819v-273h-819zM2184 2730v273h-546v273h1092v-273h-273v-273h-273z" />
    <glyph glyph-name="uni308C" unicode="&#x308c;" horiz-adv-x="4369" 
d="M3003 0v273h-273v273h1092v-273h-273v-273h-546zM3822 546v273h274v-273h-274zM273 819v546h273v273h273v-546h-273v-273h-273zM2457 546v1092h273v-1092h-273zM273 2184v273h546v-273h-546zM1638 2184v273h546v-273h-546zM2730 1638v819h273v-819h-273zM2184 2457v273
h546v-273h-546zM1092 0v273h-273v273h273v1092h-273v273h273v546h-273v273h273v546h273v-546h273v-273h-273v-273h273v-273h-273v-1911h-273z" />
    <glyph glyph-name="uni308D" unicode="&#x308d;" horiz-adv-x="4369" 
d="M1365 273v273h1092v-273h-1092zM2457 546v273h546v-273h-546zM3003 819v273h273v-273h-273zM546 1092v273h273v-273h-273zM819 1365v273h273v-273h-273zM3276 1092v546h273v-546h-273zM3003 1638v273h273v-273h-273zM1092 1638v273h273v273h273v273h273v-273h1092v-273
h-1365v-273h-546zM1911 2457v273h273v-273h-273zM819 2730v273h819v-273h-819zM2184 2730v273h-546v273h1092v-273h-273v-273h-273z" />
    <glyph glyph-name="uni308F" unicode="&#x308f;" horiz-adv-x="4369" 
d="M2457 273v273h546v-273h-546zM3003 546v273h273v-273h-273zM3276 819v273h273v-273h-273zM273 819v546h273v273h273v-546h-273v-273h-273zM3549 1092v819h273v-819h-273zM1638 1911v273h546v-273h-546zM3276 1911v273h273v-273h-273zM273 2184v273h546v-273h-546z
M2184 2184v273h1092v-273h-1092zM1092 273v273h-273v273h273v819h-273v273h273v546h-273v273h273v819h273v-819h273v-273h-273v-546h273v-273h-273v-1365h-273z" />
    <glyph glyph-name="uni3092" unicode="&#x3092;" horiz-adv-x="4369" 
d="M1365 273v273h1365v273h546v-273h-273v-273h-1638zM1092 546v546h273v-546h-273zM1365 1092v273h273v-273h-273zM546 1365v273h273v-273h-273zM819 1638v273h273v-273h-273zM1911 1092v273h-273v273h273v273h273v-273h273v-273h-273v-273h-273zM2457 1638v273h546v-273
h-546zM1092 1911v273h273v273h273v-273h273v-273h-819zM3003 1911v273h273v273h273v-546h-546zM546 2457v273h546v-273h-546zM1638 2457v273h-546v273h546v273h273v-273h1092v-273h-273v-273h-273v273h-546v-273h-273z" />
    <glyph glyph-name="uni3093" unicode="&#x3093;" horiz-adv-x="4369" 
d="M2184 273v273h819v273h546v-273h-273v-273h-1092zM1911 546v546h273v-546h-273zM3549 819v273h273v-273h-273zM2184 1092v546h273v-546h-273zM546 273v546h273v546h273v546h273v273h273v-273h546v-273h-819v-546h-273v-546h-273v-273h-273zM1638 2184v273h273v-273h-273z
M1911 2457v546h273v-546h-273zM1638 3003v273h273v-273h-273z" />
    <glyph glyph-name="uni3094" unicode="&#x3094;" horiz-adv-x="4369" 
d="M819 273v273h-273v273h1365v273h273v273h273v-546h-273v-273h-546v-273h-819zM546 1638v546h546v-273h-273v-273h-273zM2457 1365v819h273v-819h-273zM1092 2184v273h1365v-273h-1365zM1911 2730v273h546v-273h-546zM819 2730v546h1092v-273h-819v-273h-273zM2730 2730
v546h273v-273h273v-273h-546zM3276 3003v546h273v-273h273v-273h-546z" />
    <glyph glyph-name="uni3099" unicode="&#x3099;" horiz-adv-x="4369" 
d="M273 2457v273h273v-273h-273zM0 2730v273h273v-273h-273zM819 2730v273h273v-273h-273zM546 3003v273h273v-273h-273z" />
    <glyph glyph-name="uni309A" unicode="&#x309a;" horiz-adv-x="4369" 
d="M273 2457v273h273v-273h-273zM0 2730v273h273v-273h-273zM546 2730v273h273v-273h-273zM273 3003v273h273v-273h-273z" />
    <glyph glyph-name="uni309B" unicode="&#x309b;" horiz-adv-x="4369" 
d="M0 2457v546h273v-273h273v-273h-546zM546 2730v546h273v-273h273v-273h-546z" />
    <glyph glyph-name="uni309C" unicode="&#x309c;" horiz-adv-x="4369" 
d="M273 2457v273h546v-273h-546zM0 2730v273h273v-273h-273zM819 2730v273h273v-273h-273zM273 3003v273h546v-273h-546z" />
    <glyph glyph-name="uni30A0" unicode="&#x30a0;" horiz-adv-x="4369" 
d="M819 819v273h2457v-273h-2457zM819 1911v273h2457v-273h-2457z" />
    <glyph glyph-name="uni30A1" unicode="&#x30a1;" horiz-adv-x="4369" 
d="M1092 273v273h546v-273h-546zM1638 546v273h273v-273h-273zM1911 819v1092h273v-1092h-273zM2730 1638v273h273v-273h-273zM819 1911v273h273v-273h-273zM3003 1911v273h273v-273h-273zM1092 2184v273h1911v-273h-1911z" />
    <glyph glyph-name="uni30A2" unicode="&#x30a2;" horiz-adv-x="4369" 
d="M819 273v273h-273v273h819v273h273v273h273v-546h-273v-273h-546v-273h-273zM1911 1365v1092h273v-1092h-273zM546 2457v273h273v-273h-273zM2457 1911v273h546v273h273v273h-2457v273h2730v-273h273v-273h-273v-273h-273v-273h-819z" />
    <glyph glyph-name="uni30A3" unicode="&#x30a3;" horiz-adv-x="4369" 
d="M546 1365v273h1092v-273h-1092zM1911 273v1365h-273v273h546v-1638h-273zM2184 1911v273h273v-273h-273zM2457 2184v273h273v-273h-273z" />
    <glyph glyph-name="uni30A4" unicode="&#x30a4;" horiz-adv-x="4369" 
d="M1911 273v1638h-546v-273h-546v273h-273v273h1638v-1911h-273zM2184 2184v273h546v-273h-546zM2730 2457v273h273v-273h-273zM3003 2730v273h273v-273h-273z" />
    <glyph glyph-name="uni30A5" unicode="&#x30a5;" horiz-adv-x="4369" 
d="M819 273v273h819v-273h-819zM1638 546v273h546v-273h-546zM2184 819v273h273v-273h-273zM2457 1092v273h273v-273h-273zM2730 1365v546h273v-546h-273zM819 1365v819h819v273h273v-273h819v-273h-1638v-546h-273z" />
    <glyph glyph-name="uni30A6" unicode="&#x30a6;" horiz-adv-x="4369" 
d="M1092 273v273h-273v273h1092v273h546v-273h-273v-273h-546v-273h-546zM2457 1092v273h273v-273h-273zM2730 1365v546h273v-546h-273zM546 1638v1092h1365v273h-273v273h546v-546h1365v-273h-273v-546h-273v546h-1911v-273h-273v-546h-273z" />
    <glyph glyph-name="uni30A7" unicode="&#x30a7;" horiz-adv-x="4369" 
d="M546 273v273h546v-273h-546zM3003 273v273h546v-273h-546zM1092 546v273h819v819h-819v273h1911v-273h-819v-819h819v-273h-1911z" />
    <glyph glyph-name="uni30A8" unicode="&#x30a8;" horiz-adv-x="4369" 
d="M546 1911v273h273v-273h-273zM273 273v273h273v273h1365v1365h-1092v273h2730v-273h-273v-273h-273v273h-819v-1365h1365v-273h273v-273h-546v273h-2457v-273h-546z" />
    <glyph glyph-name="uni30A9" unicode="&#x30a9;" horiz-adv-x="4369" 
d="M1638 273v273h546v-273h-546zM819 819v273h546v-273h-546zM1365 1092v273h273v-273h-273zM1638 1365v273h273v-273h-273zM1092 1638v273h273v-273h-273zM3003 1638v273h273v-273h-273zM2184 546v1092h-273v273h-546v273h819v546h273v-546h546v-273h-546v-1365h-273z" />
    <glyph glyph-name="uni30AA" unicode="&#x30aa;" horiz-adv-x="4369" 
d="M1638 546v273h273v-273h-273zM273 819v273h546v273h546v-273h-273v-273h-819zM1365 1365v273h273v-273h-273zM1638 1638v273h273v-273h-273zM1911 1911v273h273v-273h-273zM3549 2184v273h273v-273h-273zM1911 273v273h273v273h273v1365h-273v273h-1092v-273h-546v273
h273v273h1638v546h273v-546h819v-273h-819v-1911h-273v-273h-546z" />
    <glyph glyph-name="uni30AB" unicode="&#x30ab;" horiz-adv-x="4369" 
d="M1911 273v273h273v-273h-273zM2184 546v273h273v-273h-273zM273 546v273h273v273h546v-273h-273v-273h-546zM2457 819v273h273v-273h-273zM1092 1092v273h273v-273h-273zM1365 1365v273h273v-273h-273zM2730 1092v546h273v-546h-273zM1638 1638v273h273v-273h-273z
M3003 1638v546h273v-546h-273zM1911 1911v273h-1092v273h1365v819h273v-819h546v-273h-819v-273h-273z" />
    <glyph glyph-name="uni30AC" unicode="&#x30ac;" horiz-adv-x="4369" 
d="M273 546v273h273v273h546v-273h-273v-273h-546zM1092 1092v273h273v-273h-273zM1911 273v273h273v273h273v273h273v273h273v-546h-273v-273h-273v-273h-546zM1365 1365v273h273v-273h-273zM1638 1638v273h273v-273h-273zM3276 2457v273h273v-273h-273zM3003 2730v273h273
v-273h-273zM3822 2730v273h274v-273h-274zM3003 1365v819h-819v-273h-273v273h-1092v273h1365v819h273v-819h819v-1092h-273zM3549 3003v273h273v-273h-273z" />
    <glyph glyph-name="uni30AD" unicode="&#x30ad;" horiz-adv-x="4369" 
d="M2457 273v819h273v-819h-273zM2184 1092v546h-1092v-273h-546v273h273v273h1365v273h273v-273h1365v-273h-273v-273h-273v273h-819v-546h-273zM819 2184v273h273v273h819v546h273v-546h1365v-273h-273v-273h-273v273h-819v-273h-273v273h-546v-273h-546z" />
    <glyph glyph-name="uni30AE" unicode="&#x30ae;" horiz-adv-x="4369" 
d="M2184 273v546h273v-546h-273zM1911 819v819h-1092v-273h-546v273h273v273h1365v273h273v-273h1365v-273h-273v-273h-546v273h-546v-819h-273zM3276 2730v273h273v-273h-273zM546 2184v273h273v273h819v273h-273v273h546v-546h1365v-273h-273v-273h-273v273h-819v-273
h-273v273h-546v-273h-546zM3003 3003v273h273v-273h-273zM3822 3003v273h274v-273h-274zM3549 3276v273h273v-273h-273z" />
    <glyph glyph-name="uni30AF" unicode="&#x30af;" horiz-adv-x="4369" 
d="M546 273v273h546v273h546v273h546v-273h-273v-273h-546v-273h-819zM2184 1092v273h273v-273h-273zM2457 1365v273h273v-273h-273zM2730 1638v273h273v-273h-273zM819 1911v273h273v273h546v-273h-273v-273h-546zM3003 1911v546h-1365v273h273v546h273v-546h1092v-819
h-273z" />
    <glyph glyph-name="uni30B0" unicode="&#x30b0;" horiz-adv-x="4369" 
d="M273 273v273h546v273h546v273h546v-273h-273v-273h-546v-273h-819zM1911 1092v273h273v-273h-273zM2184 1365v273h273v-273h-273zM2457 1638v273h273v-273h-273zM546 1911v273h273v273h546v-273h-273v-273h-546zM3276 2457v273h273v-273h-273zM3003 2730v273h273v-273
h-273zM3822 2730v273h274v-273h-274zM2730 1911v546h-1365v273h273v546h273v-546h1092v-819h-273zM3549 3003v273h273v-273h-273z" />
    <glyph glyph-name="uni30B1" unicode="&#x30b1;" horiz-adv-x="4369" 
d="M273 273v273h546v273h546v273h273v273h273v273h273v-546h-273v-273h-273v-273h-546v-273h-819zM273 1911v273h546v-273h-546zM2184 1638v819h-819v-273h-546v273h273v546h273v-273h2184v-273h-273v-273h-273v273h-546v-819h-273z" />
    <glyph glyph-name="uni30B2" unicode="&#x30b2;" horiz-adv-x="4369" 
d="M273 273v273h546v273h546v273h273v273h273v273h273v-546h-273v-273h-273v-273h-546v-273h-819zM273 1911v273h546v-273h-546zM2184 1638v819h-819v-273h-546v273h273v546h273v-273h1911v-273h-273v-273h-273v273h-273v-819h-273zM3276 2730v273h273v-273h-273zM3003 3003
v273h273v-273h-273zM3822 3003v273h274v-273h-274zM3549 3276v273h273v-273h-273z" />
    <glyph glyph-name="uni30B3" unicode="&#x30b3;" horiz-adv-x="4369" 
d="M546 273v273h273v273h1638v273h273v546h273v546h273v-819h-273v-546h273v-273h-2184v-273h-546zM819 1911v273h273v273h1911v-273h-1638v-273h-546z" />
    <glyph glyph-name="uni30B4" unicode="&#x30b4;" horiz-adv-x="4369" 
d="M546 273v273h273v273h1638v273h273v273h273v-546h273v-273h-2184v-273h-546zM3003 1365v819h273v-819h-273zM819 1911v273h273v273h1911v-273h-1638v-273h-546zM3276 2457v273h273v-273h-273zM3003 2730v273h273v-273h-273zM3822 2730v273h274v-273h-274zM3549 3003v273
h273v-273h-273z" />
    <glyph glyph-name="uni30B5" unicode="&#x30b5;" horiz-adv-x="4369" 
d="M1365 273v273h-546v273h1365v-273h-273v-273h-546zM2184 819v273h273v-273h-273zM2457 1092v1092h-1092v-819h-273v819h-273v-273h-546v273h273v273h546v546h273v-546h1092v819h273v-819h1092v-273h-273v-273h-273v273h-546v-1092h-273z" />
    <glyph glyph-name="uni30B6" unicode="&#x30b6;" horiz-adv-x="4369" 
d="M546 273v273h-273v273h1638v-273h-546v-273h-819zM1911 819v273h273v-273h-273zM3276 2730v273h273v-273h-273zM2184 1092v1092h-819v-819h-273v819h-546v-273h-546v273h273v273h819v546h273v-546h819v819h273v-819h1365v-273h-273v-273h-546v273h-546v-1092h-273z
M3003 3003v273h273v-273h-273zM3822 3003v273h274v-273h-274zM3549 3276v273h273v-273h-273z" />
    <glyph glyph-name="uni30B7" unicode="&#x30b7;" horiz-adv-x="4369" 
d="M546 273v273h819v273h819v-273h-546v-273h-1092zM2184 819v273h546v-273h-546zM2730 1092v273h273v-273h-273zM819 1365v273h546v-273h-546zM3003 1365v273h273v-273h-273zM546 1638v273h273v-273h-273zM3276 1638v273h273v-273h-273zM3549 1911v273h273v-273h-273z
M1092 2184v273h546v-273h-546zM819 2457v273h273v-273h-273z" />
    <glyph glyph-name="uni30B8" unicode="&#x30b8;" horiz-adv-x="4095" 
d="M546 273v273h819v273h819v-273h-546v-273h-1092zM2184 819v273h546v-273h-546zM2730 1092v273h273v-273h-273zM1092 1365v273h273v-273h-273zM3003 1365v273h273v-273h-273zM546 1638v273h546v-273h-546zM3276 1638v273h273v-273h-273zM3549 1911v273h273v-273h-273z
M1365 2184v273h273v-273h-273zM2730 2184v273h273v-273h-273zM819 2457v273h546v-273h-546zM2457 2457v273h273v-273h-273zM3276 2457v273h273v-273h-273zM3003 2730v273h273v-273h-273z" />
    <glyph glyph-name="uni30B9" unicode="&#x30b9;" horiz-adv-x="4369" 
d="M3276 273v273h-273v273h819v-273h-273v-273h-273zM1092 273v273h-546v273h819v273h546v-273h-273v-273h-273v-273h-273zM2730 819v273h273v-273h-273zM1911 1092v273h273v-273h-273zM2457 1092v273h273v-273h-273zM2184 1365v273h273v-273h-273zM2457 1638v273h273v-273
h-273zM2730 1911v546h-1365v-273h-546v273h273v273h1911v-819h-273z" />
    <glyph glyph-name="uni30BA" unicode="&#x30ba;" horiz-adv-x="4369" 
d="M819 273v273h-546v273h1365v-273h-273v-273h-546zM3276 273v273h-273v273h1093v-273h-274v-273h-546zM1638 819v273h273v-273h-273zM2730 819v273h273v-273h-273zM1911 1092v273h273v-273h-273zM2457 1092v273h273v-273h-273zM2184 1365v273h273v-273h-273zM2457 1638
v819h-1092v-273h-546v273h273v273h1911v-819h-273v-273h-273zM3276 2457v273h273v-273h-273zM3003 2730v273h273v-273h-273zM3822 2730v273h274v-273h-274zM3549 3003v273h273v-273h-273z" />
    <glyph glyph-name="uni30BB" unicode="&#x30bb;" horiz-adv-x="4369" 
d="M1638 546v273h273v-273h-273zM1911 273v273h1092v273h819v-273h-273v-273h-1638zM2457 1365v273h273v-273h-273zM273 1365v546h819v-273h-546v-273h-273zM2730 1638v273h273v-273h-273zM3003 1911v273h-819v273h1092v-546h-273zM1365 819v1092h-273v273h273v546h273v-546
h546v-273h-546v-1092h-273z" />
    <glyph glyph-name="uni30BC" unicode="&#x30bc;" horiz-adv-x="4369" 
d="M2457 273v273h-546v273h1911v-273h-273v-273h-1092zM1638 819v273h273v-273h-273zM2457 1365v273h273v-273h-273zM2730 1638v273h273v-273h-273zM3003 1911v273h-546v273h819v-546h-273zM1365 1092v546h-1092v273h1092v819h273v-546h819v-273h-819v-819h-273zM3276 2457
v273h273v-273h-273zM3003 2730v273h273v-273h-273zM3822 2730v273h274v-273h-274zM3549 3003v273h273v-273h-273z" />
    <glyph glyph-name="uni30BD" unicode="&#x30bd;" horiz-adv-x="4369" 
d="M819 273v273h546v273h819v-273h-546v-273h-819zM2184 819v273h273v-273h-273zM2457 1092v273h273v-273h-273zM2730 1365v273h273v-273h-273zM1365 1911v273h273v-273h-273zM3003 1638v546h273v-546h-273zM1092 2184v273h-273v546h273v-273h273v-546h-273zM3276 2184v819
h273v-819h-273z" />
    <glyph glyph-name="uni30BE" unicode="&#x30be;" horiz-adv-x="4369" 
d="M273 273v273h546v273h546v273h546v-273h-273v-273h-546v-273h-819zM1911 1092v273h273v-273h-273zM819 1911v273h-273v273h-273v546h273v-273h273v-273h273v-546h-273zM2184 1365v546h273v546h273v546h273v-819h-273v-546h-273v-273h-273zM3276 2730v273h273v-273h-273z
M3003 3003v273h273v-273h-273zM3822 3003v273h274v-273h-274zM3549 3276v273h273v-273h-273z" />
    <glyph glyph-name="uni30BF" unicode="&#x30bf;" horiz-adv-x="4369" 
d="M273 273v273h546v273h546v-273h-273v-273h-819zM1365 819v273h273v-273h-273zM2730 819v273h273v-273h-273zM1638 1092v273h273v-273h-273zM2457 1092v273h273v-273h-273zM1911 1365v546h273v-273h273v-273h-546zM2457 1638v273h273v-273h-273zM1638 1911v273h273v-273
h-273zM2730 1911v273h273v-273h-273zM819 1911v273h273v273h273v273h273v-546h-273v-273h-546zM3003 2184v546h273v-546h-273zM1638 2730v273h273v273h273v-273h819v-273h-1365z" />
    <glyph glyph-name="uni30C0" unicode="&#x30c0;" horiz-adv-x="4369" 
d="M546 273v273h546v273h546v-273h-273v-273h-819zM1638 819v273h273v-273h-273zM2457 546v273h-273v273h-273v546h273v-273h273v-273h273v-273h273v-273h-546zM2457 1365v273h273v-273h-273zM819 1638v273h273v-273h-273zM1638 1638v273h273v-273h-273zM2730 1638v273h273
v-273h-273zM1092 1911v273h273v273h273v-546h-546zM3003 1911v546h273v-546h-273zM1638 2457v273h273v273h273v-273h819v-273h-1365zM3276 2730v273h273v-273h-273zM3003 3003v273h273v-273h-273zM3822 3003v273h274v-273h-274zM3549 3276v273h273v-273h-273z" />
    <glyph glyph-name="uni30C1" unicode="&#x30c1;" horiz-adv-x="4369" 
d="M546 273v273h546v273h273v273h273v273h273v-546h-273v-273h-273v-273h-819zM1911 1365v546h-1092v-273h-546v273h273v273h1365v273h-819v273h819v273h273v-819h1638v-273h-273v-273h-273v273h-1092v-546h-273zM2184 3003v273h273v-273h-273z" />
    <glyph glyph-name="uni30C2" unicode="&#x30c2;" horiz-adv-x="4369" 
d="M546 273v273h546v273h273v273h273v273h273v-546h-273v-273h-273v-273h-819zM3003 2457v273h273v-273h-273zM2730 2730v273h273v-273h-273zM3549 2730v273h273v-273h-273zM1911 1365v546h-1092v-273h-546v273h273v273h1365v546h-819v273h819v273h546v-273h-273v-819h1638
v-273h-273v-273h-273v273h-1092v-546h-273zM3276 3003v273h273v-273h-273zM2457 3276v273h273v-273h-273z" />
    <glyph glyph-name="uni30C3" unicode="&#x30c3;" horiz-adv-x="4369" 
d="M1092 273v273h546v-273h-546zM1638 546v273h546v-273h-546zM2184 819v273h273v-273h-273zM2457 1092v546h273v-546h-273zM1092 1638v273h273v-273h-273zM1911 1638v273h273v-273h-273zM819 1911v273h273v-273h-273zM1638 1911v546h273v-546h-273zM2730 1638v819h273v-819
h-273z" />
    <glyph glyph-name="uni30C4" unicode="&#x30c4;" horiz-adv-x="4369" 
d="M1092 273v273h-273v273h1365v273h546v-273h-273v-273h-546v-273h-819zM2730 1092v546h273v-546h-273zM819 1638v273h-273v546h273v-273h273v-546h-273zM1911 1911v273h-273v819h273v-546h273v-546h-273zM3003 1638v1365h273v-546h273v-273h-273v-546h-273z" />
    <glyph glyph-name="uni30C5" unicode="&#x30c5;" horiz-adv-x="4369" 
d="M819 273v273h-273v273h1365v273h546v-273h-273v-273h-546v-273h-819zM2457 1092v546h273v-546h-273zM546 1638v273h-273v546h273v-273h273v-546h-273zM1638 1911v273h-273v546h273v-273h273v-546h-273zM2730 1638v1092h273v-273h273v-273h-273v-546h-273zM3003 2730v273
h273v-273h-273zM2730 3003v273h273v-273h-273zM3549 3003v273h273v-273h-273zM3276 3276v273h273v-273h-273z" />
    <glyph glyph-name="uni30C6" unicode="&#x30c6;" horiz-adv-x="4369" 
d="M546 273v273h819v-273h-819zM1365 546v273h273v273h273v-546h-546zM1911 1092v819h-819v-273h-546v273h273v273h3003v-273h-273v-273h-273v273h-1092v-819h-273zM819 2457v273h273v273h2457v-273h-273v-273h-273v273h-1638v-273h-546z" />
    <glyph glyph-name="uni30C7" unicode="&#x30c7;" horiz-adv-x="4369" 
d="M1092 273v273h-546v273h819v273h546v-273h-273v-273h-273v-273h-273zM1911 1092v819h-1092v-273h-546v273h273v273h3003v-273h-273v-273h-273v273h-819v-819h-273zM819 2730v273h2184v-273h-2184zM3276 2730v273h273v-273h-273zM3003 3003v273h273v-273h-273zM3822 3003
v273h274v-273h-274zM3549 3276v273h273v-273h-273z" />
    <glyph glyph-name="uni30C8" unicode="&#x30c8;" horiz-adv-x="4369" 
d="M1638 273v3003h273v-1092h546v-273h546v-273h546v-273h273v-273h-546v273h-546v273h-546v273h-273v-1638h-273z" />
    <glyph glyph-name="uni30C9" unicode="&#x30c9;" horiz-adv-x="4369" 
d="M2730 2730v273h273v-273h-273zM2457 3003v273h273v-273h-273zM3276 3003v273h273v-273h-273zM1365 273v3276h273v-1365h546v-273h546v-273h819v-273h-1092v273h-546v273h-273v-1638h-273zM3003 3276v273h273v-273h-273z" />
    <glyph glyph-name="uni30CA" unicode="&#x30ca;" horiz-adv-x="4369" 
d="M546 273v273h546v273h546v-273h-273v-273h-819zM1638 819v273h273v-273h-273zM1911 1092v273h273v-273h-273zM546 1638v273h273v-273h-273zM2184 1365v546h-1365v273h1365v819h273v-819h1365v-273h-273v-273h-273v273h-819v-546h-273z" />
    <glyph glyph-name="uni30CB" unicode="&#x30cb;" horiz-adv-x="4369" 
d="M273 546v273h273v273h3276v-273h-273v-273h-546v273h-2184v-273h-546zM819 2184v273h2184v-273h-2184z" />
    <glyph glyph-name="uni30CC" unicode="&#x30cc;" horiz-adv-x="4369" 
d="M819 273v273h-273v273h1092v273h546v-273h-273v-273h-546v-273h-546zM2184 1092v273h273v-273h-273zM3003 819v273h-273v273h546v-273h273v-273h-546zM2457 1365v273h273v-273h-273zM2184 1638v273h273v-273h-273zM1911 1911v273h273v-273h-273zM2730 1638v546h273v-546
h-273zM3003 2184v546h-1365v-273h-546v273h273v273h1911v-819h-273z" />
    <glyph glyph-name="uni30CD" unicode="&#x30cd;" horiz-adv-x="4369" 
d="M3276 819v273h546v-273h-546zM819 819v273h-273v273h1092v-273h-273v-273h-546zM3003 1092v273h273v-273h-273zM2730 1365v273h273v-273h-273zM2184 273v1092h-546v273h546v273h273v-1638h-273zM2457 1911v273h-1365v273h1092v546h273v-546h546v-273h-273v-273h-273z
M1911 3003v273h273v-273h-273z" />
    <glyph glyph-name="uni30CE" unicode="&#x30ce;" horiz-adv-x="4369" 
d="M819 273v273h-273v273h819v273h546v-273h-273v-273h-273v-273h-546zM1911 1092v273h273v-273h-273zM2184 1365v273h273v-273h-273zM2457 1638v546h273v-546h-273zM2730 2184v546h273v-546h-273z" />
    <glyph glyph-name="uni30CF" unicode="&#x30cf;" horiz-adv-x="4369" 
d="M546 546v273h-273v273h819v273h273v273h273v-546h-273v-273h-273v-273h-546zM3549 546v273h-273v273h-273v273h-273v546h273v-273h273v-273h273v-273h273v-273h274v-273h-547zM1638 1638v546h273v-546h-273zM2457 1911v273h273v-273h-273z" />
    <glyph glyph-name="uni30D0" unicode="&#x30d0;" horiz-adv-x="4369" 
d="M546 546v273h-273v273h819v273h273v273h273v-546h-273v-273h-273v-273h-546zM3549 273v273h-273v273h-273v273h-273v546h273v-273h273v-273h273v-273h547v-546h-547zM1638 1638v546h273v-546h-273zM2457 1638v546h273v-546h-273zM3276 1911v273h273v-273h-273zM3003 2184
v273h273v-273h-273zM3822 2184v273h274v-273h-274zM3549 2457v273h273v-273h-273z" />
    <glyph glyph-name="uni30D1" unicode="&#x30d1;" horiz-adv-x="4369" 
d="M546 819v273h-273v273h819v-273h-273v-273h-273zM1092 1365v273h273v-273h-273zM1365 1638v273h273v-273h-273zM3549 819v273h-273v273h-273v273h-273v546h273v-273h273v-273h273v-273h273v-273h274v-273h-547zM1638 1911v546h273v-546h-273zM2457 2184v273h273v-273
h-273zM3549 2184v273h273v-273h-273zM3276 2457v273h273v-273h-273zM3822 2457v273h274v-273h-274zM3549 2730v273h273v-273h-273z" />
    <glyph glyph-name="uni30D2" unicode="&#x30d2;" horiz-adv-x="4369" 
d="M1092 546v273h273v-273h-273zM1365 273v273h1365v273h546v273h273v-546h-273v-273h-1911zM2457 1911v273h273v-273h-273zM819 819v1638h273v-819h819v273h546v-273h-273v-273h-1092v-546h-273z" />
    <glyph glyph-name="uni30D3" unicode="&#x30d3;" horiz-adv-x="4369" 
d="M819 546v273h273v-273h-273zM1092 273v273h1638v273h273v273h273v-546h-273v-273h-1911zM2184 1911v273h273v-273h-273zM546 819v1638h273v-819h819v273h546v-273h-273v-273h-1092v-546h-273zM2730 2184v273h273v-273h-273zM2457 2457v273h273v-273h-273zM3276 2457v273
h273v-273h-273zM3003 2730v273h273v-273h-273z" />
    <glyph glyph-name="uni30D4" unicode="&#x30d4;" horiz-adv-x="4369" 
d="M819 546v273h273v-273h-273zM1092 273v273h1365v273h546v273h273v-546h-273v-273h-1911zM2184 1911v273h273v-273h-273zM3003 1911v273h273v-273h-273zM546 819v1638h273v-819h819v273h546v-273h-273v-273h-1092v-546h-273zM2730 2184v273h273v-273h-273zM3276 2184v273
h273v-273h-273zM3003 2457v273h273v-273h-273z" />
    <glyph glyph-name="uni30D5" unicode="&#x30d5;" horiz-adv-x="4369" 
d="M819 273v273h-273v273h1365v273h546v-273h-273v-273h-546v-273h-819zM2457 1092v273h273v-273h-273zM2730 1365v273h273v-273h-273zM819 2184v273h273v-273h-273zM3003 1638v819h273v-819h-273zM1092 2457v273h1911v-273h-1911z" />
    <glyph glyph-name="uni30D6" unicode="&#x30d6;" horiz-adv-x="4369" 
d="M546 273v273h-273v273h1365v273h546v-273h-273v-273h-546v-273h-819zM2184 1092v273h273v-273h-273zM2457 1365v273h273v-273h-273zM546 2184v273h273v-273h-273zM2730 1638v819h273v-819h-273zM819 2457v273h1911v-273h-1911zM3003 2457v273h273v-273h-273zM2730 2730
v273h273v-273h-273zM3549 2730v273h273v-273h-273zM3276 3003v273h273v-273h-273z" />
    <glyph glyph-name="uni30D7" unicode="&#x30d7;" horiz-adv-x="4369" 
d="M546 273v273h-273v273h1365v273h546v-273h-273v-273h-546v-273h-819zM2184 1092v273h273v-273h-273zM2457 1365v273h273v-273h-273zM546 2184v273h273v-273h-273zM2730 1638v819h273v-819h-273zM819 2457v273h1911v-273h-1911zM3276 2457v273h273v-273h-273zM3003 2730
v273h273v-273h-273zM3549 2730v273h273v-273h-273zM3276 3003v273h273v-273h-273z" />
    <glyph glyph-name="uni30D8" unicode="&#x30d8;" horiz-adv-x="4369" 
d="M3549 273v273h-546v273h-273v273h546v-273h546v-273h274v-273h-547zM0 1092v273h546v-273h-546zM2457 1092v273h273v-273h-273zM546 1365v273h273v-273h-273zM2184 1365v273h273v-273h-273zM819 1638v273h273v-273h-273zM1911 1638v273h273v-273h-273zM1092 1911v273h819
v-273h-819z" />
    <glyph glyph-name="uni30D9" unicode="&#x30d9;" horiz-adv-x="4369" 
d="M3276 546v273h-546v546h273v-273h546v-273h547v-273h-820zM2457 1365v273h273v-273h-273zM0 1365v273h273v273h546v-273h-273v-273h-546zM2184 1638v273h273v-273h-273zM819 1911v273h273v-273h-273zM1911 1911v273h273v-273h-273zM3003 1911v273h273v-273h-273z
M1092 2184v273h819v-273h-819zM2730 2184v273h273v-273h-273zM3549 2184v273h273v-273h-273zM3276 2457v273h273v-273h-273z" />
    <glyph glyph-name="uni30DA" unicode="&#x30da;" horiz-adv-x="4369" 
d="M0 1092v273h546v-273h-546zM546 1365v273h273v-273h-273zM3276 273v273h-546v273h-273v273h-273v546h273v-273h273v-273h273v-273h546v-273h547v-273h-820zM819 1638v273h273v-273h-273zM1911 1638v273h273v-273h-273zM1092 1911v273h819v-273h-819zM3003 1911v273h273
v-273h-273zM2730 2184v273h273v-273h-273zM3276 2184v273h273v-273h-273zM3003 2457v273h273v-273h-273z" />
    <glyph glyph-name="uni30DB" unicode="&#x30db;" horiz-adv-x="4369" 
d="M273 546v273h273v273h273v273h273v-546h-273v-273h-546zM3276 819v273h-273v273h546v-273h273v-273h-546zM1092 1365v273h273v-273h-273zM2730 1365v273h273v-273h-273zM1911 273v1911h-1092v-273h-546v273h273v273h1365v546h273v-546h1365v-273h273v-273h-546v273h-1092
v-1911h-273z" />
    <glyph glyph-name="uni30DC" unicode="&#x30dc;" horiz-adv-x="4369" 
d="M3276 819v273h546v-273h-546zM273 546v273h273v273h273v273h273v-546h-273v-273h-546zM3003 1092v273h273v-273h-273zM1092 1365v273h273v-273h-273zM2730 1365v273h273v-273h-273zM3276 2457v273h273v-273h-273zM1911 273v1911h-1092v-273h-546v273h273v273h1365v546
h273v-546h1092v-273h273v-273h-546v273h-819v-1911h-273zM3003 2730v273h273v-273h-273zM3822 2730v273h274v-273h-274zM3549 3003v273h273v-273h-273z" />
    <glyph glyph-name="uni30DD" unicode="&#x30dd;" horiz-adv-x="4369" 
d="M3003 819v273h546v-273h-546zM0 546v273h273v273h273v273h273v-546h-273v-273h-546zM2730 1092v273h273v-273h-273zM819 1365v273h273v-273h-273zM2457 1365v273h273v-273h-273zM1638 273v1911h-1092v-273h-546v273h273v273h1365v546h273v-546h1092v273h273v-546h273
v-273h-546v273h-1092v-1911h-273zM2730 2730v273h273v-273h-273zM3276 2730v273h273v-273h-273zM3003 3003v273h273v-273h-273z" />
    <glyph glyph-name="uni30DE" unicode="&#x30de;" horiz-adv-x="4369" 
d="M2457 546v273h273v-273h-273zM2184 819v273h-273v273h-273v273h546v-273h273v-546h-273zM2457 1365v273h546v-273h-546zM3003 1638v273h273v-273h-273zM3276 1911v273h273v-273h-273zM546 1911v273h273v273h2457v-273h-2184v-273h-546z" />
    <glyph glyph-name="uni30DF" unicode="&#x30df;" horiz-adv-x="4369" 
d="M1911 273v273h-546v273h-546v273h819v-273h546v-273h546v-273h-819zM1638 1365v273h-273v273h546v-273h273v-273h-546zM1092 1911v273h273v-273h-273zM1911 2184v273h-273v273h546v-273h273v-273h-546zM1365 2730v273h273v-273h-273z" />
    <glyph glyph-name="uni30E0" unicode="&#x30e0;" horiz-adv-x="4369" 
d="M273 546v273h273v273h273v273h273v-273h1638v273h273v-273h273v-273h273v-273h-546v273h-2184v-273h-546zM1092 1365v273h273v-273h-273zM2457 1365v273h273v-273h-273zM1365 1638v273h273v-273h-273zM1638 1911v273h273v-273h-273zM1911 2184v546h273v-546h-273z" />
    <glyph glyph-name="uni30E1" unicode="&#x30e1;" horiz-adv-x="4369" 
d="M546 273v273h-273v273h1092v273h546v-273h-273v-273h-546v-273h-546zM1911 1092v273h273v-273h-273zM3003 546v273h-273v273h-273v273h546v-273h819v-273h-273v-273h-546zM2184 1365v273h273v-273h-273zM1911 1638v273h273v-273h-273zM1638 1911v273h273v-273h-273z
M2457 1638v546h273v-546h-273zM2730 2184v819h273v-819h-273z" />
    <glyph glyph-name="uni30E2" unicode="&#x30e2;" horiz-adv-x="4369" 
d="M546 2184v273h273v-273h-273zM1911 273v273h-273v1092h-819v-273h-546v273h273v273h1092v546h-819v273h2184v-273h-1092v-546h1638v-273h273v-273h-546v273h-1365v-819h273v-273h1365v-273h-1638z" />
    <glyph glyph-name="uni30E3" unicode="&#x30e3;" horiz-adv-x="4369" 
d="M1911 273v819h273v-819h-273zM819 1365v273h273v-273h-273zM2730 1365v273h273v-273h-273zM3003 1638v273h-819v273h1092v-546h-273zM1638 1092v546h-546v273h546v546h273v-546h273v-273h-273v-546h-273z" />
    <glyph glyph-name="uni30E4" unicode="&#x30e4;" horiz-adv-x="4369" 
d="M1911 273v819h273v-546h273v-273h-546zM1638 1092v819h273v-819h-273zM2457 1638v273h273v-273h-273zM546 1638v273h-273v273h819v-273h-273v-273h-273zM2730 1911v273h546v-273h-546zM3276 2184v273h-1092v273h1365v-546h-273zM1365 1911v273h-273v273h273v546h-273v273
h546v-819h546v-273h-546v-273h-273z" />
    <glyph glyph-name="uni30E5" unicode="&#x30e5;" horiz-adv-x="4369" 
d="M546 546v273h546v-273h-546zM3003 546v273h546v-273h-546zM1092 819v273h1092v273h273v-273h546v-273h-1911zM1092 1638v273h273v-273h-273zM2457 1365v546h273v-546h-273zM1365 1911v273h1092v-273h-1092z" />
    <glyph glyph-name="uni30E6" unicode="&#x30e6;" horiz-adv-x="4369" 
d="M0 546v273h273v273h1911v546h273v-546h1092v-273h273v-273h-546v273h-2730v-273h-546zM2457 1638v546h-1092v-273h-546v273h273v273h1638v-819h-273z" />
    <glyph glyph-name="uni30E7" unicode="&#x30e7;" horiz-adv-x="4369" 
d="M1092 546v273h1638v-273h-1638zM2730 819v546h-1365v273h1365v546h-1638v273h1911v-273h273v-273h-273v-1092h-273z" />
    <glyph glyph-name="uni30E8" unicode="&#x30e8;" horiz-adv-x="4369" 
d="M819 273v273h273v273h1638v273h273v546h-1365v-273h-546v273h273v273h1638v273h-273v273h-1365v-273h-546v273h273v273h1911v-273h273v-1638h-273v-273h-1638v-273h-546z" />
    <glyph glyph-name="uni30E9" unicode="&#x30e9;" horiz-adv-x="4369" 
d="M1092 273v273h-273v273h1365v273h546v-273h-273v-273h-546v-273h-819zM2730 1092v273h273v-273h-273zM3003 1365v819h273v-819h-273zM546 1911v273h273v273h2184v-273h-1911v-273h-546zM1092 2730v273h1911v-273h-1911z" />
    <glyph glyph-name="uni30EA" unicode="&#x30ea;" horiz-adv-x="4369" 
d="M1365 273v273h-273v273h1092v273h273v273h273v-546h-273v-273h-546v-273h-546zM1365 1638v1365h273v-1365h-273zM2730 1365v1911h273v-1911h-273z" />
    <glyph glyph-name="uni30EB" unicode="&#x30eb;" horiz-adv-x="4369" 
d="M546 273v273h273v-273h-273zM819 546v546h273v-546h-273zM3276 819v273h273v-273h-273zM3549 1092v273h273v-273h-273zM1092 1092v1638h273v-1638h-273zM1911 273v2457h273v-1911h1092v-273h-546v-273h-819z" />
    <glyph glyph-name="uni30EC" unicode="&#x30ec;" horiz-adv-x="4369" 
d="M2730 1092v273h273v-273h-273zM3003 1365v273h273v-273h-273zM1092 273v273h-273v2457h273v-2184h1092v273h546v-273h-273v-273h-546v-273h-819z" />
    <glyph glyph-name="uni30ED" unicode="&#x30ed;" horiz-adv-x="4369" 
d="M2730 819v1092h-273v273h-1365v-1092h273v-273h1365zM819 273v2184h2184v-2184h-273v273h-1638v-273h-273z" />
    <glyph glyph-name="uni30EF" unicode="&#x30ef;" horiz-adv-x="4369" 
d="M819 273v273h273v273h546v273h546v-273h-273v-273h-546v-273h-546zM2184 1092v273h273v-273h-273zM2457 1365v273h273v-273h-273zM2730 1638v1092h-1638v-273h-273v-546h-273v1092h2457v-1365h-273z" />
    <glyph glyph-name="uni30F3" unicode="&#x30f3;" horiz-adv-x="4369" 
d="M546 273v273h-273v273h1638v273h546v-273h-273v-273h-546v-273h-1092zM2457 1092v273h273v-273h-273zM2730 1365v273h273v-273h-273zM3003 1638v273h273v-273h-273zM1092 1638v273h-273v273h-273v273h546v-273h273v-546h-273z" />
    <glyph glyph-name="uni30F4" unicode="&#x30f4;" horiz-adv-x="4369" 
d="M1092 273v273h-273v273h1365v-273h-546v-273h-546zM2184 819v273h273v-273h-273zM2457 1092v273h273v-273h-273zM2730 1365v273h273v-273h-273zM3276 2730v273h273v-273h-273zM546 1638v819h273v273h1092v273h-273v273h546v-546h1092v-273h273v-546h-273v-273h-273v819
h-1911v-273h-273v-546h-273zM3003 3003v273h273v-273h-273zM3822 3003v273h274v-273h-274zM3549 3276v273h273v-273h-273z" />
    <glyph glyph-name="uni30F5" unicode="&#x30f5;" horiz-adv-x="4369" 
d="M2184 273v273h273v-273h-273zM819 546v273h546v-273h-546zM2457 546v273h273v-273h-273zM1365 819v273h273v-273h-273zM2730 819v273h273v-273h-273zM1638 1092v273h273v-273h-273zM1911 1365v273h273v-273h-273zM1365 1638v273h273v-273h-273zM3003 1092v819h273v-819
h-273zM2184 1638v273h-546v273h819v273h273v-273h273v-273h-546v-273h-273z" />
    <glyph glyph-name="uni30F7" unicode="&#x30f7;" horiz-adv-x="4369" 
d="M546 273v273h273v273h546v273h546v-273h-273v-273h-546v-273h-546zM1911 1092v273h273v-273h-273zM2184 1365v273h273v-273h-273zM2457 1638v1092h273v-1092h-273zM273 1911v1092h2184v-273h-1638v-273h-273v-546h-273zM3003 2730v273h273v-273h-273zM2730 3003v273h273
v-273h-273zM3549 3003v273h273v-273h-273zM3276 3276v273h273v-273h-273z" />
    <glyph glyph-name="uni30FC" unicode="&#x30fc;" horiz-adv-x="4369" 
d="M819 1365v273h-273v273h2730v273h273v-273h273v-273h-2457v-273h-546z" />
    <glyph glyph-name="uniFE59" unicode="&#xfe59;" horiz-adv-x="4369" 
d="M3549 0v273h273v-273h-273zM3276 273v546h273v-546h-273zM3003 819v1638h273v-1638h-273zM3276 2457v546h273v-546h-273zM3549 3003v273h273v-273h-273z" />
    <glyph glyph-name="uniFE5A" unicode="&#xfe5a;" horiz-adv-x="4369" 
d="M546 0v273h273v-273h-273zM819 273v546h273v-546h-273zM1092 819v1638h273v-1638h-273zM819 2457v546h273v-546h-273zM546 3003v273h273v-273h-273z" />
    <glyph glyph-name="uniFF01" unicode="&#xff01;" horiz-adv-x="4369" 
d="M1092 0v546h546v-546h-546zM1638 819v273h273v-273h-273zM1911 1092v546h273v273h273v546h273v273h273v546h546v-546h-273v-546h-273v-273h-273v-273h-273v-273h-273v-273h-273z" />
    <glyph glyph-name="uniFF08" unicode="&#xff08;" horiz-adv-x="2457" 
d="M1092 -273v273h-273v546h-273v2184h273v546h273v273h273v-546h-273v-2730h273v-546h-273z" />
    <glyph glyph-name="uniFF09" unicode="&#xff09;" horiz-adv-x="2457" 
d="M273 -273v546h273v2730h-273v546h273v-273h273v-546h273v-2184h-273v-546h-273v-273h-273z" />
    <glyph glyph-name="uniFF0B" unicode="&#xff0b;" 
d="M819 819v546h-546v273h546v546h273v-546h546v-273h-546v-546h-273z" />
    <glyph glyph-name="uniFF0C" unicode="&#xff0c;" 
d="M1092 0v273h-273v273h819v-273h-273v-273h-273zM546 546v273h273v-273h-273z" />
    <glyph glyph-name="uniFF0D" unicode="&#xff0d;" 
d="M273 1365v273h1365v-273h-1365z" />
    <glyph glyph-name="uniFF0E" unicode="&#xff0e;" 
d="M819 0v273h546v-273h-546zM546 273v273h273v-273h-273zM1365 273v273h273v-273h-273zM819 546v273h546v-273h-546z" />
    <glyph glyph-name="uniFF0F" unicode="&#xff0f;" 
d="M273 273v819h273v546h273v546h273v546h273v546h273v546h273v-819h-273v-546h-273v-546h-273v-546h-273v-546h-273v-546h-273z" />
    <glyph glyph-name="uniFF10" unicode="&#xff10;" 
d="M546 0v273h819v-273h-819zM273 273v273h273v-273h-273zM1365 273v273h273v-273h-273zM0 546v2184h273v-2184h-273zM1638 546v2184h273v-2184h-273zM273 2730v273h273v-273h-273zM1365 2730v273h273v-273h-273zM546 3003v273h819v-273h-819z" />
    <glyph glyph-name="uniFF11" unicode="&#xff11;" 
d="M273 2457v273h546v-273h-546zM1092 0v2730h-273v273h273v273h273v-3276h-273z" />
    <glyph glyph-name="uniFF12" unicode="&#xff12;" 
d="M273 0v546h273v-273h819v273h546v-273h-273v-273h-1365zM546 546v273h273v-273h-273zM819 819v273h273v-273h-273zM1092 1092v273h273v-273h-273zM1365 1365v546h273v-546h-273zM1638 1911v819h273v-819h-273zM273 2457v546h546v-273h-273v-273h-273zM1365 2730v273h273
v-273h-273zM819 3003v273h546v-273h-546z" />
    <glyph glyph-name="uniFF13" unicode="&#xff13;" 
d="M546 0v273h819v-273h-819zM1365 273v273h273v-273h-273zM0 273v546h273v-273h273v-273h-546zM1638 546v819h273v-819h-273zM1365 1365v273h273v-273h-273zM819 1638v273h546v-273h-546zM1365 1911v273h273v-273h-273zM1638 2184v546h273v-546h-273zM273 2730v273h273
v-273h-273zM1365 2730v273h273v-273h-273zM546 3003v273h819v-273h-819z" />
    <glyph glyph-name="uniFF14" unicode="&#xff14;" 
d="M273 1092v546h273v-546h-273zM546 1638v546h273v-546h-273zM1365 0v546h-1365v546h273v-273h1092v1365h273v-1092h273v-273h-273v-819h-273zM819 2184v819h273v273h273v-546h-273v-546h-273z" />
    <glyph glyph-name="uniFF15" unicode="&#xff15;" 
d="M546 0v273h819v-273h-819zM1365 273v273h273v-273h-273zM0 273v546h273v-273h273v-273h-546zM1638 546v1092h273v-1092h-273zM1365 1638v273h273v-273h-273zM273 1638v1638h1638v-273h-273v-273h-273v273h-819v-819h819v-273h-819v-273h-273z" />
    <glyph glyph-name="uniFF16" unicode="&#xff16;" 
d="M546 0v273h819v-273h-819zM273 273v273h273v-273h-273zM1365 273v273h273v-273h-273zM1638 546v1092h273v-1092h-273zM1365 1638v273h273v-273h-273zM546 1911v273h819v-273h-819zM0 546v1911h273v-546h273v-273h-273v-1092h-273zM273 2457v546h273v-546h-273zM1638 2457
v273h-273v273h546v-546h-273zM546 3003v273h819v-273h-819z" />
    <glyph glyph-name="uniFF17" unicode="&#xff17;" 
d="M819 0v1365h273v-1365h-273zM1092 1365v546h273v-546h-273zM1365 1911v546h273v-546h-273zM0 2457v546h273v273h273v-273h1365v-546h-273v273h-1365v-273h-273z" />
    <glyph glyph-name="uniFF18" unicode="&#xff18;" 
d="M546 0v273h819v-273h-819zM273 273v273h273v-273h-273zM1365 273v273h273v-273h-273zM0 546v819h273v-819h-273zM1638 546v819h273v-819h-273zM273 1365v273h273v-273h-273zM1365 1365v273h273v-273h-273zM546 1638v273h819v-273h-819zM273 1911v273h273v-273h-273z
M1365 1911v273h273v-273h-273zM0 2184v546h273v-546h-273zM1638 2184v546h273v-546h-273zM273 2730v273h273v-273h-273zM1365 2730v273h273v-273h-273zM546 3003v273h819v-273h-819z" />
    <glyph glyph-name="uniFF19" unicode="&#xff19;" 
d="M546 0v273h819v-273h-819zM1365 273v273h273v-273h-273zM273 273v273h-273v273h546v-546h-273zM546 1365v273h819v-273h-819zM273 1638v273h273v-273h-273zM0 1911v819h273v-819h-273zM1638 546v1092h-273v273h273v819h273v-2184h-273zM273 2730v273h273v-273h-273z
M1365 2730v273h273v-273h-273zM546 3003v273h819v-273h-819z" />
    <glyph glyph-name="uniFF1A" unicode="&#xff1a;" 
d="M546 273v819h819v-819h-819zM546 1911v819h819v-819h-819z" />
    <glyph glyph-name="uniFF1D" unicode="&#xff1d;" 
d="M273 1092v273h1365v-273h-1365zM273 1638v273h1365v-273h-1365z" />
    <glyph glyph-name="uniFF1F" unicode="&#xff1f;" horiz-adv-x="4369" 
d="M1638 0v546h546v-546h-546zM1638 819v546h273v-546h-273zM1911 1365v273h819v-273h-819zM2730 1638v273h546v-273h-546zM3276 1911v819h273v-819h-273zM546 2457v546h273v-273h273v-273h-546zM1092 2730v273h546v-273h-546zM2730 2730v273h-1092v273h1365v-273h273v-273
h-546z" />
    <glyph glyph-name="uniFF2C" unicode="&#xff2c;" horiz-adv-x="3276" 
d="M0 0v546h546v2184h-273v273h819v-273h-273v-2184h2184v-273h-273v-273h-546v273h-1911v-273h-273z" />
    <glyph glyph-name="uniFF32" unicode="&#xff32;" horiz-adv-x="3276" 
d="M2457 273v273h-273v273h546v-273h546v-273h-819zM1911 819v273h273v-273h-273zM2184 1638v273h273v-273h-273zM2457 1911v546h273v-546h-273zM2184 2457v273h273v-273h-273zM273 273v2184h-273v273h273v273h1911v-273h-1638v-1092h1638v-273h-273v-273h-273v273h-1092
v-1092h-273z" />
    <glyph glyph-name="uniFF5E" unicode="&#xff5e;" horiz-adv-x="4369" 
d="M819 1365v273h2457v-273h-2457z" />
    <glyph glyph-name="uniFF5F" unicode="&#xff5f;" horiz-adv-x="3276" 
d="M1092 2184v273h546v-273h-546zM1638 273v273h273v1911h-273v273h273v273h273v-2730h-546z" />
    <glyph glyph-name="uniFF60" unicode="&#xff60;" horiz-adv-x="3276" 
d="M819 273v819h273v546h273v273h273v-546h-273v-1092h-546zM1638 1911v546h273v-546h-273zM0 2457v273h273v546h273v-273h1911v-546h-546v273h-1365v-273h-546z" />
    <glyph glyph-name="uniFF61" unicode="&#xff61;" 
d="M819 273v273h-273v-273h273zM273 0v819h819v-819h-819z" />
    <glyph glyph-name="uniFF62" unicode="&#xff62;" 
d="M546 273v3003h1638v-273h-1365v-2730h-273z" />
    <glyph glyph-name="uniFF63" unicode="&#xff63;" 
d="M273 0v273h1365v2730h273v-3003h-1638z" />
    <glyph glyph-name="uniFF64" unicode="&#xff64;" 
d="M819 0v273h273v-273h-273zM546 273v273h273v-273h-273z" />
    <glyph glyph-name="uniFF65" unicode="&#xff65;" 
d="M819 1365v546h546v-546h-546z" />
    <glyph glyph-name="uniFF66" unicode="&#xff66;" 
d="M819 0v273h819v-273h-819zM546 273v273h273v-273h-273zM273 546v273h273v-273h-273zM1365 819v273h273v-273h-273zM819 546v273h-273v546h-273v273h546v273h273v-273h273v-273h-546v-273h273v-273h273v-273h-546z" />
    <glyph glyph-name="uniFF67" unicode="&#xff67;" 
d="M1365 0v546h273v-546h-273zM0 0v546h273v-273h273v273h-273v273h273v273h-546v273h546v273h273v-273h546v-273h-546v-273h546v-273h-273v-273h-273v-273h-819z" />
    <glyph glyph-name="uniFF68" unicode="&#xff68;" 
d="M273 0v273h273v-273h-273zM546 273v273h273v-273h-273zM1365 273v819h273v-819h-273zM0 273v1092h273v-1092h-273zM1092 1092v273h273v-273h-273z" />
    <glyph glyph-name="uniFF69" unicode="&#xff69;" 
d="M546 0v273h546v-273h-546zM1092 273v546h-819v273h1092v-819h-273zM546 1365v273h546v-273h-546z" />
    <glyph glyph-name="uniFF6A" unicode="&#xff6a;" 
d="M273 0v273h273v-273h-273zM1092 0v273h546v-273h-546zM546 273v273h273v273h-546v273h1092v-273h-273v-546h-546zM546 1365v273h546v-273h-546z" />
    <glyph glyph-name="uniFF6B" unicode="&#xff6b;" 
d="M1092 0v273h273v-273h-273zM0 273v273h273v-273h-273zM1365 273v273h273v-273h-273zM1365 1092v273h273v-273h-273zM273 0v273h273v273h-273v273h273v273h-546v273h546v273h273v-273h273v-273h-273v-273h546v-273h-546v-546h-546z" />
    <glyph glyph-name="uniFF6C" unicode="&#xff6c;" 
d="M546 0v546h273v-546h-273zM1092 546v273h273v-273h-273zM273 546v273h-273v273h273v546h273v-273h273v273h273v-273h546v-546h-273v273h-273v-273h-273v273h-273v-546h-273z" />
    <glyph glyph-name="uniFF6D" unicode="&#xff6d;" 
d="M1365 546v546h273v-546h-273zM0 273v1092h273v-273h273v-546h-273v-273h-273zM819 0v273h-273v273h273v546h-273v273h273v273h273v-273h273v-273h-273v-546h273v-273h-273v-273h-273z" />
    <glyph glyph-name="uniFF6E" unicode="&#xff6e;" 
d="M1092 0v273h273v-273h-273zM0 0v546h273v-273h273v273h-273v273h273v546h273v-273h546v-273h-546v-273h273v-273h-273v-273h-819z" />
    <glyph glyph-name="uniFF6F" unicode="&#xff6f;" 
d="M273 0v273h819v-273h-819zM1092 273v273h273v-273h-273zM1365 546v273h273v-273h-273zM0 819v273h1365v-273h-1365z" />
    <glyph glyph-name="uniFF70" unicode="&#xff70;" 
d="M273 819v273h1365v-273h-1365z" />
    <glyph glyph-name="uniFF71" unicode="&#xff71;" 
d="M273 0v273h546v-273h-546zM1365 0v273h273v-273h-273zM819 273v273h273v-273h-273zM0 273v546h273v-546h-273zM1638 273v546h273v-546h-273zM546 546v273h-273v273h273v273h-546v273h546v273h273v-273h546v-273h-546v-273h819v-273h-273v-273h-273v273h-273v-273h-273z
" />
    <glyph glyph-name="uniFF72" unicode="&#xff72;" 
d="M273 0v273h546v-273h-546zM819 273v273h273v-273h-273zM1638 546v819h273v-819h-273zM0 273v1365h273v-1365h-273zM1365 1365v273h273v-273h-273z" />
    <glyph glyph-name="uniFF73" unicode="&#xff73;" 
d="M819 0v273h546v-273h-546zM1365 273v273h273v-273h-273zM273 819v273h273v-273h-273zM1638 546v546h273v-546h-273zM546 1092v273h1092v-273h-1092zM546 1638v273h819v-273h-819z" />
    <glyph glyph-name="uniFF74" unicode="&#xff74;" 
d="M273 0v273h273v-273h-273zM1365 0v273h546v-273h-546zM546 273v273h273v-273h-273zM1092 273v273h273v-273h-273zM819 546v273h273v-273h-273zM1092 819v273h-819v273h1365v-273h-273v-273h-273zM546 1638v273h546v-273h-546z" />
    <glyph glyph-name="uniFF75" unicode="&#xff75;" 
d="M1365 0v273h273v-273h-273zM0 273v546h273v-546h-273zM1638 273v546h273v-546h-273zM273 0v273h273v546h-273v273h273v273h-546v273h546v273h273v-273h546v-273h-546v-273h819v-273h-819v-819h-546zM1638 1365v546h273v-546h-273z" />
    <glyph glyph-name="uniFF76" unicode="&#xff76;" 
d="M819 0v273h273v-273h-273zM0 0v546h273v-546h-273zM546 273v273h273v-273h-273zM273 546v273h273v-273h-273zM1092 273v819h273v-819h-273zM1638 819v546h273v-546h-273zM1365 1365v273h273v-273h-273zM546 819v273h-546v273h546v546h273v-546h273v-273h-273v-273h-273z
" />
    <glyph glyph-name="uniFF77" unicode="&#xff77;" 
d="M273 0v273h1092v-273h-1092zM0 273v273h273v-273h-273zM1092 546v273h-1092v273h819v273h-819v273h546v273h273v-273h819v-273h-546v-273h546v-273h-273v-273h-273z" />
    </font>
</defs>
</svg>
